<svg width="39" height="35" version="1.1" id="Layer_1" xmlns="http://www.w3.org/2000/svg" xmlns:xlink="http://www.w3.org/1999/xlink" x="0px" y="0px"
     viewBox="0 0 164.9 155" style="enable-background:new 0 0 164.9 155;" xml:space="preserve">
<style type="text/css">
	.st0{fill:#3C5239;}
</style>
    <ellipse class="st0" cx="82.4" cy="12.1" rx="12.2" ry="12.1"/>
    <path class="st0" d="M52.8,12.1C52.8,5.4,47.3,0,40.6,0c-6.7,0-12.1,5.4-12.1,12.1s5.4,12.1,12.1,12.1
	C47.3,24.3,52.8,18.9,52.8,12.1C52.8,12.1,52.8,12.1,52.8,12.1z"/>
    <circle class="st0" cx="124.3" cy="12.1" r="12.1"/>
    <polygon class="st0" points="122.4,146.9 42,146.9 44.8,155 119.6,155 "/>
    <polygon class="st0" points="139,42.5 139,45.1 154.1,45.1 126.4,126.9 107.2,70 107.2,70 97.8,42.5 97.8,42.5 97.8,42.5 82.5,42.5
	82.5,45 90.2,45 90.2,45.1 90.2,45.1 91.9,50 95.4,60.4 95.4,60.4 97.6,66.9 111.1,106.8 119.4,131.6 127.6,131.6 156.9,45.1
	164.9,45.1 164.9,42.5 "/>
    <polygon class="st0" points="65.9,70 66,69.9 64.6,65.9 64.6,66 60,52.5 56.6,42.5 41.2,42.5 41.2,45.1 49,45.1 57.1,69.2
	69.9,106.8 69.9,106.8 78.2,131.6 86.4,131.6 86.4,131.6 78.9,108.3 "/>
    <polygon class="st0" points="24.8,70 24.8,69.9 23.4,65.9 23.4,66 18.9,52.5 15.4,42.5 0,42.5 0,45.1 7.8,45.1 15.9,69.2
	28.7,106.8 28.7,106.8 37,131.6 45.2,131.6 45.2,131.6 37.7,108.3 "/>
</svg>
