<?xml version="1.0" standalone="no"?>
<!DOCTYPE svg PUBLIC "-//W3C//DTD SVG 1.1//EN" "http://www.w3.org/Graphics/SVG/1.1/DTD/svg11.dtd" >
<svg xmlns="http://www.w3.org/2000/svg" xmlns:xlink="http://www.w3.org/1999/xlink" version="1.1">
<metadata>
Created by FontForge 20170731 at Mon Jan 18 14:11:45 2021
 By Aleksey,,,
 1993-2003 PARACHUTE FONTS. All rights reserved. Designed by Panos Vassiliou. {www.parachute.gr}
</metadata>
<defs>
<font id="PFBodoniText-Italic" horiz-adv-x="1024" >
  <font-face 
    font-family="PF BodoniText"
    font-weight="400"
    font-style="italic"
    font-stretch="normal"
    units-per-em="2048"
    panose-1="2 0 6 6 8 0 0 9 0 4"
    ascent="1638"
    descent="-410"
    x-height="829"
    cap-height="1331"
    bbox="-342 -504 2009 1782"
    underline-thickness="81"
    underline-position="-326"
    slope="-11"
    unicode-range="U+0020-E000"
  />
<missing-glyph horiz-adv-x="2048" 
 />
    <glyph glyph-name=".notdef" horiz-adv-x="2048" 
 />
    <glyph glyph-name=".null" horiz-adv-x="0" 
 />
    <glyph glyph-name="nonmarkingreturn" horiz-adv-x="682" 
 />
    <glyph glyph-name="space" unicode=" " horiz-adv-x="522" 
 />
    <glyph glyph-name="space" unicode="&#xa0;" horiz-adv-x="522" 
 />
    <glyph glyph-name="exclam" unicode="!" horiz-adv-x="479" 
d="M592 1153q109 270 -25 270q-26 0 -47.5 -7.5t-37.5 -24t-28 -31.5t-21 -42t-14.5 -42.5t-10.5 -46.5t-6.5 -40t-4.5 -36q-30 -259 -53.5 -412t-71.5 -399h52q156 511 268 811zM131 86q0 -43 29.5 -72.5t72.5 -29.5t73 29.5t30 72.5t-30 72.5t-73 29.5t-72.5 -29.5
t-29.5 -72.5z" />
    <glyph glyph-name="quotedbl" unicode="&#x22;" horiz-adv-x="684" 
d="M383 905l147 404q19 41 8.5 69.5t-51.5 28.5q-83 0 -98 -107l-51 -395h45zM623 905l147 404q19 41 8.5 69.5t-51.5 28.5q-87 0 -98 -107l-54 -395h48z" />
    <glyph glyph-name="numbersign" unicode="#" horiz-adv-x="1251" 
d="M1255 764h-305l-88 -232h295l-22 -92h-306l-170 -440h-92l168 440h-231l-170 -440h-96l168 440h-287l22 92h299l88 232h-284l22 94h299l160 412h98l-159 -412h229l162 412h92l-158 -412h289zM858 764h-233l-88 -232h231z" />
    <glyph glyph-name="dollar" unicode="$" horiz-adv-x="903" 
d="M975 1092q0 -60 -35.5 -89.5t-69.5 -29.5q-38 0 -62 17t-24 52q0 24 12 42t27 27t27 22t12 28q0 57 -98 72l-117 -475q54 -21 91.5 -42.5t72 -54.5t51.5 -81.5t17 -112.5q0 -166 -121.5 -308t-298.5 -171l-35 -142h-57l32 134h-24h-29q-19 0 -27 2l-34 -136h-58l35 142
q-52 11 -90.5 34.5t-57.5 47.5t-30.5 53t-13.5 44.5t-2 29.5q0 60 34 89t68 29q38 0 63 -17t25 -52q0 -24 -12.5 -42t-27.5 -27t-27.5 -22t-12.5 -28q0 -29 30 -52.5t71 -31.5l131 551q-193 87 -193 235q0 156 107.5 290t255.5 171l32 131h58l-29 -121q9 3 21 3h20h39
l31 118h57l-31 -125q51 -9 89.5 -31.5t58 -46.5t31.5 -52.5t15 -45t3 -28.5zM707 1239q-7 0 -20 1t-17 1q-13 0 -45 -4l-107 -438l21 -6q21 -7 53 -19zM563 1223q-87 -30 -151 -108t-64 -159q0 -53 30 -84.5t87 -54.5zM750 350q0 71 -42 113t-116 69l-115 -483
q115 28 194 105t79 196zM539 551q-50 13 -58 16l-18 6l-127 -534q7 -3 14.5 -3t15.5 1.5t11 1.5h18q15 0 21 2z" />
    <glyph glyph-name="percent" unicode="%" horiz-adv-x="1372" 
d="M1251 1270l-891 -1270h-77l895 1270h73zM582 1241q-53 0 -99 -45.5t-74 -112t-43.5 -134.5t-15.5 -120q0 -60 32 -89t71 -29q55 0 101 43t72.5 107t41 129t14.5 118q0 133 -100 133zM594 1290q99 0 149 -65t50 -164q0 -91 -46.5 -184t-130 -155.5t-176.5 -62.5
q-96 0 -149 66t-53 156q0 88 45 181.5t129.5 160.5t181.5 67zM1085 561q-53 0 -98.5 -44.5t-73 -110.5t-42.5 -133.5t-15 -120.5q0 -60 31 -89.5t69 -29.5q55 0 101.5 43t73.5 107t42 129.5t15 117.5q0 131 -103 131zM1098 612q99 0 148.5 -64.5t49.5 -164.5q0 -92 -46 -184
t-129 -154.5t-177 -62.5q-97 0 -150 66t-53 155q0 65 27.5 136.5t73.5 132.5t114 100.5t142 39.5z" />
    <glyph glyph-name="ampersand" unicode="&#x26;" horiz-adv-x="1421" 
d="M815 291q17 -33 30 -57.5t41 -65t55 -67t65 -46.5t77 -20q48 0 114 40.5t124 98.5l33 -27q-89 -89 -159.5 -131.5t-164.5 -42.5q-42 0 -78 6.5t-66 21t-52 28t-44.5 37t-34.5 36.5t-31.5 38.5t-25.5 33.5q-115 -98 -219.5 -150.5t-218.5 -52.5q-112 0 -180 55.5
t-68 157.5q0 66 28.5 128.5t70.5 109t104.5 92.5t114.5 75t116 60q-32 94 -32 180q0 55 12.5 112t38.5 111t62 96t87.5 67.5t110.5 25.5q74 0 121 -51.5t47 -130.5q0 -37 -11.5 -73.5t-37 -71.5t-46.5 -60.5t-59.5 -58t-55 -46t-52.5 -40.5q51 -169 155 -373q72 88 207 268
q122 166 262 166q51 0 82 -26t31 -68q0 -54 -33.5 -88.5t-83.5 -34.5q-30 0 -45 10.5t-17 26t-0.5 31t0.5 29.5t-9 18q-28 15 -80.5 -32.5t-83.5 -92.5q-91 -110 -201 -252zM813 1042q0 61 -26 101.5t-82 40.5q-53 0 -93.5 -37t-54.5 -92q-5 -21 -5 -47.5t3.5 -50t11 -53.5
t14.5 -51.5t16 -49.5t13 -43q203 136 203 282zM662 217q-108 141 -203 381q-59 -34 -100 -63t-85 -71.5t-67 -94.5t-23 -111q0 -88 52.5 -134t136.5 -48q134 0 289 141z" />
    <glyph glyph-name="quotesingle" unicode="'" horiz-adv-x="454" 
d="M383 905l147 404q19 41 8.5 69.5t-51.5 28.5q-83 0 -98 -107l-51 -395h45z" />
    <glyph glyph-name="parenleft" unicode="(" horiz-adv-x="790" 
d="M885 1317l-21 35q-156 -91 -289 -216t-231.5 -273t-154.5 -321t-56 -349q0 -197 73 -364.5t220 -262.5l31 31q-187 164 -187 436q0 181 39 365t113 356.5t193.5 320.5t269.5 242z" />
    <glyph glyph-name="parenright" unicode=")" horiz-adv-x="790" 
d="M-49 -403l16 -31q149 73 283.5 200t232.5 280t155.5 329t57.5 342q0 191 -76 354.5t-219 280.5l-34 -35q190 -170 190 -457q0 -179 -39 -362.5t-113 -353t-191 -314t-263 -233.5z" />
    <glyph glyph-name="asterisk" unicode="*" horiz-adv-x="790" 
d="M537 1028q13 51 2 131.5t-7 97.5q7 35 33.5 56.5t61.5 21.5q75 0 57 -75q-4 -23 -52 -101t-63 -131q43 25 120.5 94.5t103.5 79.5q50 18 73 -20q17 -25 9 -55.5t-39 -53.5q-27 -20 -71.5 -26.5t-94.5 -15t-90 -34.5q31 -23 116.5 -36t102.5 -35q20 -24 12.5 -57
t-37.5 -58q-30 -23 -51 -23t-41 17q-22 17 -61.5 83.5t-65.5 80.5q-12 -50 -1.5 -127.5t3.5 -106.5q-10 -35 -35.5 -54t-58.5 -19q-36 0 -51.5 20t-5.5 55q4 26 53 102.5t61 131.5q-50 -26 -113.5 -88.5t-95.5 -79.5q-56 -27 -88 10q-17 25 -7.5 58.5t40.5 56.5
q28 19 73.5 23.5t94.5 13t88 36.5q-30 23 -77 30.5t-86.5 13.5t-57.5 26q-33 44 6 96q20 25 45 35t53 0q21 -9 40.5 -42t44.5 -72t57 -60z" />
    <glyph glyph-name="plus" unicode="+" horiz-adv-x="1103" 
d="M551 551q19 59 43 160q9 40 29.5 129t29.5 129h111q-23 -82 -47 -183q-14 -48 -55 -231q25 -3 59 -3.5t89.5 0.5t80.5 1h78q53 0 80 2l-29 -113h-207q-20 0 -59 0.5t-68.5 0.5t-50.5 -1q-2 -8 -10 -35.5t-11 -41.5q-10 -33 -59 -242q-5 -22 -13 -54.5t-10 -41.5h-110
q3 9 11.5 38t12.5 41q14 49 27.5 107t28.5 128.5t22 100.5q-18 -2 -71 -2h-99h-116q-74 0 -101 2l29 113q159 -7 344 -4h41z" />
    <glyph glyph-name="comma" unicode="," horiz-adv-x="411" 
d="M-29 -231l29 -37q106 61 190 152t84 186q0 127 -127 127q-48 0 -79 -37t-31 -86q0 -32 16 -53t49 -21q23 0 39 14q11 12 26 6.5t9 -28.5q-12 -51 -59.5 -103t-145.5 -120z" />
    <glyph glyph-name="hyphen" unicode="-" horiz-adv-x="712" 
d="M633 434l31 125h-142h-45h-33h-34h-54h-43h-61q-25 0 -62 1t-43 1l-30 -127q20 0 85 1t107 1h119h119q17 0 44 -1t42 -1z" />
    <glyph glyph-name="period" unicode="." horiz-adv-x="489" 
d="M100 86q0 -43 30 -72.5t73 -29.5t72.5 29.5t29.5 72.5t-29.5 72.5t-72.5 29.5t-73 -29.5t-30 -72.5z" />
    <glyph glyph-name="slash" unicode="/" horiz-adv-x="866" 
d="M31 -115l1091 1522h-90l-1095 -1522h94z" />
    <glyph glyph-name="zero" unicode="0" 
d="M709 1235q170 0 170 -236q0 -80 -17 -197.5t-53 -251t-84 -248t-119 -190t-149 -75.5q-170 0 -170 268q0 76 18.5 190t56 243t87 240t118.5 184t142 73zM743 1296q-92 0 -178.5 -43t-154.5 -115.5t-124.5 -165.5t-94 -194t-58 -200.5t-20.5 -184.5q0 -88 18.5 -163
t55 -133.5t96.5 -92t137 -33.5q114 0 217 62t177 161t129.5 221t82.5 244t27 228q0 117 -33 208t-104.5 146t-172.5 55z" />
    <glyph glyph-name="one" unicode="1" 
d="M715 0l-281 4l-272 -4l18 57l193 2q19 80 58 232.5t90 350.5t73 286q11 44 59 268l-221 -31l4 49q46 7 117.5 24.5t163 41.5t110.5 29l21 -21q-27 -111 -102.5 -416.5t-106.5 -431.5q-35 -141 -90 -381l188 4z" />
    <glyph glyph-name="two" unicode="2" 
d="M932 401h-47q-66 -140 -123 -189.5t-133 -49.5h-109l-348 -4q51 31 307 227q180 124 237 168q252 198 296 389q10 44 10 88q0 121 -92.5 194.5t-235.5 73.5q-106 0 -211 -43.5t-179.5 -130.5t-74.5 -196q0 -51 29 -83t86 -32t95 36.5t38 102.5q0 38 -33 58
q-12 7 -30.5 10t-32.5 4.5t-25 5.5t-10.5 18t14.5 39q26 48 119.5 97t186.5 49q76 0 119.5 -52.5t43.5 -133.5q0 -75 -28 -152t-67 -137.5t-101.5 -127t-110.5 -109.5t-114 -97q-15 -12 -64.5 -51.5t-68.5 -55t-61.5 -50t-67.5 -55.5t-61 -52t-68 -60t-64 -59l2 -43
q123 10 219 10h221q219 0 402 -14q3 9 52.5 177t82.5 230z" />
    <glyph glyph-name="three" unicode="3" 
d="M664 717q117 -17 181 -86.5t64 -179.5q0 -103 -53 -194.5t-136.5 -153t-183.5 -97t-196 -35.5q-83 0 -145 18t-96 48.5t-50 64t-16 70.5q0 66 45 118t110 52q31 0 56.5 -27.5t25.5 -62.5q0 -33 -25 -52t-52 -26q-45 -6 -57 -18q-8 -7 -11 -19q-6 -26 14.5 -48.5t54 -35.5
t67 -20.5t58.5 -7.5q83 0 157.5 37.5t126 98t82 138.5t30.5 158q0 126 -86 174q-62 34 -178 16q-58 -11 -109 -37l-4 58q41 14 111 32q49 13 97 31.5t102 50t94.5 69t67 90.5t26.5 112q0 80 -60.5 132t-148.5 52q-45 0 -111.5 -22t-77.5 -58q-3 -15 4 -22t17.5 -10t20 -19
t9.5 -45q0 -38 -29.5 -64t-86.5 -26q-37 0 -58.5 19.5t-21.5 51.5q0 62 41 113t104 81t131 46t129 16q76 0 142.5 -22t112.5 -72t46 -119q0 -68 -29 -128.5t-78.5 -105.5t-106 -77.5t-121.5 -56.5z" />
    <glyph glyph-name="four" unicode="4" 
d="M854 885q-58 -208 -76 -316l219 2l-49 -141h-200l-91 -371l179 4l-11 -63h-182l-151 2l-166 -2l16 57l164 2l92 371h-145h-99q-155 0 -270 -8l-16 31q20 22 213 225q42 44 129 136t129 136q161 168 249 256q9 8 58 56t72 69l45 -26q-14 -55 -36.5 -140.5t-39.5 -151.5
t-33 -128zM252 559h205l174 4q3 12 12.5 45t15.5 56q36 144 56 239q23 101 49 199q-58 -58 -152 -160q-50 -52 -209 -223q-124 -128 -151 -160z" />
    <glyph glyph-name="five" unicode="5" 
d="M334 686q26 26 110.5 56t173.5 30q138 0 232 -84t94 -215q0 -39 -12 -80q-32 -130 -122 -228t-205 -146t-236 -48q-157 0 -232.5 61t-75.5 140q0 64 47 119t111 55q80 0 80 -72q0 -21 -16.5 -49.5t-34.5 -38.5q-14 -9 -37.5 -12.5t-38 -10.5t-18.5 -26q-6 -26 15 -48.5
t54.5 -35.5t67 -20.5t57.5 -7.5q144 0 247.5 99.5t139.5 248.5q15 59 15 104q0 99 -49.5 157t-139.5 58q-86 0 -168.5 -39t-116.5 -73l-45 14q66 128 122.5 308.5t56.5 336.5q34 18 94 30.5t121 12.5q82 0 187 -18.5t134 -18.5t40.5 12.5t17.5 34.5h45q-1 -8 -4.5 -22.5
t-4.5 -20.5q-12 -53 -60 -88.5t-95.5 -47t-91.5 -11.5q-49 0 -121.5 14t-98.5 14q-66 0 -114 -28q-14 -89 -48 -208t-77 -208z" />
    <glyph glyph-name="six" unicode="6" 
d="M383 694q72 75 145.5 106t163.5 31q127 0 206 -73.5t79 -204.5q0 -144 -70 -277.5t-196 -219t-273 -85.5q-79 0 -140 25.5t-97.5 70.5t-55 100.5t-18.5 119.5q0 189 77 368t205 315.5t296.5 232.5t349.5 130v-55q-255 -58 -415 -194.5t-257 -389.5zM637 778
q-69 0 -126.5 -39t-95 -100t-63.5 -137t-37.5 -147.5t-11.5 -133.5q0 -192 150 -192q78 0 144.5 59t107 146t63.5 178.5t23 165.5q0 200 -154 200z" />
    <glyph glyph-name="seven" unicode="7" 
d="M1163 1251q-161 -215 -188 -252l-246 -344q-18 -24 -64 -82.5t-71.5 -92.5t-52.5 -78.5t-35 -73.5q-10 -45 -10 -64q0 -28 7 -58t7 -52q0 -59 -44 -111.5t-104 -52.5t-82.5 36t-5.5 105q18 75 189 289q16 24 253 339t253 339q-102 4 -193 4q-21 0 -77 -1t-93 -1
q-58 0 -85 -1.5t-59.5 -6.5t-51 -18t-39 -33.5t-43.5 -55.5l-43 16q107 149 180 269l352 -6l330 6z" />
    <glyph glyph-name="eight" unicode="8" 
d="M428 -29q123 0 235 54.5t184.5 156.5t72.5 226q0 50 -17 92.5t-49 76t-61.5 57t-70.5 52.5q-3 1 -4 2t-3.5 2.5t-4 3t-3.5 2.5l59 29.5t61 31t54.5 31.5t53 37t42.5 41.5t36 51t20.5 60t8.5 73.5q0 118 -82 182.5t-206 64.5q-111 0 -211 -47t-165 -138.5t-65 -205.5
q0 -154 170 -268q-46 -22 -77.5 -37.5t-77.5 -42t-77 -50t-65.5 -57.5t-55 -67.5t-34.5 -77t-14 -90.5q0 -81 53 -138.5t129 -82.5t164 -25zM731 1249q74 0 114 -49.5t40 -112.5q0 -112 -61 -213t-162 -147q-197 142 -197 268q0 102 80 178t186 76zM754 295
q0 -115 -96.5 -192.5t-217.5 -77.5q-91 0 -141.5 41t-50.5 116q0 130 78.5 243t201.5 183q226 -152 226 -313z" />
    <glyph glyph-name="nine" unicode="9" 
d="M797 586q-97 -253 -257 -389.5t-415 -194.5l6 -51q188 37 356.5 132t293.5 230.5t198.5 312.5t73.5 367q0 64 -18.5 119.5t-55.5 100.5t-98 70.5t-140 25.5q-111 0 -212 -50.5t-172 -132t-112.5 -187t-41.5 -212.5q0 -132 78.5 -205t205.5 -73q87 0 160 31.5t150 105.5z
M543 502q-80 0 -117 54.5t-37 145.5q0 74 22.5 165.5t63 179t107.5 146t145 58.5q150 0 150 -192q0 -62 -11.5 -133.5t-37.5 -147.5t-63.5 -137t-95 -100t-126.5 -39z" />
    <glyph glyph-name="colon" unicode=":" horiz-adv-x="489" 
d="M100 86q0 -43 30 -72.5t73 -29.5t72.5 29.5t29.5 72.5t-29.5 72.5t-72.5 29.5t-73 -29.5t-30 -72.5zM236 639q0 -43 29.5 -72.5t72.5 -29.5t72.5 29.5t29.5 72.5t-29.5 72.5t-72.5 29.5t-72.5 -29.5t-29.5 -72.5z" />
    <glyph glyph-name="semicolon" unicode=";" horiz-adv-x="411" 
d="M-29 -231l29 -37q106 61 190 152t84 186q0 127 -127 127q-48 0 -79 -37t-31 -86q0 -32 16 -53t49 -21q23 0 39 14q11 12 26 6.5t9 -28.5q-12 -51 -59.5 -103t-145.5 -120zM174 639q0 -43 29.5 -72.5t72.5 -29.5t73 29.5t30 72.5t-30 72.5t-73 29.5t-72.5 -29.5
t-29.5 -72.5z" />
    <glyph glyph-name="semicolon" unicode="&#x37e;" horiz-adv-x="411" 
d="M-29 -231l29 -37q106 61 190 152t84 186q0 127 -127 127q-48 0 -79 -37t-31 -86q0 -32 16 -53t49 -21q23 0 39 14q11 12 26 6.5t9 -28.5q-12 -51 -59.5 -103t-145.5 -120zM174 639q0 -43 29.5 -72.5t72.5 -29.5t73 29.5t30 72.5t-30 72.5t-73 29.5t-72.5 -29.5
t-29.5 -72.5z" />
    <glyph glyph-name="less" unicode="&#x3c;" horiz-adv-x="1095" 
d="M150 674l-29 -115q311 -172 823 -477l31 127l-680 407l879 410l30 127q-205 -98 -534 -247.5t-520 -231.5z" />
    <glyph glyph-name="equal" unicode="=" horiz-adv-x="1191" 
d="M1198 741q-45 0 -211.5 1t-269.5 1h-275q-164 0 -225 -2l31 125q23 -2 92 -2q36 0 141 -1t172 -1h193q149 0 383 4zM1102 346q-46 0 -213.5 2t-272.5 2h-184q-151 0 -311 -4l31 123q78 -2 251 -2h271q98 0 254.5 1t204.5 1z" />
    <glyph glyph-name="greater" unicode="&#x3e;" horiz-adv-x="1095" 
d="M1079 559l29 115q-154 82 -410 231t-413 248l-31 -127l680 -410l-879 -407l-30 -127q506 243 1054 477z" />
    <glyph glyph-name="question" unicode="?" horiz-adv-x="751" 
d="M569 659q43 32 67 50.5t62.5 51.5t60.5 57t49.5 60t42 69t24.5 75t10 86q0 116 -75 187t-196 71q-80 0 -168.5 -41t-151.5 -114.5t-63 -155.5q0 -45 23 -79t65 -34q49 0 79 30.5t30 74.5q0 57 -41 65q-43 8 -43 37q0 22 21 51q40 54 98 81.5t117 25.5q77 0 123.5 -44.5
t46.5 -117.5q0 -36 -10.5 -67.5t-35 -64.5t-40.5 -50.5t-52 -53.5q-228 -228 -278 -434q-8 -36 -29 -166h47q1 15 10 49.5t13 51.5q35 131 194 249zM203 86q0 -43 29.5 -72.5t72.5 -29.5t73 29.5t30 72.5t-30 72.5t-73 29.5t-72.5 -29.5t-29.5 -72.5z" />
    <glyph glyph-name="at" unicode="@" horiz-adv-x="1673" 
d="M1092 123q97 0 191.5 48.5t167.5 128t130 177t87 200.5t30 193q0 142 -70.5 247.5t-192 159.5t-276.5 54q-189 0 -376.5 -82t-330.5 -215.5t-233 -316t-92 -371.5q-4 -256 170.5 -410.5t462.5 -154.5q358 0 645 278l-35 31q-144 -126 -289.5 -184t-306.5 -58
q-217 0 -350 133.5t-133 354.5q0 164 70 330t185.5 296.5t276 212.5t328.5 82q98 0 185 -27.5t153.5 -78.5t105.5 -130.5t39 -176.5q0 -90 -43.5 -205t-112 -217t-163.5 -172t-187 -70q-36 0 -59 17.5t-27.5 54.5t23.5 94q56 113 166.5 324.5t124.5 240.5h-109l-73 -143
l-5 -2q5 77 -32 121.5t-113 44.5q-75 0 -156 -42t-150 -111t-125 -151t-88 -170t-32 -161q2 -79 43.5 -125.5t130.5 -46.5q85 0 168.5 56.5t140.5 125.5q-13 -70 24.5 -127t111.5 -57zM1032 866q36 0 56 -19.5t22.5 -52t-2.5 -69.5t-18.5 -77t-25 -69t-22.5 -51
q-63 -120 -116 -182q-45 -61 -112.5 -109.5t-121.5 -48.5q-88 0 -88 91q0 64 42.5 165t104.5 194t140 160.5t141 67.5z" />
    <glyph glyph-name="A" unicode="A" horiz-adv-x="1214" 
d="M1096 0l18 61l-131 -2q-12 98 -39.5 400t-42.5 444q-21 222 -45 451h-68q-53 -101 -251 -465q-81 -146 -245 -438.5t-218 -391.5l-137 2l-17 -59h98h64h47h45q12 0 65.5 -1t100.5 -1l14 57l-180 2q11 22 100 183q14 26 37.5 71.5t41.5 80.5t32 59h352q3 -39 11 -115
t10 -98q11 -161 12 -181l-160 -2l-16 -57q63 0 132.5 1t82.5 1h55h54q13 0 70 -1t108 -1zM735 510h-321q20 37 67 120t74 132q24 43 52 95t56.5 105.5t38.5 71.5q1 -45 9 -134t10 -124q2 -39 4.5 -99.5t4.5 -102.5t5 -64z" />
    <glyph glyph-name="B" unicode="B" horiz-adv-x="1171" 
d="M489 0q-27 0 -107 1t-132 1q-44 0 -130 -1t-128 -1l14 57l170 2q63 274 141 603q123 488 152 608h-168l16 55q31 2 103 2q27 0 141 4q169 6 332 6q127 0 217 -65t90 -182q0 -88 -30.5 -157t-84.5 -112.5t-117.5 -70t-140.5 -39.5l-2 -9q42 -4 90 -24.5t93 -53.5
t74.5 -84.5t29.5 -109.5q0 -112 -50.5 -197t-139 -134.5t-197.5 -74t-236 -24.5zM1016 1065q0 57 -20 99t-54.5 65t-74 34t-85.5 11q-20 0 -98 -4h-29q-1 0 -16 -58q-10 -47 -53.5 -226t-61.5 -261h105q166 8 276.5 94.5t110.5 245.5zM905 412q0 97 -53 157t-137 80
q-55 13 -207 13q-86 -361 -146 -601q19 0 59.5 2.5t61.5 2.5q111 0 205.5 39t155.5 119.5t61 187.5z" />
    <glyph glyph-name="C" unicode="C" horiz-adv-x="1255" 
d="M1040 0h50q7 28 18.5 89.5t19.5 94.5q46 194 70 281h-49q-16 -56 -30 -94t-54 -99.5t-98 -111.5q-142 -125 -305 -125q-80 0 -138.5 30t-90.5 83t-47 117t-15 141q0 81 15.5 175.5t44.5 194.5t76 191.5t105.5 163.5t138.5 115.5t169 43.5t163 -38.5t105 -108.5
q38 -86 8 -242h49q27 117 37 162q13 52 38 145.5t32 122.5h-49q-17 -44 -29 -61.5t-29 -17.5t-45 22q-40 34 -114.5 57t-174.5 23q-132 0 -252.5 -52.5t-211 -141.5t-158 -203t-101.5 -242t-32 -252q0 -105 30 -193.5t87 -155.5t147 -105t203 -38q160 0 290 60q7 3 22 11.5
t23.5 13t22 10t21.5 6t17 -2t13.5 -10.5t7 -22.5t0.5 -36.5z" />
    <glyph glyph-name="D" unicode="D" horiz-adv-x="1327" 
d="M547 -2q-18 0 -146.5 4t-148.5 4q-57 0 -134 -3t-124 -3l14 55l172 4q63 255 203 811q42 189 96 400l-174 2l17 59q59 0 111 -2t77 -2h84q8 0 97 3t97 3q122 0 224.5 -29t181.5 -87t123.5 -153t44.5 -218q0 -201 -62 -363t-172 -267.5t-258.5 -161.5t-322.5 -56z
M1145 870q0 95 -27.5 169.5t-68.5 117.5t-95.5 70.5t-101.5 37t-94 9.5h-19q-3 0 -25.5 -2t-51.5 -2q-21 -87 -82.5 -323.5t-85.5 -340.5q-25 -98 -64 -274t-65 -273q12 -2 43 -2h49q19 0 44.5 1t30.5 1q108 0 206.5 50t171 133t126.5 188t81.5 218.5t27.5 221.5z" />
    <glyph glyph-name="E" unicode="E" horiz-adv-x="1171" 
d="M1130 395q-14 -44 -40 -125.5t-45 -145t-35 -128.5q-114 7 -233 8.5t-288 -0.5t-233 -2q-187 4 -266 -4l16 57l174 4q15 60 59 247.5t74 307.5q14 56 52.5 215t60.5 244q9 38 28 110t23 87l-176 2l14 59q94 -4 140 -4q94 0 141 2q127 1 229.5 0.5t229.5 1.5t233 8
q-16 -55 -29.5 -115.5t-29 -137.5t-23.5 -115h-51q11 147 -16 196q-31 58 -113.5 81.5t-224.5 21.5l-139 -2q-36 -137 -62.5 -252t-71.5 -291h64q67 0 110.5 12t74 44.5t48.5 71.5t41 110h49q-15 -50 -71 -263q-41 -158 -64 -280h-51q16 126 16 146q-1 63 -44 83
q-37 17 -119 17h-70l-43 -193l-102 -414h208q110 0 184.5 14t136.5 52t104 103t75 167h55z" />
    <glyph glyph-name="F" unicode="F" horiz-adv-x="1058" 
d="M1155 971h51l43 207q14 73 39 161q-55 -3 -356 -8q-59 -2 -174 -2h-172q-47 -2 -144 -2q-47 0 -141 4l-14 -55l190 -6q-4 -21 -16 -63.5t-17 -61.5q-20 -75 -54.5 -219t-45.5 -187q-54 -218 -164 -680l-190 -4l-15 -55q5 0 298 2t298 -2l15 63l-219 -4q24 98 73 316
q2 8 72 291h70q8 0 34 1t35.5 0t27 -4.5t28.5 -13t20 -24.5q12 -18 15.5 -45.5t1 -50t-8 -58t-6.5 -51.5h51q9 43 25 110t27 115t14 62q12 46 25 99t17.5 70t11.5 40t15 47h-49q-2 -7 -9.5 -29t-10.5 -31t-10.5 -28t-13.5 -30t-15.5 -26t-20.5 -26.5t-24 -22.5
q-26 -22 -58 -32.5t-51 -11.5t-61 -1h-64q28 106 49.5 198t26.5 109q2 9 58 236l139 2q142 2 224.5 -21.5t113.5 -81.5q20 -36 20 -86q0 -24 -4 -110z" />
    <glyph glyph-name="G" unicode="G" horiz-adv-x="1382" 
d="M1343 469l-131 4l-57 -240q-89 -124 -244 -193t-301 -69q-209 0 -336 133t-127 345q0 130 34.5 260t102.5 245.5t160.5 205t217 142t262.5 52.5q93 0 170 -23.5t116 -56.5q38 -34 56 -24.5t47 81.5h49q-29 -104 -82 -315q-7 -31 -17 -72t-14 -61h-49q13 62 17.5 90.5
t1.5 77.5t-21 90q-35 75 -110.5 111t-169.5 36q-83 0 -156.5 -34t-127.5 -92t-99 -135.5t-75 -162.5t-50.5 -175.5t-29.5 -172t-9 -154.5q0 -69 14 -126t44 -104t84 -73t128 -26q118 0 212.5 75t121.5 199l39 166l-172 4l18 68q29 -2 109 -2h143q38 0 123.5 -2.5t124.5 -1.5
z" />
    <glyph glyph-name="H" unicode="H" horiz-adv-x="1482" 
d="M1348 0q-279 6 -564 0l17 57l196 2q20 73 72 281q58 240 70 303q-317 -6 -633 0q-16 -74 -64 -266q-53 -206 -77 -318l194 7l-14 -62h-285q-93 0 -285 -4l15 55l190 4q0 1 26.5 108.5t45.5 180.5q38 149 98 391q5 18 127 531l-190 4l14 57q285 -6 569 0l-16 -65l-195 4
q-20 -77 -69 -281q-37 -144 -66 -276h301h332q10 42 35.5 140.5t32.5 125.5q36 150 67 291l-198 2l18 59q279 -6 561 0l-14 -63l-189 2q-10 -38 -26.5 -114t-22.5 -99q-14 -58 -44.5 -181t-45.5 -188q-16 -66 -75 -298t-82 -331l190 2z" />
    <glyph glyph-name="I" unicode="I" horiz-adv-x="673" 
d="M543 0l16 55l-197 4q65 268 78 318q48 192 66 266l153 627l193 -4l16 65q-287 -6 -567 0l-14 -57l188 -4q-26 -107 -72.5 -307t-52.5 -224q-60 -242 -98 -391q-19 -73 -45.5 -180.5t-26.5 -108.5l-188 4l-17 -63q1 4 284 2t284 -2z" />
    <glyph glyph-name="J" unicode="J" horiz-adv-x="903" 
d="M897 1270h195l14 61q-285 -6 -567 0l-17 -61h185q-8 -38 -43 -187.5t-43 -187.5q-16 -65 -46 -191t-45 -190q-5 -18 -36.5 -148.5t-53.5 -205.5q-3 -10 -13 -44.5t-15.5 -53.5t-18 -53t-23 -54.5t-27 -46.5t-33.5 -40.5t-39.5 -25t-47.5 -10.5q-16 0 -31.5 3.5t-29 15
t-8.5 30.5q2 6 30.5 52.5t28.5 82.5q0 37 -24.5 56.5t-67.5 19.5q-59 0 -97 -46.5t-38 -106.5q0 -71 55 -119.5t156 -48.5q81 0 147.5 25.5t113 66.5t83.5 104t60.5 128t43.5 147l160 653z" />
    <glyph glyph-name="K" unicode="K" horiz-adv-x="1366" 
d="M1266 0q-41 2 -142 2h-155q-56 0 -144.5 -1t-107.5 -1h-41l16 59h174l-360 594l-133 -594l184 4l-14 -63q-51 2 -174 2h-185q-127 0 -207 -2l19 57l184 2q20 78 70 292.5t80 336.5q16 65 64 252.5t71 284.5q8 19 12 45h-190l18 61q63 0 179 -1.5t212 -1.5t183 3l-15 -61
h-194l-156 -582q113 102 301 264q37 32 113 98t125 109q59 54 53.5 82.5t-62.5 28.5h-77l14 61q228 -6 231 -6q12 0 232 6l-14 -61h-25q-42 0 -72 -3t-83 -24t-97 -61l-483 -432l432 -691h178z" />
    <glyph glyph-name="L" unicode="L" horiz-adv-x="1171" 
d="M1137 406h-56q-32 -104 -74.5 -171t-105 -106t-139 -54.5t-187.5 -15.5h-206q17 65 30.5 131.5t30.5 131.5q122 482 145 589q5 21 41 154.5t52 204.5l198 4l17 57q-63 0 -178 -2t-209.5 -2t-178.5 4l-18 -55l178 -6q-9 -44 -40 -166t-48 -193q-16 -64 -36.5 -148
t-37.5 -149q-30 -120 -74 -307.5t-59 -247.5h-170l-20 -61q101 6 214 6.5t247 -1.5t213 -1q30 1 348 -4q11 48 59 211q13 40 35 106.5t29 90.5z" />
    <glyph glyph-name="M" unicode="M" horiz-adv-x="1597" 
d="M1460 0q-98 0 -183.5 2t-100.5 2q-12 0 -57.5 -1t-82.5 -1q-74 0 -125 -2l15 55l182 4l76 303q95 362 127 496q15 63 47 205t47 205q-572 -970 -737 -1268h-39q-4 64 -18 242.5t-21 298.5q-18 300 -25 430q-5 69 -13 173.5t-9 121.5q-45 -179 -154 -631
q-45 -186 -94 -381q-16 -69 -16 -102q0 -56 31 -74.5t96 -18.5h51l-15 -59q-100 0 -169 3t-99 3q-100 0 -209 -6l17 59h45q68 0 104 18t62 75q5 11 9.5 20.5t8 21t6 18.5t6 21t5 20.5t6 25t6.5 26.5q21 92 115 466.5t124 498.5l-192 2l18 59q30 -1 68.5 -2t59.5 -1.5
t36 -0.5h47q11 0 77 2t140 2q10 -275 21 -434q9 -119 45 -563q56 97 174.5 301t214 369.5t186.5 326.5q67 0 125.5 -2t69.5 -2h47q16 0 37.5 0.5t60.5 1.5t70 2l-17 -59l-180 -2q-6 -23 -19.5 -83.5t-21.5 -88.5q-24 -97 -68 -279t-65 -266q-19 -75 -56 -225.5t-67 -268.5
l189 7z" />
    <glyph glyph-name="N" unicode="N" horiz-adv-x="1404" 
d="M1606 1270h-50q-44 0 -71.5 -6t-53.5 -26t-44.5 -58.5t-34.5 -102.5q-222 -878 -265 -1077h-79q-21 51 -96 240.5t-126 316.5q-25 65 -68 186.5t-69 186.5q-15 37 -59.5 139t-59.5 141q-12 -44 -40 -165t-44 -181q-26 -107 -79 -319.5t-72 -290.5q-14 -60 -14 -102
q0 -56 29.5 -74.5t95.5 -18.5h53l-17 -59l-256 4l-221 -4l17 59h45q68 0 104 18t62 75q13 27 22.5 54.5t14.5 49.5l17.5 77t24.5 105q9 37 67 272.5t89 360.5q34 141 37 154q12 45 -45 45q-85 0 -144 2l17 59q164 -4 217 -4q59 0 203 4q29 -79 76.5 -206.5t70.5 -190.5
q16 -41 59.5 -157.5t69.5 -180.5q19 -50 58 -147t53 -134l184 762q16 69 16 101q0 57 -27.5 74.5t-94.5 17.5h-48l17 61l239 -6l236 6z" />
    <glyph glyph-name="O" unicode="O" horiz-adv-x="1335" 
d="M582 -31q-135 0 -234.5 69t-148.5 181t-49 250q0 149 61.5 306.5t163 285.5t246.5 210.5t299 82.5q135 0 234 -67t147.5 -177t48.5 -246q0 -119 -38.5 -246t-110.5 -242t-165.5 -206.5t-212 -146t-241.5 -54.5zM1139 967q0 152 -62.5 236.5t-193.5 84.5q-87 0 -164 -47.5
t-132.5 -126t-100 -176.5t-71.5 -203t-41 -200.5t-14 -174.5q0 -145 63 -233t195 -88q73 0 139.5 35t118 94.5t95 138t74 165t52.5 175.5t32 170.5t10 149.5z" />
    <glyph glyph-name="P" unicode="P" horiz-adv-x="1058" 
d="M627 602q-69 0 -127 21q-7 -32 -32 -129t-34 -138q-50 -216 -74 -297l183 4l-19 -63q-51 2 -168 2h-174q-116 0 -190 -2l12 55l172 4q28 98 84 332q65 254 119 473q46 179 96 406h-174l16 61q214 -3 234.5 -3t243.5 9q106 5 196.5 -23.5t150.5 -96t60 -162.5
q0 -108 -49 -196t-130.5 -143t-183.5 -84.5t-212 -29.5zM995 1024q0 111 -69 180.5t-181 69.5h-40q-12 0 -48 -4q-29 -113 -67 -266q-12 -57 -41.5 -179t-36.5 -153q52 -10 88 -10q170 0 282.5 105.5t112.5 256.5z" />
    <glyph glyph-name="Q" unicode="Q" horiz-adv-x="1335" 
d="M702 -16q-68 -189 -37.5 -271t166.5 -82q34 0 109 11l-14 -60q-61 -10 -135 -10q-190 0 -278 103.5t-48 308.5q-149 40 -231 169t-82 302q0 121 37.5 249t108 243t163 207t212.5 146t247 54q105 0 188.5 -40.5t135.5 -109t79 -154.5t27 -182q0 -138 -49.5 -282
t-134.5 -266t-207 -213t-257 -123zM1139 977q0 55 -15 108t-44.5 99.5t-80.5 75t-116 28.5q-76 0 -145 -36t-120.5 -97t-95 -141.5t-73 -168.5t-50 -179t-30 -171.5t-9.5 -148.5q0 -136 64.5 -221.5t193.5 -85.5q105 0 194.5 68.5t148 173.5t100 234t60 247t18.5 215z" />
    <glyph glyph-name="R" unicode="R" horiz-adv-x="1251" 
d="M1001 418q0 -25 -4.5 -55.5t-9.5 -52t-13.5 -56.5t-12.5 -53q-6 -35 -8.5 -72t16.5 -65.5t57 -28.5q12 0 41.5 13t46.5 26l25 -35q-58 -53 -152 -53q-117 0 -174.5 80.5t-32.5 201.5q4 19 15 68t16.5 85t5.5 73q0 63 -56 109t-171 46h-82q-7 -24 -21.5 -81t-21.5 -81
q-18 -67 -51.5 -207.5t-55.5 -220.5l197 2l-18 -61q-95 0 -178.5 2t-98.5 2q-12 0 -57 -1t-82 -1q-76 0 -129 -2l12 57l170 2q23 90 62 251t63 251q32 126 176 709l-174 2l14 59q45 0 135.5 -1t135.5 -1q30 1 85 2.5t100 2.5t85 1q86 0 162 -26.5t129 -86t53 -141.5
q0 -84 -37 -154.5t-99.5 -118t-133.5 -78.5t-148 -46v-10q61 -18 97.5 -35t66.5 -45t42.5 -70.5t12.5 -105.5zM997 1061q0 172 -151 205q-57 14 -189 2l-67 -271l-66 -280q13 0 46 -1t56.5 -0.5t45.5 3.5q136 12 230.5 109t94.5 233z" />
    <glyph glyph-name="S" unicode="S" horiz-adv-x="991" 
d="M1079 1341h-53q-25 -62 -49 -70t-55 21q-41 33 -107.5 49.5t-132.5 16.5q-175 0 -288 -115.5t-113 -284.5q0 -56 18.5 -106t43 -84.5t66 -69.5t71 -54t73.5 -44q78 -42 96 -53q79 -48 120.5 -99t41.5 -126q0 -107 -85 -197t-204 -90q-166 0 -250 123q-62 91 -18 288h-51
q-9 -37 -28 -103.5t-30 -109.5q-11 -42 -33 -122t-30 -113h51q8 20 17 33.5t16 21.5t17.5 10t16 3t17.5 -5t15.5 -8t17 -11.5t14.5 -10.5q40 -26 102 -43t126 -17q97 0 179.5 29.5t139 77t96 108.5t58 124t18.5 124q0 59 -18 110.5t-44.5 88.5t-69 72.5t-78 58t-85.5 49.5
l-104 55q-37 21 -60.5 36.5t-53.5 40t-45 53t-15 59.5q0 103 72.5 168t176.5 65q89 0 155.5 -38t92.5 -95q45 -98 11 -223h53q8 27 18 72.5t17 72.5q14 53 40 143.5t33 118.5z" />
    <glyph glyph-name="T" unicode="T" horiz-adv-x="1214" 
d="M1341 905h-49l15 70q10 45 11.5 78.5t-7 70.5t-39 65.5t-82.5 47.5q-34 12 -75 17.5t-71 6.5t-92 1l-297 -1203h219l-14 -59q-316 6 -639 0l15 59h221l295 1203q-63 0 -94.5 -1t-76 -6.5t-83.5 -17.5q-60 -19 -104.5 -47.5t-71.5 -65t-42.5 -70.5t-27.5 -79l-19 -70h-49
l70 252q2 6 6.5 22t5.5 20l4 16t4 15.5t3.5 13t3 14.5t2.5 14.5t3 17.5t2 18t3 23q15 0 155 -2t246 -2h189q61 0 173.5 1t159.5 1q57 0 134 1t94 1q-32 -97 -47 -174z" />
    <glyph glyph-name="U" unicode="U" horiz-adv-x="1404" 
d="M1614 1270h-78q-44 0 -71.5 -6t-54 -25.5t-45 -58.5t-34.5 -103q-8 -35 -28.5 -129.5t-38.5 -171.5t-33 -125q-15 -50 -38 -137t-32 -117q-20 -69 -42.5 -123t-63 -113.5t-92 -98.5t-130 -65t-176.5 -26q-192 0 -297.5 78.5t-105.5 239.5q0 145 74 430l135 551l-176 4
l16 61q220 -6 248 -6h67q16 0 99 1t157 1l-20 -65l-201 4q-60 -225 -153 -629q-3 -11 -19.5 -75.5t-24 -98t-16 -88t-8.5 -96.5q0 -101 62 -174.5t176 -73.5q66 0 121.5 14.5t109.5 49t98 98.5t74 155q47 156 82 291q13 47 36 141.5t30 122.5q36 154 39 170q13 51 15.5 85.5
t-2.5 56t-22 32.5t-38 15t-56 4h-47l16 61l232 -6l272 6z" />
    <glyph glyph-name="V" unicode="V" horiz-adv-x="1290" 
d="M1477 1270h32l15 61l-224 -6l-235 6l-14 -61h57q79 0 94.5 -22t-20.5 -89q-54 -99 -221.5 -411t-245.5 -453q-8 68 -22.5 183t-20.5 163q-25 210 -47 453q-15 138 -15 176l181 6l14 55q-136 -4 -543 0l-16 -61h147q9 -47 22.5 -145.5t16.5 -120.5q3 -26 21 -156t26 -201
q58 -483 76 -665h61q352 647 648 1175q37 63 95.5 88t117.5 25z" />
    <glyph glyph-name="W" unicode="W" horiz-adv-x="1779" 
d="M1962 1270h33l14 61l-180 -6l-238 6l-14 -61h37q62 0 74 -25.5t-21 -85.5q-218 -416 -467 -864q-24 209 -43 346q-4 40 -15 130.5t-16 139.5q130 233 138 246q23 41 43 65t41 34t34.5 12t38.5 2h47l15 61q-58 0 -176 -2t-179 -2q-53 -1 -325 4l-15 -61h91
q19 -92 42.5 -284.5t32.5 -252.5q-84 -155 -239 -438q-8 68 -22.5 183t-20.5 163q-25 210 -47 453q-15 138 -15 176h119l16 61q-121 -4 -485 0l-12 -57l145 -4q9 -47 22.5 -145.5t16.5 -120.5q3 -26 21 -156t26 -201q58 -483 76 -665h61q63 114 179.5 328.5t171.5 314.5
q38 -311 73 -643h62q389 714 647 1175q37 63 96.5 88t116.5 25zM1190 1174l-76 -142q0 16 -4 62q-11 102 -14 176h73q41 0 45.5 -21t-24.5 -75z" />
    <glyph glyph-name="X" unicode="X" horiz-adv-x="1251" 
d="M1139 0l14 57l-149 2q-46 124 -62 174q-39 116 -151 500q154 190 364 424q54 63 101.5 88t113.5 25h60l16 61l-248 -4l-207 4l-14 -61h24q172 0 78 -111q-157 -185 -217 -253.5t-90 -104.5q-6 18 -22.5 71.5t-28.5 90.5q-19 59 -51.5 173t-38.5 134l184 -2l16 63
q-63 0 -175.5 -1.5t-206 -1.5t-181.5 3l-12 -55l166 -6q19 -62 60 -193t61 -194q15 -49 39.5 -135.5t35.5 -124.5q-96 -125 -387 -449q-54 -64 -107 -89.5t-122 -25.5h-47l-14 -59l245 4l207 -4l15 61h-23q-54 0 -83 11t-29.5 36t34.5 64q159 187 231.5 269.5t100.5 115.5
l111 -369l36 -129l-184 2l-16 -61q121 6 233 6q31 0 115.5 -3t204.5 -3z" />
    <glyph glyph-name="Y" unicode="Y" horiz-adv-x="1251" 
d="M1470 1270h-45q-69 0 -116 -22.5t-101 -90.5l-424 -516q-29 -104 -92 -367q-40 -156 -49 -215l217 2l-14 -61q-148 0 -247 3t-130 3q-119 0 -248 -6l15 55l219 4q3 13 33 123t49 189q14 53 59 260q-14 46 -50.5 172.5t-56.5 195.5q-10 32 -28 92t-32 103.5t-28 75.5
l-159 4l14 61q261 -6 295 -6h59q14 0 79 1t122 1l-18 -57l-175 -4q4 -15 36 -138.5t51 -187.5q11 -34 26.5 -84t26 -83t20.5 -58l348 440q25 31 32.5 55t-8 40t-58.5 16h-54l15 61l237 -6l197 6z" />
    <glyph glyph-name="Z" unicode="Z" horiz-adv-x="1171" 
d="M1092 395q-28 -94 -62 -196q-27 -94 -45 -199q-67 0 -229.5 2t-251.5 2q-312 0 -486 -12l-12 20q57 71 216.5 266t242.5 297q404 501 563 693h-188h-72q-162 0 -233 -31q-53 -24 -88.5 -68.5t-79.5 -134.5q-4 -13 -7.5 -20t-9.5 -16.5t-12 -22.5h-55q65 183 116 356
q35 -2 105 -2h102q192 -4 285 -4l381 4l10 -18q-149 -177 -580 -711q-40 -50 -150.5 -186t-174.5 -216.5t-105 -136.5h162h72h84q91 0 162 9q89 12 141 55t100 151q10 22 17 39t14.5 40.5t13.5 39.5h54z" />
    <glyph glyph-name="bracketleft" unicode="[" horiz-adv-x="712" 
d="M645 1290h252l14 58h-415q-10 -37 -32.5 -131t-35.5 -140q-22 -91 -65 -275.5t-75.5 -318.5t-64.5 -256q-94 -383 -168 -667q21 0 90.5 -1t110.5 -1h115h100l14 59h-252q21 89 62 243.5t59 227.5q43 173 129 531t103 428q8 36 29.5 121.5t29.5 121.5z" />
    <glyph glyph-name="backslash" unicode="\" horiz-adv-x="866" 
d="M657 -115h95l-353 1522h-90z" />
    <glyph glyph-name="bracketright" unicode="]" horiz-adv-x="712" 
d="M369 -440q-21 0 -90 -1t-113 -1h-115h-98l14 59h252q23 91 58 247.5t51 223.5q42 171 128.5 517.5t110.5 441.5q22 99 58 243h-252l14 58h416q-11 -41 -31.5 -134t-32.5 -137q-173 -686 -213 -850q-20 -81 -157 -667z" />
    <glyph glyph-name="asciicircum" unicode="^" horiz-adv-x="1366" 
d="M442 842l443 364l256 -364h80l-246 489h-141l-482 -489h90z" />
    <glyph glyph-name="underscore" unicode="_" horiz-adv-x="1003" 
d="M862 -246l21 82q-312 -4 -504 -4q-188 0 -500 4l-20 -82q76 2 254 2h280q103 0 263.5 -1t205.5 -1z" />
    <glyph glyph-name="grave" unicode="`" horiz-adv-x="903" 
d="M440 1167l219 -223l33 25l-151 252q-21 32 -30 44.5t-24 27.5t-30 20q-25 11 -47.5 -1t-26.5 -38q-8 -39 57 -107z" />
    <glyph glyph-name="a" unicode="a" horiz-adv-x="1032" 
d="M772 -25q-68 0 -108 30.5t-35 78.5q-115 -109 -242 -109q-79 0 -141 36t-94.5 94.5t-45 134t8.5 153.5q18 80 62.5 158.5t105 140.5t139 100.5t158.5 38.5q125 0 188 -81l12 51q8 -3 19 -3.5t28 0.5t25 1q23 0 52.5 1t33.5 1l-43 -172q-12 -48 -33 -142.5t-33 -142.5
q-8 -37 -20.5 -97.5t-17.5 -84.5q-26 -117 40 -117t152 150q3 5 11.5 21.5t11.5 21.5l38 -19q-3 -4 -9 -19.5t-9 -19.5q-55 -104 -116 -154.5t-138 -50.5zM674 348l47 199q22 96 -16.5 159.5t-108.5 63.5q-53 0 -101 -27t-79.5 -65.5t-58.5 -91t-41 -92.5t-25 -80
q-36 -184 -15 -272q26 -107 125 -107q98 0 163 65.5t85 151.5q3 12 12.5 45t12.5 51z" />
    <glyph glyph-name="b" unicode="b" horiz-adv-x="874" 
d="M379 -27q97 0 188.5 51t154 130t100.5 174.5t38 183.5q0 139 -68.5 229t-205.5 90q-124 0 -228 -104q21 94 101 412q10 37 20.5 79t20.5 85t14 61l-10 6q-51 -18 -72.5 -24.5t-82.5 -17t-134 -13.5l-10 -45q29 0 53 -1l25 -1h18h27q-8 -55 -33 -146q-7 -28 -48.5 -206
t-64.5 -271q-31 -142 -45 -194q-6 -27 -14 -63.5t-12 -55.5q-10 -39 -13 -107q-3 -64 23 -127q56 -125 258 -125zM688 573q0 -97 -41 -223.5t-114.5 -224.5t-151.5 -98q-44 0 -73.5 14t-42 42.5t-18.5 53.5t-1 67.5t9 63t13 59.5q1 3 1.5 5t0.5 4l43 196q16 82 82 155
t140 73q83 0 118 -54t35 -133z" />
    <glyph glyph-name="c" unicode="c" horiz-adv-x="784" 
d="M729 176q-164 -203 -356 -203q-129 0 -212 87.5t-83 222.5q0 134 69.5 259.5t189.5 205t255 79.5q52 0 101 -17.5t84.5 -56t35.5 -89.5q0 -55 -25.5 -87t-72.5 -32q-34 0 -56 18.5t-22 44.5q0 43 27 70q20 25 20 35q0 30 -33.5 45.5t-66.5 15.5q-86 0 -154.5 -58.5
t-106.5 -148.5t-57.5 -181.5t-19.5 -172.5q0 -82 43 -130t131 -48q71 0 133.5 42t148.5 128z" />
    <glyph glyph-name="d" unicode="d" horiz-adv-x="1046" 
d="M1061 1364q-8 -27 -26.5 -104t-30.5 -121q-12 -41 -96 -396t-97 -399q-43 -177 -43 -240q0 -59 47 -59q49 0 103.5 74t97.5 176l41 -14q-70 -162 -138.5 -235t-170.5 -73q-74 0 -108 41t-32 101q-61 -81 -127 -110.5t-143 -29.5q-79 0 -136 36t-83.5 94.5t-34 134
t13.5 153.5q18 80 62.5 158.5t105 140.5t139 100.5t158.5 38.5q124 0 187 -81q7 29 19 79t19 78q4 19 24 97.5t28 117.5q19 69 34 146h-34h-27q-32 0 -63 2l12 45q72 3 132 13t87 18t70 24zM707 545q21 85 -15 154t-112 69q-53 0 -100 -24t-79 -60.5t-58.5 -86.5t-42 -94
t-26.5 -91q-7 -31 -12.5 -62.5t-11 -77.5t-2 -85t13 -74t35 -55.5t63.5 -20.5q226 0 324 409z" />
    <glyph glyph-name="e" unicode="e" horiz-adv-x="792" 
d="M432 35q80 0 150.5 50.5t119.5 127.5l35 -23q-58 -93 -151 -156t-193 -63q-143 0 -227 89t-84 231q0 130 67 253.5t184.5 203t250.5 79.5q85 0 140.5 -47.5t55.5 -120.5q0 -51 -27.5 -96.5t-84.5 -84.5t-159.5 -62t-238.5 -23q-18 -60 -18 -135q0 -101 42.5 -162
t137.5 -61zM283 446q168 0 260 72.5t92 167.5q0 37 -25.5 61.5t-62.5 24.5q-36 0 -67.5 -13t-54 -30.5t-44 -49.5t-34.5 -55.5t-27.5 -63.5t-20.5 -59t-16 -55z" />
    <glyph glyph-name="f" unicode="f" horiz-adv-x="536" 
d="M870 1229q0 64 -47.5 99.5t-109.5 35.5q-135 0 -248 -141q-57 -74 -102.5 -172t-63 -155t-25.5 -95l-129 2l-12 -55h127q-7 -30 -18.5 -79t-28 -121t-25.5 -112q-38 -197 -69 -323q-34 -139 -92 -361q-25 -86 -72 -139t-115 -53q-45 0 -45 22l11 22q12 23 12 29
q0 39 -23 61.5t-47 22.5q-42 0 -66 -27t-24 -65q0 -56 50 -86.5t106 -30.5q85 0 159.5 51.5t125 129t87.5 178.5q67 188 133 463q96 398 101 418h172l8 55h-168q6 23 12.5 45.5t12 42.5t12.5 51q19 64 34.5 110t37.5 99.5t42.5 87t47 56t53.5 22.5q49 0 49 -25
q0 -10 -11 -31t-11 -40q0 -31 23.5 -50.5t56.5 -19.5t56 22t23 56z" />
    <glyph glyph-name="g" unicode="g" horiz-adv-x="931" 
d="M934 688q-30 0 -39 27q-1 5 -2.5 14.5t-2.5 14t-4 10.5t-8.5 5t-15.5 -3q-17 -6 -33 -30t-22 -54q-7 -16 -10 -37q-3 -14 -5.5 -40.5t-5.5 -41.5q-28 -128 -135 -209.5t-231 -81.5q-93 0 -146 35q-37 -22 -66.5 -54t-29.5 -65q0 -24 25.5 -35.5t58.5 -11.5h33q63 0 181 6
t175 6q72 0 115 -32.5t43 -100.5q0 -140 -75 -259t-197.5 -187t-260.5 -68q-55 0 -111.5 13t-109 37.5t-85.5 68.5t-33 100q0 53 23 99t63.5 81t83 60t92.5 45q-136 11 -136 92q0 71 54.5 134t124.5 96q-26 19 -45 60t-19 93q0 91 56 174t143.5 131.5t177.5 48.5
q169 0 219 -153q25 88 84 137q39 31 82 31q35 0 55.5 -19.5t20.5 -54.5q0 -33 -23.5 -57.5t-58.5 -24.5zM543 778q-57 0 -102.5 -35t-70.5 -89.5t-38 -112t-13 -111.5q0 -58 26 -93.5t83 -35.5q55 0 99.5 36.5t70.5 91.5t39.5 112.5t13.5 107.5q0 129 -108 129zM514 2
q-39 0 -107.5 -2t-100.5 -2.5t-77 2.5q-139 -125 -139 -264q0 -85 60 -132.5t155 -47.5q64 0 138.5 27.5t139 72.5t107.5 110t43 132q0 29 -15 50t-35 31t-54 15.5t-56.5 6.5t-58.5 1z" />
    <glyph glyph-name="h" unicode="h" horiz-adv-x="1054" 
d="M1075 281q-64 -158 -134.5 -231t-180.5 -73q-52 0 -84 21t-41 56t-7 71t13 74q5 20 16.5 70.5t18.5 78.5q6 26 27.5 100t31.5 113q8 29 11 57.5t1 62t-21.5 54.5t-55.5 21q-99 0 -195.5 -127.5t-134.5 -292.5q-3 -11 -8 -32t-13.5 -52.5t-13.5 -52.5q-3 -14 -14.5 -65.5
t-16.5 -76.5q-3 -10 -6 -28.5t-6 -28.5h-156q9 35 30 120t34 132q10 42 33.5 148t38.5 165q68 266 106 426q28 110 60 277h-27h-16l-25 1q-24 1 -53 1l10 45q33 1 61 3.5t53.5 6.5t40.5 6.5t38.5 9.5t29.5 9t31 10.5t27 9.5l10 -6q-83 -307 -113 -440q-28 -118 -59 -279
l4 -2q48 80 137 134t162 54q86 0 133.5 -37.5t48.5 -131.5q2 -30 -8 -84q-9 -41 -31 -124t-28 -110q-36 -150 -41 -182q-26 -117 41 -117q50 0 107 77t93 173z" />
    <glyph glyph-name="i" unicode="i" horiz-adv-x="561" 
d="M543 1192q0 41 -29 69.5t-70 28.5t-69.5 -28.5t-28.5 -69.5t28.5 -69.5t69.5 -28.5t70 28.5t29 69.5zM575 281l-40 14q-43 -102 -97.5 -176t-103.5 -74q-65 0 -39 117q16 92 37 182q20 91 67 262q13 45 31.5 123t24.5 102l-11 7q-3 -1 -21.5 -7.5t-23.5 -8t-23 -7.5
t-27.5 -8t-28.5 -6.5t-34.5 -6.5t-36.5 -5t-44 -4.5t-49 -2.5l-13 -45q25 -2 54 -2h26h19h26q-4 -19 -15.5 -68.5t-16.5 -76.5q-10 -46 -31.5 -129.5t-28.5 -112.5q-7 -28 -18.5 -78.5t-16.5 -70.5q-11 -38 -13 -74t7 -71t41 -56t84 -21q108 0 177 71.5t138 232.5z" />
    <glyph glyph-name="j" unicode="j" horiz-adv-x="495" 
d="M543 1192q0 41 -29 69.5t-70 28.5t-69.5 -28.5t-28.5 -69.5t28.5 -69.5t69.5 -28.5t70 28.5t29 69.5zM455 831l-9 7q-3 -1 -24 -8.5t-26.5 -9.5t-26.5 -8t-32 -8.5t-33.5 -7t-42 -6.5t-46 -4.5t-55.5 -3.5l-10 -45q25 -2 53 -2h26h19h26q-58 -301 -200 -868
q-44 -168 -82 -234q-43 -75 -92 -75q-11 0 -18 8t-7 16q0 6 5 21t5 28q0 40 -23 61t-61 21q-35 0 -56 -24t-21 -60q0 -59 44.5 -90t104.5 -31q54 0 103 23t86.5 63t69.5 88.5t55.5 104.5t39.5 105.5t27 97.5q18 74 90.5 372t110.5 469z" />
    <glyph glyph-name="k" unicode="k" horiz-adv-x="923" 
d="M645 627q-61 -109 -145 -140q7 -1 20.5 -4t20.5 -4q149 -45 149 -157q0 -37 -15.5 -106t-15.5 -101q0 -58 48 -58q26 0 64.5 50.5t64 100t41.5 87.5l43 -14q-122 -304 -295 -304q-62 0 -100 33t-38 94q0 28 26 115.5t26 128.5q0 37 -19 61t-54.5 33.5t-62 12t-65.5 2.5
l-10 -43q-16 -68 -51.5 -216t-45.5 -198h-153q10 33 23 87.5t38 164t47 203.5l54 225q17 62 59.5 237.5t46.5 204.5q21 75 31 146h-35h-27q-30 0 -61 2l10 45q46 2 83 5.5t70 11t48 11.5t47.5 15t36.5 12l10 -6q-4 -18 -14 -61t-20.5 -85t-20.5 -79q-41 -138 -103 -412
l-51 -215q133 -3 187 61q19 21 35 46.5t36 64t27 51.5q62 105 166 105q48 0 78 -27.5t30 -85.5q0 -46 -26 -72t-64 -26q-74 0 -74 55q0 17 5.5 30t7.5 25q3 23 -21 23q-23 0 -39 -31q-10 -20 -31 -61t-22 -43z" />
    <glyph glyph-name="l" unicode="l" horiz-adv-x="606" 
d="M580 1364l-11 6q-52 -18 -72.5 -24.5t-81.5 -17t-134 -13.5l-11 -45q29 0 54 -1l24 -1h19h26q-8 -55 -33 -146q-9 -45 -93 -393.5t-91 -380.5q-7 -28 -18.5 -78.5t-16.5 -70.5q-11 -38 -13 -74t7 -71t41 -56t84 -21q108 0 177 71.5t138 232.5l-40 14q-43 -102 -97.5 -176
t-103.5 -74q-65 0 -39 117q16 92 37 182q12 62 92.5 394.5t99.5 400.5q7 26 56 225z" />
    <glyph glyph-name="m" unicode="m" horiz-adv-x="1509" 
d="M1530 281l-39 14q-43 -102 -97.5 -176t-103.5 -74q-67 0 -41 117q5 32 41 182q6 28 28.5 110.5t31.5 123.5q10 54 8 84q-1 94 -48.5 131.5t-133.5 37.5q-74 0 -157 -53t-132 -135l-6 -6v25q-1 93 -51 131t-136 38q-72 0 -152.5 -53.5t-129.5 -134.5l-4 2q30 134 43 186
l-11 7q-3 -1 -31.5 -11.5t-36.5 -12.5t-36.5 -10t-49 -10.5t-54.5 -6.5t-72 -5l-13 -45q25 -2 54 -2h26h17h26q-19 -104 -37 -170q-12 -49 -35 -153.5t-36 -159.5q-13 -47 -34 -132t-30 -120h156q3 10 6 28.5t6 28.5q5 25 16.5 76.5t14.5 65.5q5 21 13.5 52.5t13.5 52.5
t8 32q38 165 131 294.5t182 129.5q23 0 39.5 -6t26 -14t14.5 -23.5t6.5 -27t-1.5 -32.5t-5 -32t-7.5 -34t-6.5 -30q-10 -39 -32 -113t-28 -100q-9 -31 -44 -183t-38 -165h162q65 279 76 336q25 111 73 206t113.5 154.5t132.5 59.5q33 0 51.5 -19t22 -51t1.5 -62t-9 -63
q-10 -39 -31.5 -113t-27.5 -100q-7 -28 -18.5 -78.5t-16.5 -70.5q-11 -38 -13 -74t7 -71t41 -56t84 -21q108 0 176 71t137 233z" />
    <glyph glyph-name="n" unicode="n" horiz-adv-x="1052" 
d="M1075 281q-64 -158 -134.5 -231t-180.5 -73q-52 0 -84 21t-41 56t-7 71t13 74q5 20 16.5 70.5t18.5 78.5q6 26 27.5 100t31.5 113q8 29 11 57.5t1 62t-21.5 54.5t-55.5 21q-67 0 -136.5 -66.5t-119 -160.5t-74.5 -193q-3 -11 -8 -32t-13.5 -52.5t-13.5 -52.5
q-3 -14 -14.5 -65.5t-16.5 -76.5q-3 -10 -6 -28.5t-6 -28.5h-156q9 35 30 120t34 132q13 54 35.5 158.5t34.5 154.5q24 87 39 170h-27h-16h-27q-28 0 -53 2l12 45q38 1 72.5 5t54.5 6.5t49.5 10.5t36 10t37 13t31.5 11l10 -7q-13 -52 -43 -186l4 -2q48 80 137 134t162 54
q86 0 133.5 -37.5t48.5 -131.5q2 -30 -8 -84q-9 -41 -31 -124t-28 -110q-36 -150 -41 -182q-26 -117 41 -117q50 0 107 77t93 173z" />
    <glyph glyph-name="o" unicode="o" horiz-adv-x="921" 
d="M877 506q0 137 -80 231t-219 94q-98 0 -190 -48t-158.5 -125.5t-107 -178.5t-40.5 -203q0 -55 18.5 -106.5t55 -96.5t100.5 -72.5t145 -27.5q91 0 180 50.5t153 127.5t103.5 172t39.5 183zM709 606q0 -60 -10.5 -132t-35.5 -151.5t-60.5 -143.5t-90 -106t-119.5 -42
q-67 0 -110 50.5t-43 121.5q0 57 12 129t39 150.5t63.5 143.5t91.5 107.5t117 42.5q146 0 146 -170z" />
    <glyph glyph-name="p" unicode="p" horiz-adv-x="970" 
d="M911 406q-18 -80 -62.5 -158t-105 -140t-139 -100.5t-158.5 -38.5q-125 0 -188 80q-7 -29 -19.5 -79.5t-19.5 -78.5q-6 -23 -24 -102q-27 -95 -48 -217l127 2l-16 -55q-88 0 -156.5 4t-95.5 4q-56 0 -168 -8l12 51l134 2q19 84 49 192q100 441 164 691q5 28 30.5 135
t30.5 131h-27h-16l-25 1q-26 1 -55 1l12 47q33 1 61 3t53.5 6.5t40.5 6.5t38 8.5t29.5 8.5t31 10.5t27.5 9.5l10 -6q-22 -87 -41 -172l4 -2q47 79 124.5 129.5t152.5 50.5q74 0 129.5 -36.5t82 -95.5t34.5 -133.5t-13 -151.5zM735 387q7 30 12.5 62t10.5 78t1.5 85t-13.5 74
t-35.5 55.5t-63.5 20.5q-63 0 -130.5 -64.5t-116.5 -157.5t-74 -190l-23 -98q-18 -87 16 -154t109 -67q54 0 101.5 24t79.5 60.5t58.5 86.5t41.5 94t26 91z" />
    <glyph glyph-name="q" unicode="q" horiz-adv-x="970" 
d="M651 -428l133 2l-16 -55q-47 0 -98.5 1t-61.5 1h-45h-45q-11 0 -65.5 -1t-102.5 -1l12 51l125 2q6 24 26 97.5t34 129.5l61 275q-58 -56 -124 -78.5t-115 -22.5q-79 0 -138 36t-87.5 95.5t-37 135t12.5 153.5q25 109 90 207.5t165 164.5t210 66q123 0 186 -81q6 20 14 51
q1 -5 32.5 -1.5t37.5 3.5q23 0 53.5 -1t34.5 -1q-12 -51 -33.5 -142t-36.5 -151.5t-26 -99.5q-3 -17 -8.5 -38t-6.5 -26q-1 -6 -6 -26t-8 -35q-15 -76 -58.5 -257.5t-45.5 -197.5q-11 -52 -34 -144zM676 348l49 199q26 98 -11 161.5t-114 63.5q-54 0 -100.5 -24.5
t-78.5 -61.5t-58.5 -87.5t-41.5 -94t-26 -90.5q-7 -34 -11.5 -55.5t-10 -65t-5.5 -74t6 -68t21 -60.5t43 -39.5t68 -16.5q52 0 98.5 29t79.5 77t56 100t36 107z" />
    <glyph glyph-name="r" unicode="r" horiz-adv-x="686" 
d="M799 733q0 43 -38.5 73t-103.5 30q-63 0 -132 -49.5t-109 -112.5q7 23 18.5 70.5t18.5 72.5l-11 6q-4 -1 -27.5 -9.5t-31 -10.5t-29 -8.5t-37.5 -9t-41 -6.5t-53 -6t-61 -3l-12 -47q29 0 54 -1l25 -1h17h26q-6 -26 -28.5 -121t-28.5 -121q-40 -169 -84 -354
q-18 -69 -31 -125h166l66 293q9 58 35.5 160t48.5 149q23 50 83 107t103 57q27 0 27 -21q0 -1 -5.5 -18.5t-5.5 -40.5q0 -33 18.5 -54.5t59.5 -21.5q48 0 75.5 35t27.5 88z" />
    <glyph glyph-name="s" unicode="s" horiz-adv-x="714" 
d="M569 616q33 0 59.5 22t26.5 58q0 35 -15 60.5t-36.5 39.5t-51.5 22.5t-53.5 10.5t-49.5 2q-100 0 -178 -64t-78 -173q0 -95 122 -225q6 -6 30 -29.5t32.5 -32.5t26.5 -30.5t25 -35.5t13.5 -35t6.5 -42q0 -54 -41 -96.5t-134 -42.5q-33 0 -68.5 11.5t-35.5 33.5q2 2 2 4
t4 10q2 4 8 14t8.5 15t6.5 13.5t5.5 16.5t2.5 17q4 35 -19 58.5t-57 23.5q-40 0 -64 -30.5t-24 -70.5q0 -20 10.5 -44.5t35 -53t76.5 -47.5t124 -19q63 0 119.5 14t104.5 43t76.5 80t28.5 119q0 35 -13 70t-40 71.5t-47.5 60.5t-59 62.5t-50.5 51.5q-36 40 -53 67t-17 56
q0 54 31 82t82 28q72 0 69 -39l-4 -12q-12 -32 -12 -47q-2 -31 14.5 -49.5t50.5 -18.5z" />
    <glyph glyph-name="t" unicode="t" horiz-adv-x="567" 
d="M547 281l-41 14q-43 -102 -97.5 -176t-103.5 -74q-65 0 -39 117q10 62 39 182q13 75 96 404q71 -3 129 -3h84l19 58h-58h-38h-45h-76q26 106 28 115q4 16 16.5 75t20.5 86q-83 -44 -166 -41q-1 -7 -8 -41.5t-12 -52.5q-31 -115 -37 -143l-137 -2l-10 -51h135
q-72 -273 -96 -400q-27 -112 -37 -149q-11 -38 -13 -74t6.5 -71t40.5 -56t84 -21q109 0 178 71.5t138 232.5z" />
    <glyph glyph-name="u" unicode="u" horiz-adv-x="1013" 
d="M1020 197q-66 -119 -123.5 -172.5t-144.5 -53.5q-157 0 -142 191l-2 2q-48 -80 -137.5 -135.5t-163.5 -55.5q-86 0 -134.5 38t-49.5 132q0 43 8 84q9 42 29.5 125.5t25.5 108.5t36 133t36 133h-35h-26q-31 0 -62 2l12 47q33 1 61 3t53.5 6.5t40.5 6.5t38 8.5t29.5 8.5
t31 10.5t27.5 9.5l10 -6q-7 -23 -18.5 -71t-18.5 -72q-9 -30 -33 -119t-28 -104q-1 -3 -19 -86t-32 -127q-8 -29 -11 -57t-1 -62t22 -55t57 -21q66 0 136.5 66t121 161.5t72.5 192.5q3 11 8 32t13.5 52.5t13.5 52.5q12 41 31 142q3 10 6 26.5t6 26.5h154q-15 -50 -33.5 -131
t-28.5 -117q-13 -55 -34.5 -159t-30.5 -144q-4 -18 -10 -47.5t-9 -40.5q-3 -14 -4.5 -30.5t0 -37.5t12 -35t29.5 -14q43 0 89.5 51t80.5 119z" />
    <glyph glyph-name="v" unicode="v" horiz-adv-x="835" 
d="M582 264q106 91 177.5 201t71.5 223q0 62 -27 102.5t-79 40.5q-45 0 -78 -27t-33 -69q0 -38 31 -65q12 -8 28 -16.5t20.5 -11t10 -10t6.5 -17t1 -27.5q0 -65 -56 -154q-26 -44 -90 -108q-80 -80 -190 -162q-11 71 -39 133q-22 55 -32.5 85.5t-20 75t-9.5 87.5
q0 77 40 136.5t116 129.5l-35 31q-67 -42 -127.5 -98.5t-107.5 -134.5t-47 -148q0 -20 5 -45t10 -41t16 -47t14 -41l41 -107q3 -7 10.5 -27t10 -27t7.5 -23.5t5 -26.5t-0.5 -24.5t-5.5 -28.5t-13 -29l47 -21q42 70 150 152q101 81 172 139z" />
    <glyph glyph-name="w" unicode="w" horiz-adv-x="1341" 
d="M1075 264q106 91 178 201t72 223q0 62 -27 102.5t-79 40.5q-45 0 -78 -27t-33 -69q0 -38 31 -65q12 -7 28 -16t20 -11.5t10 -10t6.5 -17t0.5 -27.5q0 -66 -55 -154q-26 -44 -90 -108q-77 -77 -191 -162q-11 71 -39 133q-32 80 -46.5 133.5t-14.5 114.5q0 77 40 136.5
t116 129.5l-35 31q-108 -68 -195.5 -173.5t-87.5 -207.5q0 -27 10 -72q-14 -18 -59 -63q-80 -80 -190 -162q-11 71 -39 133q-22 55 -32.5 85.5t-20 75t-9.5 87.5q0 77 40 136.5t116 129.5l-35 31q-108 -68 -195.5 -173.5t-87.5 -207.5q0 -20 5 -45t10.5 -42t16 -46t14.5 -41
l40 -107q3 -8 10.5 -27t10.5 -27t7.5 -24t5 -26t0 -24.5t-5.5 -28.5t-13 -29l47 -21q43 71 149 152q101 81 172 139q28 22 66 60l12 -37l41 -107q3 -8 10.5 -27t10.5 -27t7.5 -24t5 -26t0 -24.5t-5.5 -28.5t-13 -29l47 -21q43 71 149 152q101 81 172 139z" />
    <glyph glyph-name="x" unicode="x" horiz-adv-x="901" 
d="M86 518l51 -18q18 36 38 70.5t47.5 75t56 65t51.5 24.5q19 0 29 -36.5t22 -149.5q15 -161 18 -176l-182 -219q-66 -79 -106 -39q-30 30 -56 30q-38 0 -62 -21t-24 -63t24 -63t64 -21q24 0 45.5 7.5t44.5 27t34 30t36 39.5t29 34l160 186q13 -157 18 -186
q12 -69 41.5 -103.5t97.5 -34.5q47 0 94.5 30.5t87 80t70.5 103t53 108.5l-49 12q-16 -35 -36 -71.5t-47.5 -79.5t-56 -70t-50.5 -27q-23 0 -32 24.5t-15 98.5q-18 131 -27 277l158 199q34 43 84 26q23 -10 45 -10q33 0 61.5 22.5t28.5 55.5q0 34 -23 54.5t-55 20.5
q-59 0 -168 -120q-56 -60 -137 -162q-13 146 -48.5 214t-115.5 68q-42 0 -88.5 -31t-86 -80.5t-70.5 -100.5t-54 -101z" />
    <glyph glyph-name="y" unicode="y" horiz-adv-x="851" 
d="M958 750q0 36 -28.5 58.5t-65.5 22.5q-51 0 -96 -63q-5 -10 -19.5 -36.5t-23.5 -43.5q-28 -65 -53 -117l-156 -358q2 25 2 96q0 55 -3 106.5t-10.5 114t-22.5 113.5t-37.5 95t-57.5 68.5t-80 24.5q-27 0 -52 -10t-44.5 -24.5t-40 -40.5t-34 -46.5t-30 -54.5t-25 -53.5
t-23 -54t-19.5 -45.5l53 -19q5 10 26.5 64t39.5 86q49 104 96 104q26 0 56 -75.5t49.5 -196.5t25 -254.5t-21 -267.5t-84.5 -217q-91 -127 -136 -127q-14 0 -32 18l-11 12q-29 33 -63 33q-31 0 -52.5 -21t-21.5 -47q0 -88 98 -88q96 0 203.5 112t208.5 349q11 26 88 205.5
t117 271.5q61 147 102 224q11 20 19.5 28.5t13 8t10.5 -6.5q4 0 4 -4l7 -4q17 -24 38 -24q44 0 65 26.5t21 57.5z" />
    <glyph glyph-name="z" unicode="z" horiz-adv-x="745" 
d="M213 186l469 478q21 21 50.5 65.5t29.5 61.5q-1 13 -2.5 19.5t-8 13.5t-18.5 7q-19 0 -37 -14q-57 -60 -164 -47q-151 15 -294 61l-140 -270l56 -18l73 127q196 -66 344 -27l-497 -512q-19 -19 -27 -31q-32 -32 -29 -75q1 -16 3 -23.5t9.5 -13.5t22.5 -6q24 0 33 18
q23 38 51 47t56 -4q15 -4 50.5 -13.5t51.5 -13.5q122 -39 192 -39q100 0 165 43.5t65 114.5q0 60 -27.5 100.5t-68.5 40.5q-32 0 -53 -17t-21 -50q0 -44 78 -64q28 -4 28 -24q0 -12 -13 -24.5t-34 -12.5q-22 0 -48.5 7.5t-71.5 25t-60 22.5q-133 45 -213 47z" />
    <glyph glyph-name="braceleft" unicode="{" horiz-adv-x="673" 
d="M381 -469l10 43q-45 7 -72 24t-39.5 34.5t-12.5 56t3.5 64t15.5 84.5q5 24 7 36q9 41 63 208t54 232q0 58 -25.5 93t-81.5 59q89 30 136 85.5t83 180.5q16 62 37.5 195.5t42.5 203.5q31 114 83.5 171.5t141.5 58.5l13 45q-41 -4 -60 -5.5t-53 -6t-50.5 -9.5t-43.5 -14
t-42 -20.5t-36 -28.5t-35 -38t-29.5 -49t-29.5 -63q-33 -89 -64.5 -265.5t-64.5 -266.5q-23 -65 -62.5 -102t-103.5 -54l-8 -30q58 -21 73 -70q23 -87 -18 -254q-11 -47 -38.5 -129t-44.5 -151t-17 -134q0 -43 15.5 -75.5t38.5 -51.5t61 -31t71.5 -17.5t81.5 -8.5z" />
    <glyph glyph-name="bar" unicode="|" horiz-adv-x="442" 
d="M172 -469h104v1876h-104v-1876z" />
    <glyph glyph-name="braceright" unicode="}" horiz-adv-x="673" 
d="M586 453l8 30q-56 18 -78 54.5t-12 101.5q11 78 45 190.5t61 216t27 185.5q0 32 -7 57t-17.5 42t-31 30t-39 20.5t-50.5 12.5t-56 7t-65 5l-11 -45q88 -1 113.5 -59t1.5 -171q-10 -53 -70.5 -230t-60.5 -275q0 -116 105 -160q-86 -30 -135.5 -84t-75.5 -152
q-11 -35 -32 -163t-38 -193q-38 -134 -57 -173q-39 -80 -120 -109q-30 -11 -67 -17l-12 -43q139 12 185 25q99 29 155 123q23 39 43 94q22 57 37 127t26 140t15 89q43 176 106 254q36 49 107 70z" />
    <glyph glyph-name="asciitilde" unicode="~" horiz-adv-x="1124" 
d="M1073 639l-31 27q-92 -121 -198 -121q-57 0 -121 26.5t-128.5 53t-123.5 26.5q-165 0 -295 -213l33 -24q100 127 209 127q58 0 121 -26.5t127 -54.5t120 -30q83 -1 157.5 54.5t129.5 154.5z" />
    <glyph glyph-name="sterling" unicode="&#xa3;" horiz-adv-x="1038" 
d="M981 268q-155 -291 -356 -291q-77 0 -144.5 32t-115.5 89q-49 -54 -107.5 -86t-105.5 -32q-144 0 -144 135q0 56 64 104.5t143 48.5q53 0 150 -47q37 56 47 96q14 60 14 148q0 71 -14 143h-236l17 66h215q-11 162 14 268q38 145 150.5 248.5t248.5 103.5q112 0 188.5 -53
t69.5 -151q-4 -53 -36 -85t-70 -32q-40 0 -63 23t-23 55q0 26 12.5 43t28.5 23.5t31 17t18 24.5q7 25 -23 44t-65.5 26.5t-59.5 7.5q-79 0 -144 -60t-89 -161q-11 -33 -9.5 -85t7 -88t13 -87t9.5 -82h269l-15 -66l-256 -2q0 -22 -4 -49.5t-7.5 -43t-12 -50t-10.5 -43.5
q-8 -37 -34 -81t-50 -75t-64 -76q134 -69 223 -69q43 0 74 5t69.5 20.5t75.5 50.5t74 90zM317 137q-61 68 -133 68q-44 0 -79 -31t-35 -74q0 -32 22 -50.5t58 -18.5q84 0 167 106z" />
    <glyph glyph-name="yen" unicode="&#xa5;" horiz-adv-x="1249" 
d="M1460 1270h-33q-69 0 -116 -22.5t-101 -90.5l-305 -373l242 -6l-17 -57l-272 6l-72 -86l-22 -84l328 -6l-15 -53l-325 6q-35 -122 -58 -230q-40 -156 -49 -215l217 -2l-14 -57q-109 0 -204.5 2t-113.5 2h-67h-92h-148l19 59l215 -4q3 13 33 123t49 189q10 47 30 133
l-329 4l12 53l330 -4l16 74q-1 3 -12 38t-17 58l-276 4l14 57l248 -4q-80 292 -152 486l-147 2l16 61q228 -6 256 -6q14 0 100.5 2t186.5 2l-16 -63l-178 2q10 -32 40 -151t48 -177q52 -174 71 -223l348 440q25 31 32.5 55t-8 40t-58.5 16h-54l15 61l200 -6l222 6z" />
    <glyph glyph-name="brokenbar" unicode="&#xa6;" horiz-adv-x="970" 
d="M768 1016q-42 0 -106.5 31.5t-100.5 31.5q-46 0 -74 -15.5t-61 -57.5l-27 18q36 63 94.5 114.5t108.5 51.5q43 0 108.5 -30t102.5 -30q55 0 81 13.5t56 56.5l27 -20q-35 -65 -96 -114.5t-113 -49.5zM918 506q0 -88 -39.5 -183t-103.5 -172t-153 -127.5t-180 -50.5
q-81 0 -145 27.5t-100.5 72.5t-55 96.5t-18.5 106.5q0 137 67 265t182.5 209t245.5 81q139 0 219.5 -94t80.5 -231zM750 606q0 170 -146 170q-62 0 -117 -42.5t-91.5 -107.5t-63.5 -143.5t-39 -150.5t-12 -129q0 -71 43 -121.5t110 -50.5q65 0 119.5 42t90 106t60.5 143.5
t35.5 151.5t10.5 132z" />
    <glyph glyph-name="section" unicode="&#xa7;" horiz-adv-x="944" 
d="M997 1112q0 22 -4.5 44.5t-21.5 54t-45.5 55t-82.5 40.5t-126 17q-87 0 -170.5 -41t-144 -105.5t-97.5 -147t-37 -163.5q0 -70 31 -121q-78 -66 -130 -164t-52 -194q0 -56 19.5 -101t56.5 -77t77 -53.5t95 -42.5q11 -4 37.5 -12.5t42.5 -14t41.5 -16.5t42 -20.5t36 -25
t30.5 -32t18.5 -39.5t7.5 -49q0 -83 -57.5 -158t-143 -118.5t-170.5 -43.5q-92 0 -147.5 34t-55.5 93q0 18 12 25t36 11.5t38 12.5q45 28 45 66q0 40 -21.5 61t-58.5 21q-55 0 -93 -45t-38 -92q0 -28 3 -52.5t19.5 -62.5t45 -64.5t86 -46.5t135.5 -20q131 0 245 76.5
t179 196t65 245.5q0 55 -16 92q74 70 122 179t48 204q0 65 -25 113.5t-75.5 82.5t-100 54.5t-125.5 44.5q-42 12 -68 22.5t-54.5 28t-42 43.5t-13.5 60q0 122 95 208.5t215 86.5q23 0 50.5 -3.5t59 -11.5t50 -25t12.5 -40q-3 -14 -15.5 -24.5t-25.5 -17t-23 -20.5t-10 -35
q0 -90 82 -90q46 0 79 32.5t33 84.5zM772 377q0 -91 -80 -182q-12 14 -26.5 26t-34.5 23t-35 18.5t-42.5 18t-41 15.5t-47.5 16.5t-47 15.5q-174 60 -174 159q0 57 24.5 115t65.5 96q55 -55 184 -100q5 -2 30 -10.5t33.5 -11.5t33 -12.5t35 -15.5t31 -17.5t30.5 -21.5
t24 -25.5t20.5 -30.5t11.5 -34.5t5 -41.5z" />
    <glyph glyph-name="dieresis" unicode="&#xa8;" horiz-adv-x="1032" 
d="M422 1087q0 -41 27.5 -68.5t68.5 -27.5t68.5 27.5t27.5 68.5t-27.5 69t-68.5 28t-68.5 -28t-27.5 -69zM754 1087q0 -41 27.5 -68.5t68.5 -27.5t68.5 27.5t27.5 68.5t-27.5 69t-68.5 28t-68.5 -28t-27.5 -69z" />
    <glyph glyph-name="copyright" unicode="&#xa9;" horiz-adv-x="1558" 
d="M1436 666q0 -138 -51 -262t-138 -214t-209.5 -143t-259.5 -53q-128 0 -246.5 49.5t-209 136t-145 213t-54.5 271.5q0 141 53 266t141.5 212.5t209 138t251.5 50.5q140 0 263.5 -53.5t209.5 -144t135.5 -212t49.5 -255.5zM1378 664q0 164 -78 303t-215.5 221t-302.5 82
q-166 0 -304.5 -81.5t-218 -220.5t-79.5 -304q0 -169 80.5 -309.5t218.5 -221t301 -80.5q166 0 303.5 82t216 222.5t78.5 306.5zM1040 188q-2 16 -5 26.5t-9 15t-9.5 7t-13.5 -1.5t-13 -5t-16.5 -9.5t-15.5 -9.5q-77 -41 -186 -41q-188 0 -300 133.5t-112 331.5
q0 123 55.5 229t156 171t223.5 65q113 0 194 -56q26 -19 35.5 -11.5t15.5 50.5h41v-325h-43q0 131 -43 192q-31 46 -85.5 71.5t-112.5 25.5q-74 0 -130 -40.5t-86.5 -106t-45.5 -134.5t-15 -139q0 -77 12.5 -143t41 -126.5t82.5 -95.5t130 -35q115 0 181 76q69 76 73 238h43
v-353h-43z" />
    <glyph glyph-name="guillemotleft" unicode="&#xab;" horiz-adv-x="894" 
d="M668 70h98l-148 307l300 315h-99l-370 -303l-5 -16zM360 70h99l-148 307l299 315h-98l-371 -303l-4 -16z" />
    <glyph glyph-name="sfthyphen" unicode="&#xad;" horiz-adv-x="712" 
d="M633 434l31 125h-142h-45h-33h-34h-54h-43h-61q-25 0 -62 1t-43 1l-30 -127q20 0 85 1t107 1h119h119q17 0 44 -1t42 -1z" />
    <glyph glyph-name="registered" unicode="&#xae;" horiz-adv-x="1558" 
d="M1436 666q0 -184 -86.5 -338.5t-238 -244t-333.5 -89.5q-128 0 -247 49.5t-209.5 136t-144.5 213t-54 271.5q0 188 89.5 342t239 239.5t326.5 85.5q185 0 337 -91t236.5 -243t84.5 -331zM1378 666q0 163 -78 301.5t-215.5 220.5t-302.5 82q-166 0 -304.5 -81.5
t-218 -220.5t-79.5 -304q0 -169 80 -309.5t217.5 -221t300.5 -80.5q166 0 304 82.5t217 223t79 307.5zM856 676q73 -20 112 -47t62 -92q14 -48 14 -172q0 -39 16 -71t48 -32q8 0 24.5 9t26.5 20l29 -31q-34 -39 -96 -39q-77 0 -128.5 54t-56.5 135q-2 23 -2 71q0 41 -8 74
q-12 42 -53 69t-115 27h-49q0 -15 -1 -50t-1 -50v-272h125v-50h-363v50h109q0 57 1 159.5t1 161.5q0 70 1 225.5t1 229.5h-113v49q34 0 93 -1t85 -1q114 4 175 4q50 0 96 -11.5t86.5 -35t65 -65.5t24.5 -97q0 -176 -209 -221zM797 1051q-27 6 -58 6q-19 0 -59 -4l-2 -170
l2 -178h45q33 0 47 2q154 11 154 180q0 141 -129 164z" />
    <glyph glyph-name="degree" unicode="&#xb0;" horiz-adv-x="688" 
d="M610 1071q0 -117 -81.5 -191.5t-184.5 -74.5q-108 0 -189 76.5t-81 191.5q0 79 42 141.5t103 93.5t125 31q104 0 185 -76.5t81 -191.5zM528 1073q0 82 -57 131t-125 49q-70 0 -128 -48t-58 -132q0 -75 52 -129.5t130 -54.5t132 53t54 131z" />
    <glyph glyph-name="twosuperior" unicode="&#xb2;" horiz-adv-x="1255" 
d="M594 -109l90 82q136 12 229 58q7 3 22 11.5t23.5 13t22 10t21.5 6t17 -2t13.5 -10.5t7 -22.5t0.5 -36.5h50q7 28 18.5 89.5t19.5 94.5q46 194 70 281h-49q-16 -56 -30 -94t-54 -99.5t-98 -111.5q-142 -125 -305 -125q-80 0 -138.5 30t-90.5 83t-47 117t-15 141
q0 81 15.5 175.5t44.5 194.5t76 191.5t105.5 163.5t138.5 115.5t169 43.5t163 -38.5t105 -108.5q38 -86 8 -242h49q27 117 37 162q13 52 38 145.5t32 122.5h-49q-17 -44 -29 -61.5t-29 -17.5t-45 22q-40 34 -114.5 57t-174.5 23q-132 0 -252.5 -52.5t-211 -141.5t-158 -203
t-101.5 -242t-32 -252q0 -138 48.5 -245.5t151 -174.5t246.5 -72l-168 -149l8 -25q60 27 111 27q44 0 73.5 -29t18.5 -71q-11 -49 -53.5 -78t-89.5 -29q-34 0 -61 21.5t-56 21.5q-18 0 -32.5 -10.5t-18.5 -28.5q-5 -25 17.5 -40.5t46.5 -19t48 -3.5q57 0 116.5 21t110 66.5
t66.5 104.5q17 71 -26.5 110t-118.5 31z" />
    <glyph glyph-name="threesuperior" unicode="&#xb3;" horiz-adv-x="1404" 
d="M1085 1423q-39 0 -103.5 32t-102.5 32q-46 0 -73.5 -15.5t-60.5 -58.5l-28 19q42 66 98.5 115.5t106.5 49.5q42 0 107 -29.5t104 -29.5q55 0 80 13.5t55 56.5l26 -21q-29 -63 -93.5 -113.5t-115.5 -50.5zM1606 1270h-50q-44 0 -71.5 -6t-53.5 -26t-44.5 -58.5
t-34.5 -102.5q-222 -878 -265 -1077h-79q-21 51 -96 240.5t-126 316.5q-25 65 -68 186.5t-69 186.5q-15 37 -59.5 139t-59.5 141q-12 -44 -40 -165t-44 -181q-26 -107 -79 -319.5t-72 -290.5q-14 -60 -14 -102q0 -56 29.5 -74.5t95.5 -18.5h53l-17 -59l-256 4l-221 -4l17 59
h45q68 0 104 18t62 75q13 27 22.5 54.5t14.5 49.5l17.5 77t24.5 105q9 37 67 272.5t89 360.5q34 141 37 154q12 45 -45 45q-85 0 -144 2l17 59q164 -4 217 -4q59 0 203 4q29 -79 76.5 -206.5t70.5 -190.5q16 -41 59.5 -157.5t69.5 -180.5q19 -50 58 -147t53 -134l184 762
q16 69 16 101q0 57 -27.5 74.5t-94.5 17.5h-48l17 61l239 -6l236 6z" />
    <glyph glyph-name="mu" unicode="&#xb5;" horiz-adv-x="1019" 
d="M995 197q-62 -118 -120.5 -172t-145.5 -54q-48 0 -77.5 18t-37 45t-10 59t2.5 60q1 6 1 9l-4 2q-48 -81 -137 -137q-54 -34 -106.5 -45t-83.5 -4t-46 22q-7 -30 -26.5 -102t-24.5 -99q-35 -125 -53 -227l139 2l-16 -55q-87 0 -147 3.5t-109.5 3.5t-163.5 -7l12 51l133 2
q7 29 29 138.5t41 178.5q29 108 86 349q3 14 53 223q5 25 36 133t36 133h-37h-26q-29 0 -60 2l10 47q73 3 132 13t80 16t71 24l8 -6q-7 -24 -17.5 -71.5t-17.5 -71.5q-9 -30 -33 -119t-28 -104q-7 -29 -24.5 -103t-26.5 -110q0 -1 -3.5 -16.5t-5 -22t-4 -24t-2.5 -27v-25.5
t3.5 -25.5t9 -21t14.5 -18t22.5 -11t30.5 -4.5q68 0 137.5 66.5t119.5 160.5t75 193q3 11 8 32t13.5 52.5t13.5 52.5q3 14 14.5 65.5t16.5 76.5q13 51 14 53h154q-15 -51 -35 -133t-29 -115q-7 -29 -68 -303q-4 -19 -20 -88q-8 -56 -8 -70q0 -47 28 -47q43 0 88.5 50.5
t79.5 119.5z" />
    <glyph glyph-name="mu" unicode="&#x3bc;" horiz-adv-x="1019" 
d="M995 197q-62 -118 -120.5 -172t-145.5 -54q-48 0 -77.5 18t-37 45t-10 59t2.5 60q1 6 1 9l-4 2q-48 -81 -137 -137q-54 -34 -106.5 -45t-83.5 -4t-46 22q-7 -30 -26.5 -102t-24.5 -99q-35 -125 -53 -227l139 2l-16 -55q-87 0 -147 3.5t-109.5 3.5t-163.5 -7l12 51l133 2
q7 29 29 138.5t41 178.5q29 108 86 349q3 14 53 223q5 25 36 133t36 133h-37h-26q-29 0 -60 2l10 47q73 3 132 13t80 16t71 24l8 -6q-7 -24 -17.5 -71.5t-17.5 -71.5q-9 -30 -33 -119t-28 -104q-7 -29 -24.5 -103t-26.5 -110q0 -1 -3.5 -16.5t-5 -22t-4 -24t-2.5 -27v-25.5
t3.5 -25.5t9 -21t14.5 -18t22.5 -11t30.5 -4.5q68 0 137.5 66.5t119.5 160.5t75 193q3 11 8 32t13.5 52.5t13.5 52.5q3 14 14.5 65.5t16.5 76.5q13 51 14 53h154q-15 -51 -35 -133t-29 -115q-7 -29 -68 -303q-4 -19 -20 -88q-8 -56 -8 -70q0 -47 28 -47q43 0 88.5 50.5
t79.5 119.5z" />
    <glyph glyph-name="periodcentered" unicode="&#xb7;" horiz-adv-x="489" 
d="M236 639q0 -43 29.5 -72.5t72.5 -29.5t72.5 29.5t29.5 72.5t-29.5 72.5t-72.5 29.5t-72.5 -29.5t-29.5 -72.5z" />
    <glyph glyph-name="periodcentered" unicode="&#x22c5;" horiz-adv-x="489" 
d="M236 639q0 -43 29.5 -72.5t72.5 -29.5t72.5 29.5t29.5 72.5t-29.5 72.5t-72.5 29.5t-72.5 -29.5t-29.5 -72.5z" />
    <glyph glyph-name="onesuperior" unicode="&#xb9;" horiz-adv-x="1214" 
d="M1053 1599q7 78 -42.5 130.5t-121.5 52.5q-69 0 -131.5 -51t-69.5 -132q-7 -79 43 -130.5t121 -51.5q70 0 132 52t69 130zM995 1599q-4 -54 -44.5 -89t-94.5 -35q-53 0 -83.5 36.5t-24.5 87.5q7 58 48.5 90.5t88.5 32.5q46 0 81 -33.5t29 -89.5zM1096 0l18 61l-131 -2
q-12 98 -39.5 400t-42.5 444q-21 222 -45 451h-68q-53 -101 -251 -465q-81 -146 -245 -438.5t-218 -391.5l-137 2l-17 -59h98h64h47h45q12 0 65.5 -1t100.5 -1l14 57l-180 2q11 22 100 183q14 26 37.5 71.5t41.5 80.5t32 59h352q3 -39 11 -115t10 -98q11 -161 12 -181
l-160 -2l-16 -57q63 0 132.5 1t82.5 1h55h54q13 0 70 -1t108 -1zM735 510h-321q20 37 67 120t74 132q24 43 52 95t56.5 105.5t38.5 71.5q1 -45 9 -134t10 -124q2 -39 4.5 -99.5t4.5 -102.5t5 -64z" />
    <glyph glyph-name="guillemotright" unicode="&#xbb;" horiz-adv-x="894" 
d="M467 70l373 303l4 16l-223 303h-99l146 -315l-297 -307h96zM160 70l372 303l5 16l-224 303h-98l145 -315l-297 -307h97z" />
    <glyph glyph-name="onehalf" unicode="&#xbd;" horiz-adv-x="1253" 
d="M1161 1270l-891 -1270h-80l895 1270h76zM1116 94q-8 -24 -19.5 -61.5t-15.5 -50.5q-107 8 -227 8q-162 0 -250 -6l-2 32q96 89 254 211q89 70 145 134.5t74 140.5q6 27 6 51q0 41 -21.5 67.5t-62.5 26.5q-54 0 -98 -24.5t-57 -49.5q-16 -20 2 -20q6 -3 21 -3.5t20 -4.5
q29 -16 20 -56q-7 -30 -31.5 -48.5t-50.5 -18.5q-50 0 -63.5 26.5t-1.5 67.5q23 89 100.5 135.5t167.5 46.5q102 0 154 -66t10 -167q-14 -35 -37 -67t-56 -61t-59.5 -49t-69.5 -50t-63 -45q-16 -9 -82 -60q-49 -34 -63 -45h166q18 1 34 0.5t36 1.5t34 8q21 11 40.5 36.5
t47.5 82.5h45q-16 -26 -47 -123zM186 602l13 49h108q47 170 117 457q18 76 31 141l-119 -16l2 37q103 17 227 53l17 -16q-13 -56 -53.5 -218.5t-59.5 -242.5q-13 -45 -27.5 -110.5t-19.5 -84.5h98l-12 -49h-322z" />
    <glyph glyph-name="Adieresis" unicode="&#xc4;" horiz-adv-x="1214" 
d="M1096 0l18 61l-131 -2q-12 98 -39.5 400t-42.5 444q-21 222 -45 451h-68q-53 -101 -251 -465q-81 -146 -245 -438.5t-218 -391.5l-137 2l-17 -59h98h64h47h45q12 0 65.5 -1t100.5 -1l14 57l-180 2q11 22 100 183q14 26 37.5 71.5t41.5 80.5t32 59h352q3 -39 11 -115
t10 -98q11 -161 12 -181l-160 -2l-16 -57q63 0 132.5 1t82.5 1h55h54q13 0 70 -1t108 -1zM735 510h-321q20 37 67 120t74 132q24 43 52 95t56.5 105.5t38.5 71.5q1 -45 9 -134t10 -124q2 -39 4.5 -99.5t4.5 -102.5t5 -64zM590 1524q0 -41 27.5 -69t68.5 -28t68.5 28t27.5 69
t-27.5 68.5t-68.5 27.5t-68.5 -27.5t-27.5 -68.5zM922 1524q0 -41 27.5 -69t68.5 -28t68.5 28t27.5 69t-27.5 68.5t-68.5 27.5t-68.5 -27.5t-27.5 -68.5z" />
    <glyph glyph-name="Eacute" unicode="&#xc9;" horiz-adv-x="1171" 
d="M1130 395q-14 -44 -40 -125.5t-45 -145t-35 -128.5q-114 7 -233 8.5t-288 -0.5t-233 -2q-187 4 -266 -4l16 57l174 4q15 60 59 247.5t74 307.5q14 56 52.5 215t60.5 244q9 38 28 110t23 87l-176 2l14 59q94 -4 140 -4q94 0 141 2q127 1 229.5 0.5t229.5 1.5t233 8
q-16 -55 -29.5 -115.5t-29 -137.5t-23.5 -115h-51q11 147 -16 196q-31 58 -113.5 81.5t-224.5 21.5l-139 -2q-36 -137 -62.5 -252t-71.5 -291h64q67 0 110.5 12t74 44.5t48.5 71.5t41 110h49q-15 -50 -71 -263q-41 -158 -64 -280h-51q16 126 16 146q-1 63 -44 83
q-37 17 -119 17h-70l-43 -193l-102 -414h208q110 0 184.5 14t136.5 52t104 103t75 167h55zM954 1493l-290 -115l-21 35l242 170q29 19 44 28t34 16.5t34 6.5q29 -2 45 -21t9 -44q-10 -40 -97 -76z" />
    <glyph glyph-name="Odieresis" unicode="&#xd6;" horiz-adv-x="1335" 
d="M582 -31q-135 0 -234.5 69t-148.5 181t-49 250q0 149 61.5 306.5t163 285.5t246.5 210.5t299 82.5q135 0 234 -67t147.5 -176.5t48.5 -246.5q0 -119 -38.5 -246t-110.5 -242t-165.5 -206.5t-212 -146t-241.5 -54.5zM1139 967q0 152 -62.5 236.5t-193.5 84.5
q-87 0 -164 -47.5t-132.5 -126t-100 -176.5t-71.5 -203t-41 -200.5t-14 -174.5q0 -145 63 -233t195 -88q73 0 139.5 35t118 94.5t95 138t74 165t52.5 175.5t32 170.5t10 149.5zM713 1524q0 41 27.5 68.5t68.5 27.5t68.5 -27.5t27.5 -68.5t-27.5 -69t-68.5 -28t-68.5 28
t-27.5 69zM1044 1524q0 41 28 68.5t69 27.5t68.5 -27.5t27.5 -68.5t-27.5 -69t-68.5 -28t-69 28t-28 69z" />
    <glyph glyph-name="Udieresis" unicode="&#xdc;" horiz-adv-x="1404" 
d="M1614 1270h-78q-44 0 -71.5 -6t-54 -25.5t-45 -58.5t-34.5 -103q-8 -35 -28.5 -129.5t-38.5 -171.5t-33 -125q-15 -50 -38 -137t-32 -117q-20 -69 -42.5 -123t-63 -113.5t-92 -98.5t-130 -65t-176.5 -26q-192 0 -297.5 78.5t-105.5 239.5q0 145 74 430l135 551l-176 4
l16 61q220 -6 248 -6h67q16 0 99 1t157 1l-20 -65l-201 4q-60 -225 -153 -629q-3 -11 -19.5 -75.5t-24 -98t-16 -88t-8.5 -96.5q0 -101 62 -174.5t176 -73.5q66 0 121.5 14.5t109.5 49t98 98.5t74 155q47 156 82 291q13 47 36 141.5t30 122.5q36 154 39 170q13 51 15.5 85.5
t-2.5 56t-22 32.5t-38 15t-56 4h-47l16 61l232 -6l272 6zM713 1524q0 41 27.5 68.5t68.5 27.5t68.5 -27.5t27.5 -68.5t-27.5 -69t-68.5 -28t-68.5 28t-27.5 69zM1044 1524q0 41 28 68.5t69 27.5t68.5 -27.5t27.5 -68.5t-27.5 -69t-68.5 -28t-69 28t-28 69z" />
    <glyph glyph-name="germandbls" unicode="&#xdf;" horiz-adv-x="1003" 
d="M-14 55h120q22 80 97 383q81 321 137 572q39 162 136.5 258t250.5 96q138 0 226.5 -63.5t88.5 -192.5q0 -69 -27.5 -128.5t-76 -101.5t-104.5 -71t-121 -49v-4q127 -10 192.5 -89.5t65.5 -215.5q0 -129 -56 -239t-161.5 -177.5t-237.5 -67.5q-47 0 -88 29.5t-41 71.5
q0 46 27.5 81t70.5 35q42 0 60 -24q15 -21 6 -68q-3 -12 -18.5 -28.5t-16.5 -22.5q-2 -11 6 -16t27 -5q61 0 109.5 52.5t75 130t39.5 152t13 132.5q0 220 -139 228q-65 5 -166 -47l-4 65q62 17 154 51q121 49 188.5 136.5t67.5 207.5q0 44 -12 78t-28.5 52.5t-39.5 30
t-41 15t-35 3.5q-79 0 -140 -65.5t-93 -188.5q-49 -186 -205 -828q-9 -38 -26.5 -114t-24.5 -109l-136 2l-137 -2z" />
    <glyph glyph-name="agrave" unicode="&#xe0;" horiz-adv-x="1032" 
d="M1044 219q-3 -4 -9 -19.5t-9 -19.5q-55 -104 -116 -154.5t-138 -50.5q-68 0 -108 30.5t-35 78.5q-115 -109 -242 -109q-79 0 -141 36t-94.5 94.5t-45 134t8.5 153.5q18 80 62.5 158.5t105 140.5t139 100.5t158.5 38.5q125 0 188 -81l12 51q8 -3 19 -3.5t28 0.5t25 1
q23 0 52.5 1t33.5 1l-43 -172q-12 -48 -33 -142.5t-33 -142.5q-8 -37 -20.5 -97.5t-17.5 -84.5q-26 -117 40 -117t152 150q3 5 11.5 21.5t11.5 21.5zM721 547q22 96 -16.5 159.5t-108.5 63.5q-53 0 -101 -27t-79.5 -65.5t-58.5 -91t-41 -92.5t-25 -80q-36 -184 -15 -272
q26 -107 125 -107q98 0 163 65.5t85 151.5q3 12 12.5 45t12.5 51zM659 944l-219 223q-65 68 -57 107q4 26 26.5 38t47.5 1q15 -5 30 -20t24 -27.5t30 -44.5l151 -252z" />
    <glyph glyph-name="acircumflex" unicode="&#xe2;" horiz-adv-x="1032" 
d="M772 -25q-68 0 -108 30.5t-35 78.5q-115 -109 -242 -109q-79 0 -141 36t-94.5 94.5t-45 134t8.5 153.5q18 80 62.5 158.5t105 140.5t139 100.5t158.5 38.5q125 0 188 -81l12 51q8 -3 19 -3.5t28 0.5t25 1q23 0 52.5 1t33.5 1l-43 -172q-12 -48 -33 -142.5t-33 -142.5
q-8 -37 -20.5 -97.5t-17.5 -84.5q-26 -117 40 -117t152 150q3 5 11.5 21.5t11.5 21.5l38 -19q-3 -4 -9 -19.5t-9 -19.5q-55 -104 -116 -154.5t-138 -50.5zM674 348l47 199q22 96 -16.5 159.5t-108.5 63.5q-53 0 -101 -27t-79.5 -65.5t-58.5 -91t-41 -92.5t-25 -80
q-36 -184 -15 -272q26 -107 125 -107q98 0 163 65.5t85 151.5q3 12 12.5 45t12.5 51zM684 1145l-278 -201h-72l328 326h106l162 -326h-70z" />
    <glyph glyph-name="adieresis" unicode="&#xe4;" horiz-adv-x="1032" 
d="M772 -25q-68 0 -108 30.5t-35 78.5q-115 -109 -242 -109q-79 0 -141 36t-94.5 94.5t-45 134t8.5 153.5q18 80 62.5 158.5t105 140.5t139 100.5t158.5 38.5q125 0 188 -81l12 51q8 -3 19 -3.5t28 0.5t25 1q23 0 52.5 1t33.5 1l-43 -172q-12 -48 -33 -142.5t-33 -142.5
q-8 -37 -20.5 -97.5t-17.5 -84.5q-26 -117 40 -117t152 150q3 5 11.5 21.5t11.5 21.5l38 -19q-3 -4 -9 -19.5t-9 -19.5q-55 -104 -116 -154.5t-138 -50.5zM674 348l47 199q22 96 -16.5 159.5t-108.5 63.5q-53 0 -101 -27t-79.5 -65.5t-58.5 -91t-41 -92.5t-25 -80
q-36 -184 -15 -272q26 -107 125 -107q98 0 163 65.5t85 151.5q3 12 12.5 45t12.5 51zM422 1087q0 41 27.5 69t68.5 28t68.5 -28t27.5 -69t-27.5 -68.5t-68.5 -27.5t-68.5 27.5t-27.5 68.5zM754 1087q0 41 27.5 69t68.5 28t68.5 -28t27.5 -69t-27.5 -68.5t-68.5 -27.5
t-68.5 27.5t-27.5 68.5z" />
    <glyph glyph-name="ccedilla" unicode="&#xe7;" horiz-adv-x="825" 
d="M743 176q-148 -181 -313 -201l-92 -84q75 8 118.5 -31t26.5 -110q-16 -59 -66.5 -104.5t-110 -66.5t-116.5 -21q-24 0 -48 3.5t-46.5 19t-17.5 40.5q4 18 18.5 28.5t32.5 10.5q29 0 56 -21.5t61 -21.5q47 0 89.5 29t53.5 78q11 42 -18.5 71t-73.5 29q-51 0 -111 -27
l-8 25l170 153q-115 13 -185.5 98t-70.5 210q0 134 69.5 259.5t189.5 205t255 79.5q52 0 101 -17.5t84.5 -56t35.5 -89.5q0 -55 -25.5 -87t-72.5 -32q-34 0 -56 18.5t-22 44.5q0 43 27 70q20 25 20 35q0 30 -33.5 45.5t-66.5 15.5q-69 0 -127.5 -39.5t-96.5 -100.5
t-64.5 -137.5t-38 -148.5t-11.5 -135q0 -82 43 -130t131 -48q71 0 134 42t149 128z" />
    <glyph glyph-name="egrave" unicode="&#xe8;" horiz-adv-x="792" 
d="M432 35q80 0 150.5 50.5t119.5 127.5l35 -23q-58 -93 -151 -156t-193 -63q-143 0 -227 89t-84 231q0 130 67 253.5t184.5 203t250.5 79.5q85 0 140.5 -47.5t55.5 -120.5q0 -51 -27.5 -96.5t-84.5 -84.5t-159.5 -62t-238.5 -23q-18 -60 -18 -135q0 -101 42.5 -162
t137.5 -61zM283 446q168 0 260 72.5t92 167.5q0 37 -25.5 61.5t-62.5 24.5q-36 0 -67.5 -13t-54 -30.5t-44 -49.5t-34.5 -55.5t-27.5 -63.5t-20.5 -59t-16 -55zM608 944l-219 223q-65 68 -57 107q4 26 26.5 38t47.5 1q29 -9 76 -82q5 -6 7 -10l152 -252z" />
    <glyph glyph-name="eacute" unicode="&#xe9;" horiz-adv-x="792" 
d="M432 35q80 0 150.5 50.5t119.5 127.5l35 -23q-58 -93 -151 -156t-193 -63q-143 0 -227 89t-84 231q0 130 67 253.5t184.5 203t250.5 79.5q85 0 140.5 -47.5t55.5 -120.5q0 -51 -27.5 -96.5t-84.5 -84.5t-159.5 -62t-238.5 -23q-18 -60 -18 -135q0 -101 42.5 -162
t137.5 -61zM283 446q168 0 260 72.5t92 167.5q0 37 -25.5 61.5t-62.5 24.5q-36 0 -67.5 -13t-54 -30.5t-44 -49.5t-34.5 -55.5t-27.5 -63.5t-20.5 -59t-16 -55zM756 1167l-219 -223l-33 25l151 252q21 32 30 44.5t24 27.5t30 20q25 11 47.5 -1t26.5 -38q8 -39 -57 -107z" />
    <glyph glyph-name="ecircumflex" unicode="&#xea;" horiz-adv-x="792" 
d="M432 35q80 0 150.5 50.5t119.5 127.5l35 -23q-58 -93 -151 -156t-193 -63q-143 0 -227 89t-84 231q0 130 67 253.5t184.5 203t250.5 79.5q85 0 140.5 -47.5t55.5 -120.5q0 -51 -27.5 -96.5t-84.5 -84.5t-159.5 -62t-238.5 -23q-18 -60 -18 -135q0 -101 42.5 -162
t137.5 -61zM283 446q168 0 260 72.5t92 167.5q0 37 -25.5 61.5t-62.5 24.5q-36 0 -67.5 -13t-54 -30.5t-44 -49.5t-34.5 -55.5t-27.5 -63.5t-20.5 -59t-16 -55zM602 1145l-278 -201h-72l328 326h106l162 -326h-70z" />
    <glyph glyph-name="edieresis" unicode="&#xeb;" horiz-adv-x="792" 
d="M432 35q80 0 150.5 50.5t119.5 127.5l35 -23q-58 -93 -151 -156t-193 -63q-143 0 -227 89t-84 231q0 130 67 253.5t184.5 203t250.5 79.5q85 0 140.5 -47.5t55.5 -120.5q0 -51 -27.5 -96.5t-84.5 -84.5t-159.5 -62t-238.5 -23q-18 -60 -18 -135q0 -101 42.5 -162
t137.5 -61zM283 446q168 0 260 72.5t92 167.5q0 37 -25.5 61.5t-62.5 24.5q-36 0 -67.5 -13t-54 -30.5t-44 -49.5t-34.5 -55.5t-27.5 -63.5t-20.5 -59t-16 -55zM340 1087q0 41 27.5 69t68.5 28t68.5 -28t27.5 -69t-27.5 -68.5t-68.5 -27.5t-68.5 27.5t-27.5 68.5zM672 1087
q0 41 27.5 69t68.5 28t68.5 -28t27.5 -69t-27.5 -68.5t-68.5 -27.5t-68.5 27.5t-27.5 68.5z" />
    <glyph glyph-name="icircumflex" unicode="&#xee;" horiz-adv-x="561" 
d="M575 281l-40 14q-43 -102 -97.5 -176t-103.5 -74q-65 0 -39 117q16 92 37 182q20 91 67 262q13 45 31.5 123t24.5 102l-11 7q-3 -1 -21.5 -7.5t-23.5 -8t-23 -7.5t-27.5 -8t-28.5 -6.5t-34.5 -6.5t-36.5 -5t-44 -4.5t-49 -2.5l-13 -45q25 -2 54 -2h26h19h26
q-4 -19 -15.5 -68.5t-16.5 -76.5q-10 -46 -31.5 -129.5t-28.5 -112.5q-7 -28 -18.5 -78.5t-16.5 -70.5q-11 -38 -13 -74t7 -71t41 -56t84 -21q108 0 177 71.5t138 232.5zM129 944l281 201l176 -201h69l-163 326h-107l-326 -326h70z" />
    <glyph glyph-name="idieresis" unicode="&#xef;" horiz-adv-x="561" 
d="M575 281l-40 14q-43 -102 -97.5 -176t-103.5 -74q-65 0 -39 117q16 92 37 182q20 91 67 262q13 45 31.5 123t24.5 102l-11 7q-3 -1 -21.5 -7.5t-23.5 -8t-23 -7.5t-27.5 -8t-28.5 -6.5t-34.5 -6.5t-36.5 -5t-44 -4.5t-49 -2.5l-13 -45q25 -2 54 -2h26h19h26
q-4 -19 -15.5 -68.5t-16.5 -76.5q-10 -46 -31.5 -129.5t-28.5 -112.5q-7 -28 -18.5 -78.5t-16.5 -70.5q-11 -38 -13 -74t7 -71t41 -56t84 -21q108 0 177 71.5t138 232.5zM111 1087q0 -41 27.5 -68.5t68.5 -27.5t68.5 27.5t27.5 68.5t-27.5 69t-68.5 28t-68.5 -28t-27.5 -69z
M442 1087q0 -41 28 -68.5t69 -27.5t68.5 27.5t27.5 68.5t-27.5 69t-68.5 28t-69 -28t-28 -69z" />
    <glyph glyph-name="ocircumflex" unicode="&#xf4;" horiz-adv-x="921" 
d="M877 506q0 137 -80 231t-219 94q-98 0 -190 -48t-158.5 -125.5t-107 -178.5t-40.5 -203q0 -55 18.5 -106.5t55 -96.5t100.5 -72.5t145 -27.5q91 0 180 50.5t153 127.5t103.5 172t39.5 183zM709 606q0 -60 -10.5 -132t-35.5 -151.5t-60.5 -143.5t-90 -106t-119.5 -42
q-67 0 -110 50.5t-43 121.5q0 57 12 129t39 150.5t63.5 143.5t91.5 107.5t117 42.5q146 0 146 -170zM385 944l279 201l176 -201h69l-161 326h-107l-328 -326h72z" />
    <glyph glyph-name="odieresis" unicode="&#xf6;" horiz-adv-x="921" 
d="M877 506q0 137 -80 231t-219 94q-98 0 -190 -48t-158.5 -125.5t-107 -178.5t-40.5 -203q0 -55 18.5 -106.5t55 -96.5t100.5 -72.5t145 -27.5q91 0 180 50.5t153 127.5t103.5 172t39.5 183zM709 606q0 -60 -10.5 -132t-35.5 -151.5t-60.5 -143.5t-90 -106t-119.5 -42
q-67 0 -110 50.5t-43 121.5q0 57 12 129t39 150.5t63.5 143.5t91.5 107.5t117 42.5q146 0 146 -170zM381 1087q0 -41 27.5 -68.5t68.5 -27.5t68.5 27.5t27.5 68.5t-27.5 69t-68.5 28t-68.5 -28t-27.5 -69zM713 1087q0 -41 27.5 -68.5t68.5 -27.5t68.5 27.5t27.5 68.5
t-27.5 69t-68.5 28t-68.5 -28t-27.5 -69z" />
    <glyph glyph-name="ugrave" unicode="&#xf9;" horiz-adv-x="1013" 
d="M752 -29q-157 0 -142 191l-2 2q-48 -80 -137.5 -135.5t-163.5 -55.5q-86 0 -134.5 38t-49.5 132q0 43 8 84q9 42 29.5 125.5t25.5 108.5t36 133t36 133h-35h-26q-31 0 -62 2l12 47q33 1 61 3t53.5 6.5t40.5 6.5t38 8.5t29.5 8.5t31 10.5t27.5 9.5l10 -6q-7 -23 -18.5 -71
t-18.5 -72q-9 -30 -33 -119t-28 -104q-1 -3 -19 -86t-32 -127q-8 -29 -11 -57t-1 -62t22 -55t57 -21q66 0 136.5 66t121 161.5t72.5 192.5q3 11 8 32t13.5 52.5t13.5 52.5q12 41 31 142q3 10 6 26.5t6 26.5h154q-15 -50 -33.5 -131t-28.5 -117q-13 -55 -34.5 -159
t-30.5 -144q-4 -18 -10 -47.5t-9 -40.5q-3 -14 -4.5 -30.5t0 -37.5t12 -35t29.5 -14q43 0 89.5 51t80.5 119l41 -18q-66 -119 -123.5 -172.5t-144.5 -53.5zM659 944l-219 223q-65 68 -57 107q4 26 26.5 38t47.5 1q15 -5 30 -20t24 -27.5t30 -44.5l151 -252z" />
    <glyph glyph-name="ucircumflex" unicode="&#xfb;" horiz-adv-x="1013" 
d="M752 -29q-157 0 -142 191l-2 2q-48 -80 -137.5 -135.5t-163.5 -55.5q-86 0 -134.5 38t-49.5 132q0 43 8 84q9 42 29.5 125.5t25.5 108.5t36 133t36 133h-35h-26q-31 0 -62 2l12 47q33 1 61 3t53.5 6.5t40.5 6.5t38 8.5t29.5 8.5t31 10.5t27.5 9.5l10 -6q-7 -23 -18.5 -71
t-18.5 -72q-9 -30 -33 -119t-28 -104q-1 -3 -19 -86t-32 -127q-8 -29 -11 -57t-1 -62t22 -55t57 -21q66 0 136.5 66t121 161.5t72.5 192.5q3 11 8 32t13.5 52.5t13.5 52.5q12 41 31 142q3 10 6 26.5t6 26.5h154q-15 -50 -33.5 -131t-28.5 -117q-13 -55 -34.5 -159
t-30.5 -144q-4 -18 -10 -47.5t-9 -40.5q-3 -14 -4.5 -30.5t0 -37.5t12 -35t29.5 -14q43 0 89.5 51t80.5 119l41 -18q-66 -119 -123.5 -172.5t-144.5 -53.5zM657 1145l-278 -201h-72l328 326h106l162 -326h-69z" />
    <glyph glyph-name="udieresis" unicode="&#xfc;" horiz-adv-x="1013" 
d="M752 -29q-157 0 -142 191l-2 2q-48 -80 -137.5 -135.5t-163.5 -55.5q-86 0 -134.5 38t-49.5 132q0 43 8 84q9 42 29.5 125.5t25.5 108.5t36 133t36 133h-35h-26q-31 0 -62 2l12 47q33 1 61 3t53.5 6.5t40.5 6.5t38 8.5t29.5 8.5t31 10.5t27.5 9.5l10 -6q-7 -23 -18.5 -71
t-18.5 -72q-9 -30 -33 -119t-28 -104q-1 -3 -19 -86t-32 -127q-8 -29 -11 -57t-1 -62t22 -55t57 -21q66 0 136.5 66t121 161.5t72.5 192.5q3 11 8 32t13.5 52.5t13.5 52.5q12 41 31 142q3 10 6 26.5t6 26.5h154q-15 -50 -33.5 -131t-28.5 -117q-13 -55 -34.5 -159
t-30.5 -144q-4 -18 -10 -47.5t-9 -40.5q-3 -14 -4.5 -30.5t0 -37.5t12 -35t29.5 -14q43 0 89.5 51t80.5 119l41 -18q-66 -119 -123.5 -172.5t-144.5 -53.5zM381 1087q0 41 27.5 69t68.5 28t68.5 -28t27.5 -69t-27.5 -68.5t-68.5 -27.5t-68.5 27.5t-27.5 68.5zM713 1087
q0 41 27.5 69t68.5 28t68.5 -28t27.5 -69t-27.5 -68.5t-68.5 -27.5t-68.5 27.5t-27.5 68.5z" />
    <glyph glyph-name="oe" unicode="&#x153;" horiz-adv-x="1390" 
d="M709 606q0 -60 -10.5 -132t-35.5 -151.5t-60.5 -143.5t-90 -106t-119.5 -42q-67 0 -110 50.5t-43 121.5q0 57 12 129t39 150.5t63.5 143.5t91.5 107.5t117 42.5q146 0 146 -170zM1030 35q-95 0 -137.5 61t-42.5 162q0 75 18 135q136 0 238.5 23t159.5 62t84.5 84.5
t27.5 96.5q0 73 -55.5 120.5t-140.5 47.5q-97 0 -185 -41t-157 -114q-78 159 -262 159q-98 0 -190 -48t-158.5 -125.5t-107 -178.5t-40.5 -203q0 -55 18.5 -106.5t55 -96.5t100.5 -72.5t145 -27.5q163 0 314 158q38 -75 109 -117.5t167 -42.5q100 0 193 63t151 156l-35 23
q-49 -77 -119.5 -127.5t-150.5 -50.5zM881 446q10 36 16 55t20.5 59t27.5 63.5t34.5 55.5t44 49.5t54 30.5t67.5 13q37 0 62.5 -24.5t25.5 -61.5q0 -95 -92 -167.5t-260 -72.5z" />
    <glyph glyph-name="tonos" unicode="&#x384;" horiz-adv-x="903" 
d="M610 944l219 223q65 69 58 107q-4 26 -26.5 38t-47.5 1q-15 -5 -30 -20t-24 -27.5t-30 -44.5l-151 -252z" />
    <glyph glyph-name="dieresistonos" unicode="&#x385;" horiz-adv-x="866" 
d="M539 944l219 223q66 66 57 107q-5 26 -26.5 37.5t-47.5 1.5q-15 -5 -30 -20t-24 -27.5t-30 -44.5l-151 -252zM326 1087q0 -41 27.5 -68.5t68.5 -27.5t68.5 27.5t27.5 68.5t-27.5 69t-68.5 28t-68.5 -28t-27.5 -69zM774 1087q0 -41 27.5 -68.5t68.5 -27.5t69 27.5t28 68.5
t-28 69t-69 28t-68.5 -28t-27.5 -69z" />
    <glyph glyph-name="Alphatonos" unicode="&#x386;" horiz-adv-x="1214" 
d="M1096 0l18 61l-131 -2q-12 98 -39.5 400t-42.5 444q-21 222 -45 451h-68q-53 -101 -251 -465q-81 -146 -245 -438.5t-218 -391.5l-137 2l-17 -59h98h64h47h45q12 0 65.5 -1t100.5 -1l14 57l-180 2q11 22 100 183q14 26 37.5 71.5t41.5 80.5t32 59h352q3 -39 11 -115
t10 -98q11 -161 12 -181l-160 -2l-16 -57q63 0 132.5 1t82.5 1h55h54q13 0 70 -1t108 -1zM735 510h-321q20 37 67 120t74 132q24 43 52 95t56.5 105.5t38.5 71.5q1 -45 9 -134t10 -124q2 -39 4.5 -99.5t4.5 -102.5t5 -64zM143 944l219 223q65 69 58 107q-4 26 -26.5 38
t-47.5 1q-15 -5 -30 -20t-24 -27.5t-30 -44.5l-151 -252z" />
    <glyph glyph-name="Epsilontonos" unicode="&#x388;" horiz-adv-x="1171" 
d="M1130 395q-14 -44 -40 -125.5t-45 -145t-35 -128.5q-114 7 -233 8.5t-288 -0.5t-233 -2q-187 4 -266 -4l16 57l174 4q15 60 59 247.5t74 307.5q14 56 52.5 215t60.5 244q9 38 28 110t23 87l-176 2l14 59q94 -4 140 -4q94 0 141 2q127 1 229.5 0.5t229.5 1.5t233 8
q-16 -55 -29.5 -115.5t-29 -137.5t-23.5 -115h-51q11 147 -16 196q-31 58 -113.5 81.5t-224.5 21.5l-139 -2q-36 -137 -62.5 -252t-71.5 -291h64q67 0 110.5 12t74 44.5t48.5 71.5t41 110h49q-15 -50 -71 -263q-41 -158 -64 -280h-51q16 126 16 146q-1 63 -44 83
q-37 17 -119 17h-70l-43 -193l-102 -414h208q110 0 184.5 14t136.5 52t104 103t75 167h55zM178 1167l-219 -223l-33 25l152 252q21 32 30 44.5t24 27.5t30 20q25 11 47.5 -1t26.5 -38q7 -38 -58 -107z" />
    <glyph glyph-name="Etatonos" unicode="&#x389;" horiz-adv-x="1482" 
d="M1348 0q-279 6 -564 0l17 57l196 2q20 73 72 281q58 240 70 303q-317 -6 -633 0q-16 -74 -64 -266q-53 -206 -77 -318l194 7l-14 -62h-285q-93 0 -285 -4l15 55l190 4q0 1 26.5 108.5t45.5 180.5q38 149 98 391q5 18 127 531l-190 4l14 57q285 -6 569 0l-16 -65l-195 4
q-20 -77 -69 -281q-37 -144 -66 -276h301h332q10 42 35.5 140.5t32.5 125.5q36 150 67 291l-198 2l18 59q279 -6 561 0l-14 -63l-189 2q-10 -38 -26.5 -114t-22.5 -99q-14 -58 -44.5 -181t-45.5 -188q-16 -66 -75 -298t-82 -331l190 2zM158 1167l-219 -223l-33 25l151 252
q21 32 30 44.5t24 27.5t30 20q25 11 47.5 -1t26.5 -38q8 -39 -57 -107z" />
    <glyph glyph-name="Iotatonos" unicode="&#x38a;" horiz-adv-x="673" 
d="M543 0l16 55l-197 4q65 268 78 318q48 192 66 266l153 627l193 -4l16 65q-287 -6 -567 0l-14 -57l188 -4q-26 -107 -72.5 -307t-52.5 -224q-60 -242 -98 -391q-19 -73 -45.5 -180.5t-26.5 -108.5l-188 4l-17 -63q1 4 284 2t284 -2zM-61 944l219 223q65 68 57 107
q-4 26 -26.5 38t-47.5 1q-15 -5 -30 -20t-24 -27.5t-30 -44.5l-151 -252z" />
    <glyph glyph-name="Omicrontonos" unicode="&#x38c;" horiz-adv-x="1335" 
d="M582 -31q-135 0 -234.5 69t-148.5 181t-49 250q0 149 61.5 306.5t163 285.5t246.5 210.5t299 82.5q135 0 234 -67t147.5 -176.5t48.5 -246.5q0 -119 -38.5 -246t-110.5 -242t-165.5 -206.5t-212 -146t-241.5 -54.5zM1139 967q0 152 -62.5 236.5t-193.5 84.5
q-87 0 -164 -47.5t-132.5 -126t-100 -176.5t-71.5 -203t-41 -200.5t-14 -174.5q0 -145 63 -233t195 -88q73 0 139.5 35t118 94.5t95 138t74 165t52.5 175.5t32 170.5t10 149.5zM199 1167l-219 -223l-33 25l151 252q21 32 30 44.5t24 27.5t30 20q25 11 47.5 -1t26.5 -38
q8 -39 -57 -107z" />
    <glyph glyph-name="Upsilontonos" unicode="&#x38e;" horiz-adv-x="1251" 
d="M1470 1270h-45q-69 0 -116 -22.5t-101 -90.5l-424 -516q-29 -104 -92 -367q-40 -156 -49 -215l217 2l-14 -61q-148 0 -247 3t-130 3q-119 0 -248 -6l15 55l219 4q3 13 33 123t49 189q14 53 59 260q-14 46 -50.5 172.5t-56.5 195.5q-10 32 -28 92t-32 103.5t-28 75.5
l-159 4l14 61q261 -6 295 -6h59q14 0 79 1t122 1l-18 -57l-175 -4q4 -15 36 -138.5t51 -187.5q11 -34 26.5 -84t26 -83t20.5 -58l348 440q25 31 32.5 55t-8 40t-58.5 16h-54l15 61l237 -6l197 6zM137 1167l-219 -223l-33 25l152 252q21 32 30 44.5t24 27.5t30 20
q25 11 47.5 -1t26.5 -38q7 -38 -58 -107z" />
    <glyph glyph-name="Omegatonos" unicode="&#x38f;" horiz-adv-x="1359" 
d="M1290 340h-43q-19 -35 -32.5 -58.5t-31 -44t-28 -32t-32.5 -21t-34.5 -13.5t-45 -6.5t-53 -2.5h-68.5h-27q213 103 353.5 298.5t140.5 422.5q0 141 -61.5 249.5t-167 165t-236.5 56.5q-134 0 -273.5 -71t-245 -181t-172.5 -250.5t-67 -273.5q0 -140 58.5 -246.5
t164.5 -169.5h-41q-158 0 -196.5 25t-45.5 153h-38q0 -50 -7.5 -115t-19.5 -139t-14 -92q132 8 479 12l37 156q-85 25 -126.5 95.5t-41.5 172.5q0 76 16 167.5t45.5 188t76.5 186.5t104 161t133.5 114t160.5 43q59 0 105 -24t72.5 -59.5t44.5 -82.5t24 -88t6 -80
q0 -109 -26.5 -233t-77.5 -243.5t-139 -209t-197 -112.5l-37 -152q348 -4 473 -12q7 19 32 93t49.5 139t49.5 114zM0 944l219 223q65 68 57 107q-4 26 -26 38t-47 1q-15 -5 -30 -20t-24 -27.5t-30 -44.5l-152 -252z" />
    <glyph glyph-name="iotadieresistonos" unicode="&#x390;" horiz-adv-x="561" 
d="M575 281l-40 14q-43 -102 -97.5 -176t-103.5 -74q-65 0 -39 117q16 92 37 182q20 91 67 262q13 45 31.5 123t24.5 102l-11 7q-3 -1 -21.5 -7.5t-23.5 -8t-23 -7.5t-27.5 -8t-28.5 -6.5t-34.5 -6.5t-36.5 -5t-44 -4.5t-49 -2.5l-13 -45q25 -2 54 -2h26h19h26
q-4 -19 -15.5 -68.5t-16.5 -76.5q-10 -46 -31.5 -129.5t-28.5 -112.5q-7 -28 -18.5 -78.5t-16.5 -70.5q-11 -38 -13 -74t7 -71t41 -56t84 -21q108 0 177 71.5t138 232.5zM254 944l219 223q66 66 57 107q-5 26 -26 37.5t-47 1.5q-15 -5 -30 -20t-24 -27.5t-30 -44.5
l-152 -252zM41 1087q0 -41 27.5 -68.5t68.5 -27.5t68.5 27.5t27.5 68.5t-27.5 69t-68.5 28t-68.5 -28t-27.5 -69zM489 1087q0 -41 28 -68.5t69 -27.5t68.5 27.5t27.5 68.5t-27.5 69t-68.5 28t-69 -28t-28 -69z" />
    <glyph glyph-name="Alpha" unicode="&#x391;" horiz-adv-x="1214" 
d="M1096 0l18 61l-131 -2q-12 98 -39.5 400t-42.5 444q-21 222 -45 451h-68q-53 -101 -251 -465q-81 -146 -245 -438.5t-218 -391.5l-137 2l-17 -59h98h64h47h45q12 0 65.5 -1t100.5 -1l14 57l-180 2q11 22 100 183q14 26 37.5 71.5t41.5 80.5t32 59h352q3 -39 11 -115
t10 -98q11 -161 12 -181l-160 -2l-16 -57q63 0 132.5 1t82.5 1h55h54q13 0 70 -1t108 -1zM735 510h-321q20 37 67 120t74 132q24 43 52 95t56.5 105.5t38.5 71.5q1 -45 9 -134t10 -124q2 -39 4.5 -99.5t4.5 -102.5t5 -64z" />
    <glyph glyph-name="Beta" unicode="&#x392;" horiz-adv-x="1171" 
d="M489 0q-27 0 -107 1t-132 1q-44 0 -130 -1t-128 -1l14 57l170 2q63 274 141 603q123 488 152 608h-168l16 55q31 2 103 2q27 0 141 4q169 6 332 6q127 0 217 -65t90 -182q0 -88 -30.5 -157t-84.5 -112.5t-117.5 -70t-140.5 -39.5l-2 -9q42 -4 90 -24.5t93 -53.5
t74.5 -84.5t29.5 -109.5q0 -112 -50.5 -197t-139 -134.5t-197.5 -74t-236 -24.5zM1016 1065q0 57 -20 99t-54.5 65t-74 34t-85.5 11q-20 0 -98 -4h-29q-1 0 -16 -58q-10 -47 -53.5 -226t-61.5 -261h105q166 8 276.5 94.5t110.5 245.5zM905 412q0 97 -53 157t-137 80
q-55 13 -207 13q-86 -361 -146 -601q19 0 59.5 2.5t61.5 2.5q111 0 205.5 39t155.5 119.5t61 187.5z" />
    <glyph glyph-name="Gamma" unicode="&#x393;" horiz-adv-x="1058" 
d="M440 375q7 31 29 117t35 137q72 284 100 403q2 9 58 236l139 2q142 2 224.5 -21.5t113.5 -81.5q20 -36 20 -86q0 -24 -4 -110h51l43 207q14 73 39 161q-55 -3 -356 -8q-59 -2 -174 -2h-172q-47 -2 -144 -2q-47 0 -141 4l-14 -55l190 -6q-4 -21 -16 -63.5t-17 -61.5
q-20 -75 -54.5 -219t-45.5 -187q-54 -218 -164 -680l-190 -4l-15 -55q5 0 298 2t298 -2l15 63l-219 -4q24 98 73 316z" />
    <glyph glyph-name="Delta" unicode="&#x394;" horiz-adv-x="1087" 
d="M477 4l520 -4l9 37q-17 131 -56 338q-91 561 -139 979h-78q-95 -181 -397 -666q-86 -145 -226 -371t-171 -278l-9 -39zM799 59h-82h-76q-20 0 -87 1t-118 1q-34 0 -161 -1t-224 -1q41 70 324 519q34 56 93.5 155.5t104 172.5t80.5 128q10 -91 24.5 -186.5t36 -226
t31.5 -191.5q6 -40 18 -115t21 -137t15 -119z" />
    <glyph glyph-name="Epsilon" unicode="&#x395;" horiz-adv-x="1171" 
d="M1130 395q-14 -44 -40 -125.5t-45 -145t-35 -128.5q-114 7 -233 8.5t-288 -0.5t-233 -2q-187 4 -266 -4l16 57l174 4q15 60 59 247.5t74 307.5q14 56 52.5 215t60.5 244q9 38 28 110t23 87l-176 2l14 59q94 -4 140 -4q94 0 141 2q127 1 229.5 0.5t229.5 1.5t233 8
q-16 -55 -29.5 -115.5t-29 -137.5t-23.5 -115h-51q11 147 -16 196q-31 58 -113.5 81.5t-224.5 21.5l-139 -2q-36 -137 -62.5 -252t-71.5 -291h64q67 0 110.5 12t74 44.5t48.5 71.5t41 110h49q-15 -50 -71 -263q-41 -158 -64 -280h-51q16 126 16 146q-1 63 -44 83
q-37 17 -119 17h-70l-43 -193l-102 -414h208q110 0 184.5 14t136.5 52t104 103t75 167h55z" />
    <glyph glyph-name="Zeta" unicode="&#x396;" horiz-adv-x="1171" 
d="M1092 395q-28 -94 -62 -196q-27 -94 -45 -199q-67 0 -229.5 2t-251.5 2q-312 0 -486 -12l-12 20q57 71 216.5 266t242.5 297q404 501 563 693h-188h-72q-162 0 -233 -31q-53 -24 -88.5 -68.5t-79.5 -134.5q-4 -13 -7.5 -20t-9.5 -16.5t-12 -22.5h-55q65 183 116 356
q35 -2 105 -2h102q192 -4 285 -4l381 4l10 -18q-149 -177 -580 -711q-40 -50 -150.5 -186t-174.5 -216.5t-105 -136.5h162h72h84q91 0 162 9q89 12 141 55t100 151q10 22 17 39t14.5 40.5t13.5 39.5h54z" />
    <glyph glyph-name="Eta" unicode="&#x397;" horiz-adv-x="1482" 
d="M1348 0q-279 6 -564 0l17 57l196 2q20 73 72 281q58 240 70 303q-317 -6 -633 0q-16 -74 -64 -266q-53 -206 -77 -318l194 7l-14 -62h-285q-93 0 -285 -4l15 55l190 4q0 1 26.5 108.5t45.5 180.5q38 149 98 391q5 18 127 531l-190 4l14 57q285 -6 569 0l-16 -65l-195 4
q-20 -77 -69 -281q-37 -144 -66 -276h301h332q10 42 35.5 140.5t32.5 125.5q36 150 67 291l-198 2l18 59q279 -6 561 0l-14 -63l-189 2q-10 -38 -26.5 -114t-22.5 -99q-14 -58 -44.5 -181t-45.5 -188q-16 -66 -75 -298t-82 -331l190 2z" />
    <glyph glyph-name="Theta" unicode="&#x398;" horiz-adv-x="1335" 
d="M1327 664q-33 -131 -105.5 -256t-169.5 -222.5t-220.5 -157t-249.5 -59.5q-84 0 -155.5 27t-123 75t-87.5 114t-52 143t-14 163t24 173q32 132 104.5 256.5t170 220.5t221.5 154.5t250 58.5q84 0 155 -26.5t122 -74t86.5 -112.5t51.5 -141.5t14 -162t-22 -173.5z
M1092 643q-52 -1 -169 2.5t-175 3.5q-44 -1 -118 -3t-131.5 -3t-101.5 0q-39 -181 -35 -315t71 -211.5t194 -77.5q108 0 204 83t161.5 218t99.5 303zM410 713q399 -6 438 -6q164 3 262 6q27 126 29 228t-22.5 181t-84 122.5t-151.5 43.5q-83 0 -157 -43.5t-132 -122.5
t-103.5 -181.5t-78.5 -227.5z" />
    <glyph glyph-name="Iota" unicode="&#x399;" horiz-adv-x="673" 
d="M543 0l16 55l-197 4q65 268 78 318q48 192 66 266l153 627l193 -4l16 65q-287 -6 -567 0l-14 -57l188 -4q-26 -107 -72.5 -307t-52.5 -224q-60 -242 -98 -391q-19 -73 -45.5 -180.5t-26.5 -108.5l-188 4l-17 -63q1 4 284 2t284 -2z" />
    <glyph glyph-name="Kappa" unicode="&#x39a;" horiz-adv-x="1366" 
d="M1266 0q-41 2 -142 2h-155q-56 0 -144.5 -1t-107.5 -1h-41l16 59h174l-360 594l-133 -594l184 4l-14 -63q-51 2 -174 2h-185q-127 0 -207 -2l19 57l184 2q20 78 70 292.5t80 336.5q16 65 64 252.5t71 284.5q8 19 12 45h-190l18 61q63 0 179 -1.5t212 -1.5t183 3l-15 -61
h-194l-156 -582q113 102 301 264q37 32 113 98t125 109q59 54 53.5 82.5t-62.5 28.5h-77l14 61q228 -6 231 -6q12 0 232 6l-14 -61h-25q-42 0 -72 -3t-83 -24t-97 -61l-483 -432l432 -691h178z" />
    <glyph glyph-name="Lambda" unicode="&#x39b;" horiz-adv-x="1214" 
d="M1104 0l14 55l-135 4q-2 15 -13.5 110t-17.5 161q-7 77 -24 274t-27 299q-21 222 -45 451h-68q-53 -101 -251 -465q-81 -146 -245 -438.5t-218 -391.5l-137 -2l-17 -57q82 6 162 6q23 0 93.5 -3t164.5 -3l20 61l-186 -2q26 52 98 183q90 169 283 520q24 43 52 95
t56.5 105.5t38.5 71.5q1 -45 9 -134t10 -124q12 -217 37 -536q11 -161 12 -181l-162 -4l-16 -55q100 6 209 6q35 0 119 -3t184 -3z" />
    <glyph glyph-name="Mu" unicode="&#x39c;" horiz-adv-x="1597" 
d="M1460 0q-98 0 -183.5 2t-100.5 2q-12 0 -57.5 -1t-82.5 -1q-74 0 -125 -2l15 55l182 4l76 303q95 362 127 496q15 63 47 205t47 205q-572 -970 -737 -1268h-39q-4 64 -18 242.5t-21 298.5q-18 300 -25 430q-5 69 -13 173.5t-9 121.5q-45 -179 -154 -631
q-45 -186 -94 -381q-16 -69 -16 -102q0 -56 31 -74.5t96 -18.5h51l-15 -59q-100 0 -169 3t-99 3q-100 0 -209 -6l17 59h45q68 0 104 18t62 75q5 11 9.5 20.5t8 21t6 18.5t6 21t5 20.5t6 25t6.5 26.5q21 92 115 466.5t124 498.5l-192 2l18 59q30 -1 68.5 -2t59.5 -1.5
t36 -0.5h47q11 0 77 2t140 2q10 -275 21 -434q9 -119 45 -563q56 97 174.5 301t214 369.5t186.5 326.5q67 0 125.5 -2t69.5 -2h47q16 0 37.5 0.5t60.5 1.5t70 2l-17 -59l-180 -2q-6 -23 -19.5 -83.5t-21.5 -88.5q-24 -97 -68 -279t-65 -266q-19 -75 -56 -225.5t-67 -268.5
l189 7z" />
    <glyph glyph-name="Nu" unicode="&#x39d;" horiz-adv-x="1404" 
d="M1606 1270h-50q-44 0 -71.5 -6t-53.5 -26t-44.5 -58.5t-34.5 -102.5q-222 -878 -265 -1077h-79q-21 51 -96 240.5t-126 316.5q-25 65 -68 186.5t-69 186.5q-15 37 -59.5 139t-59.5 141q-12 -44 -40 -165t-44 -181q-26 -107 -79 -319.5t-72 -290.5q-14 -60 -14 -102
q0 -56 29.5 -74.5t95.5 -18.5h53l-17 -59l-256 4l-221 -4l17 59h45q68 0 104 18t62 75q13 27 22.5 54.5t14.5 49.5l17.5 77t24.5 105q9 37 67 272.5t89 360.5q34 141 37 154q12 45 -45 45q-85 0 -144 2l17 59q164 -4 217 -4q59 0 203 4q29 -79 76.5 -206.5t70.5 -190.5
q16 -41 59.5 -157.5t69.5 -180.5q19 -50 58 -147t53 -134l184 762q16 69 16 101q0 57 -27.5 74.5t-94.5 17.5h-48l17 61l239 -6l236 6z" />
    <glyph glyph-name="Xi" unicode="&#x39e;" horiz-adv-x="1280" 
d="M1327 981h-41q0 16 -1 43q-1 35 -1 49.5t-4.5 35.5t-6 27t-15.5 16.5t-21.5 11.5t-35 4.5t-45 3t-62.5 -0.5h-23h-446q-54 0 -80 -0.5t-56.5 -3.5t-43 -8t-29.5 -15t-25.5 -24.5t-21.5 -36t-27 -49.5q-5 -11 -8 -17t-8.5 -16.5t-10.5 -19.5h-41q31 62 68.5 200.5
t44.5 157.5q232 -14 440 -14h119q212 0 447 14q-3 -27 -22 -96.5t-33 -140t-11 -121.5zM1012 451h-41q-1 21 -2 57q-1 31 -1.5 44t-5.5 32t-7.5 24.5t-17 15t-24.5 10.5t-39.5 4t-52 3h-71.5h-58q-161 0 -196.5 -17.5t-88.5 -119.5q-6 -11 -9 -17t-8.5 -16.5t-10.5 -19.5
h-41q24 47 52 151.5t32 116.5q4 21 16 70.5t18 87t5 71.5h39q1 -20 2 -53q2 -39 2 -54.5t9.5 -34.5t16 -23t36 -9.5t52.5 -5.5h83h7.5h6.5h8h57q144 0 176 7q43 10 70 51q9 14 66 122h41q-18 -34 -30.5 -71.5t-26 -87.5t-19.5 -70q-3 -17 -17.5 -81t-21.5 -107.5t-6 -79.5z
M1200 379q-24 -46 -51 -122t-53 -160t-33 -103q-259 16 -438 16h-119q-177 0 -449 -16q3 23 17 105t24.5 158t10.5 122h38q6 -129 11 -152q10 -43 47 -55q38 -10 174 -10h446h6q160 0 197.5 21.5t105.5 152.5q5 9 7.5 14t7 13.5t8.5 15.5h43z" />
    <glyph glyph-name="Omicron" unicode="&#x39f;" horiz-adv-x="1335" 
d="M582 -31q-135 0 -234.5 69t-148.5 181t-49 250q0 149 61.5 306.5t163 285.5t246.5 210.5t299 82.5q135 0 234 -67t147.5 -176.5t48.5 -246.5q0 -119 -38.5 -246t-110.5 -242t-165.5 -206.5t-212 -146t-241.5 -54.5zM1139 967q0 152 -62.5 236.5t-193.5 84.5
q-87 0 -164 -47.5t-132.5 -126t-100 -176.5t-71.5 -203t-41 -200.5t-14 -174.5q0 -145 63 -233t195 -88q73 0 139.5 35t118 94.5t95 138t74 165t52.5 175.5t32 170.5t10 149.5z" />
    <glyph glyph-name="Pi" unicode="&#x3a0;" horiz-adv-x="1482" 
d="M1348 0q-200 4 -293 4q-91 0 -291 -4l16 57l215 2q83 316 238 955q11 42 28 123t29 125q-49 1 -108.5 2t-93.5 1.5t-58 0.5h-69h-68q-22 0 -52 -0.5t-84 -1.5t-100 -2q-34 -129 -114 -454.5t-105 -426.5q-17 -67 -41.5 -175.5t-34.5 -146.5l220 7l-19 -66q-7 0 -294 2
t-294 -2l19 57l186 2q91 343 209 838q73 313 86 373l-188 4l18 61q27 0 280 -5t408 -5q90 0 258 2t240 2q132 4 182 4l-14 -61l-191 -2q-13 -52 -46.5 -188t-51.5 -208q-141 -559 -196 -815l190 -2z" />
    <glyph glyph-name="Rho" unicode="&#x3a1;" horiz-adv-x="1058" 
d="M627 602q-69 0 -127 21q-7 -32 -32 -129t-34 -138q-50 -216 -74 -297l183 4l-19 -63q-51 2 -168 2h-174q-116 0 -190 -2l12 55l172 4q28 98 84 332q65 254 119 473q46 179 96 406h-174l16 61q214 -3 234.5 -3t243.5 9q106 5 196.5 -23.5t150.5 -96t60 -162.5
q0 -108 -49 -196t-130.5 -143t-183.5 -84.5t-212 -29.5zM995 1024q0 111 -69 180.5t-181 69.5h-40q-12 0 -48 -4q-29 -113 -67 -266q-12 -57 -41.5 -179t-36.5 -153q52 -10 88 -10q170 0 282.5 105.5t112.5 256.5z" />
    <glyph glyph-name="Sigma" unicode="&#x3a3;" horiz-adv-x="1163" 
d="M1092 424q-61 -176 -78 -231q-29 -78 -53 -179q-2 -9 -6 -13.5t-15.5 -5.5t-23 0t-38 3t-51.5 2l-350 6h-174q-105 0 -268 -12l-23 31q166 196 318 389q38 49 112 147.5t88 116.5q-61 234 -94 340q-55 177 -92 278l33 33l426 -2q31 0 97 1t99 1q34 1 100.5 4t100.5 4
q-18 -86 -67 -419h-58l8 81q5 42 4.5 76t-4 60.5t-14.5 46t-22.5 34t-33 24t-42 15t-53 8.5t-61.5 4t-73 1h-229q7 -20 18.5 -63.5t18.5 -63.5q8 -27 22.5 -73.5t20.5 -68.5q20 -65 56 -174.5t48 -146.5l-118 -148l-248 -321l-115 -146h420q74 0 128 21t93 67t64.5 95
t56.5 129l20 49h52z" />
    <glyph glyph-name="Tau" unicode="&#x3a4;" horiz-adv-x="1214" 
d="M1341 905h-49l15 70q10 45 11.5 78.5t-7 70.5t-39 65.5t-82.5 47.5q-34 12 -75 17.5t-71 6.5t-92 1l-297 -1203h219l-14 -59q-316 6 -639 0l15 59h221l295 1203q-63 0 -94.5 -1t-76 -6.5t-83.5 -17.5q-60 -19 -104.5 -47.5t-71.5 -65t-42.5 -70.5t-27.5 -79l-19 -70h-49
l70 252q2 6 6.5 22t5.5 20l4 16t4 15.5t3.5 13t3 14.5t2.5 14.5t3 17.5t2 18t3 23q15 0 155 -2t246 -2h189q61 0 173.5 1t159.5 1q57 0 134 1t94 1q-32 -97 -47 -174z" />
    <glyph glyph-name="Upsilon" unicode="&#x3a5;" horiz-adv-x="1251" 
d="M1470 1270h-45q-69 0 -116 -22.5t-101 -90.5l-424 -516q-29 -104 -92 -367q-40 -156 -49 -215l217 2l-14 -61q-148 0 -247 3t-130 3q-119 0 -248 -6l15 55l219 4q3 13 33 123t49 189q14 53 59 260q-14 46 -50.5 172.5t-56.5 195.5q-10 32 -28 92t-32 103.5t-28 75.5
l-159 4l14 61q261 -6 295 -6h59q14 0 79 1t122 1l-18 -57l-175 -4q4 -15 36 -138.5t51 -187.5q11 -34 26.5 -84t26 -83t20.5 -58l348 440q25 31 32.5 55t-8 40t-58.5 16h-54l15 61l237 -6l197 6z" />
    <glyph glyph-name="Phi" unicode="&#x3a6;" horiz-adv-x="1552" 
d="M801 59l14 58q112 13 219 48.5t203.5 95.5t169 137.5t115.5 181.5t43 221q0 99 -38 177.5t-105 129t-151 81t-184 40.5l11 41l184 -4l16 65l-290 -2l-277 2l-14 -55l190 -6l-8 -37q-103 -10 -209 -48t-201.5 -102t-170 -145t-118.5 -185t-44 -214q0 -97 38.5 -175
t105.5 -128t149 -80t178 -41l-15 -56l-192 -4l-14 -55l280 4l287 -4l16 61zM1346 829q0 -155 -61 -292t-180 -233t-274 -120q2 8 6.5 24t8 30l6.5 26q10 51 92 373q12 47 31.5 129.5t35 145.5t27.5 106q4 18 16 71t17 74q142 -28 208.5 -116.5t66.5 -217.5zM664 256
q-16 -54 -21 -72q-135 26 -205.5 110.5t-72.5 213.5q0 148 65.5 290.5t186 244t266.5 122.5q-3 -15 -11.5 -47.5t-11.5 -48.5q-25 -131 -49 -221q-10 -43 -33 -131.5t-28 -110.5q-73 -303 -86 -350z" />
    <glyph glyph-name="Chi" unicode="&#x3a7;" horiz-adv-x="1251" 
d="M1139 0l14 57l-149 2q-46 124 -62 174q-39 116 -151 500q154 190 364 424q54 63 101.5 88t113.5 25h60l16 61l-248 -4l-207 4l-14 -61h24q172 0 78 -111q-157 -185 -217 -253.5t-90 -104.5q-6 18 -22.5 71.5t-28.5 90.5q-19 59 -51.5 173t-38.5 134l184 -2l16 63
q-63 0 -175.5 -1.5t-206 -1.5t-181.5 3l-12 -55l166 -6q19 -62 60 -193t61 -194q15 -49 39.5 -135.5t35.5 -124.5q-96 -125 -387 -449q-54 -64 -107 -89.5t-122 -25.5h-47l-14 -59l245 4l207 -4l15 61h-23q-54 0 -83 11t-29.5 36t34.5 64q159 187 231.5 269.5t100.5 115.5
l111 -369l36 -129l-184 2l-16 -61q121 6 233 6q31 0 115.5 -3t204.5 -3z" />
    <glyph glyph-name="Psi" unicode="&#x3a8;" horiz-adv-x="1460" 
d="M1524 1270h157l15 61q-98 -4 -168 -4q-20 0 -53 1.5t-48.5 1t-34.5 -3t-28.5 -10.5t-13.5 -22q-28 -130 -54 -227l-36 -139q-18 -87 -43 -170q-22 -85 -49.5 -145.5t-71 -114.5t-108.5 -85.5t-152 -39.5l22 96q61 295 137 567l58 234h170l14 61l-256 -6l-272 6l-15 -61
h170q-17 -69 -48.5 -206t-49.5 -204q-11 -47 -27 -107t-30 -120q-7 -36 -64 -260q-67 7 -112 29.5t-67.5 55.5t-29 82t-1 100t21.5 118q8 38 19.5 85t19.5 85l32 139l66 264q-136 -4 -172 -4q-68 0 -166 4l-14 -61h157l-82 -348q-37 -147 -48.5 -212.5t-8.5 -118.5t27 -110
q71 -169 342 -180q-31 -90 -60 -242h-204l-15 -59q88 2 225 2h197q129 0 180 -2l15 59h-209l61 242q276 11 432 180q72 80 102.5 155t82.5 286z" />
    <glyph glyph-name="Omega" unicode="&#x3a9;" horiz-adv-x="1359" 
d="M1290 340h-43q-19 -35 -32.5 -58.5t-31 -44t-28 -32t-32.5 -21t-34.5 -13.5t-45 -6.5t-53 -2.5h-68.5h-27q213 103 353.5 298.5t140.5 422.5q0 141 -61.5 249.5t-167 165t-236.5 56.5q-134 0 -273.5 -71t-245 -181t-172.5 -250.5t-67 -273.5q0 -140 58.5 -246.5
t164.5 -169.5h-41q-158 0 -196.5 25t-45.5 153h-38q0 -50 -7.5 -115t-19.5 -139t-14 -92q132 8 479 12l37 156q-85 25 -126.5 95.5t-41.5 172.5q0 76 16 167.5t45.5 188t76.5 186.5t104 161t133.5 114t160.5 43q59 0 105 -24t72.5 -59.5t44.5 -82.5t24 -88t6 -80
q0 -109 -26.5 -233t-77.5 -243.5t-139 -209t-197 -112.5l-37 -152q348 -4 473 -12q7 19 32 93t49.5 139t49.5 114z" />
    <glyph glyph-name="Iotadieresis" unicode="&#x3aa;" horiz-adv-x="673" 
d="M543 0l16 55l-197 4q65 268 78 318q48 192 66 266l153 627l193 -4l16 65q-250 -10 -567 0l-14 -57l188 -4q-26 -107 -72.5 -307t-52.5 -224q-60 -242 -98 -391q-19 -73 -45.5 -180.5t-26.5 -108.5l-188 4l-17 -63q1 4 284 2t284 -2zM332 1524q0 -41 27.5 -69t68.5 -28
t68.5 28t27.5 69t-27.5 68.5t-68.5 27.5t-68.5 -27.5t-27.5 -68.5zM664 1524q0 -41 27.5 -69t68.5 -28t68.5 28t27.5 69t-27.5 68.5t-68.5 27.5t-68.5 -27.5t-27.5 -68.5z" />
    <glyph glyph-name="Upsilondieresis" unicode="&#x3ab;" horiz-adv-x="1251" 
d="M1470 1270h-45q-69 0 -116 -22.5t-101 -90.5l-424 -516q-29 -104 -92 -367q-40 -156 -49 -215l217 2l-14 -61q-148 0 -247 3t-130 3q-119 0 -248 -6l15 55l219 4q3 13 33 123t49 189q14 53 59 260l-76 265q-76 266 -119 374l-159 4l14 61q261 -6 295 -6h59q14 0 79 1
t122 1l-18 -57l-175 -4q30 -121 79 -291t81 -260l348 440q25 31 32.5 55t-8 40t-58.5 16h-54l15 61l237 -6l197 6zM672 1524q0 41 27.5 68.5t68.5 27.5t68.5 -27.5t27.5 -68.5t-27.5 -69t-68.5 -28t-68.5 28t-27.5 69zM1004 1524q0 41 27.5 68.5t68.5 27.5t68.5 -27.5
t27.5 -68.5t-27.5 -69t-68.5 -28t-68.5 28t-27.5 69z" />
    <glyph glyph-name="alphatonos" unicode="&#x3ac;" horiz-adv-x="1032" 
d="M772 -25q-68 0 -108 30.5t-35 78.5q-115 -109 -242 -109q-79 0 -141 36t-94.5 94.5t-45 134t8.5 153.5q18 80 62.5 158.5t105 140.5t139 100.5t158.5 38.5q125 0 188 -81l12 51q8 -3 19 -3.5t28 0.5t25 1q23 0 52.5 1t33.5 1l-43 -172q-12 -48 -33 -142.5t-33 -142.5
q-8 -37 -20.5 -97.5t-17.5 -84.5q-26 -117 40 -117t152 150q3 5 11.5 21.5t11.5 21.5l38 -19q-3 -4 -9 -19.5t-9 -19.5q-55 -104 -116 -154.5t-138 -50.5zM674 348l47 199q22 96 -16.5 159.5t-108.5 63.5q-53 0 -101 -27t-79.5 -65.5t-58.5 -91t-41 -92.5t-25 -80
q-36 -184 -15 -272q26 -107 125 -107q98 0 163 65.5t85 151.5q3 12 12.5 45t12.5 51zM793 1167l-220 -223l-32 25l151 252q21 32 30 44.5t24 27.5t30 20q25 11 47.5 -1t26.5 -38q8 -39 -57 -107z" />
    <glyph glyph-name="epsilontonos" unicode="&#x3ad;" horiz-adv-x="792" 
d="M803 657q0 -50 -24.5 -81t-73.5 -31q-34 0 -56 17.5t-22 41.5q0 20 7 44t17 34q17 13 17.5 33t-13.5 30q-39 29 -98 29q-83 0 -159 -57.5t-76 -138.5q0 -28 9 -49t30.5 -35t43 -22.5t62 -14t70 -8t84.5 -5.5l-17 -61q-33 10 -86 10q-45 0 -90 -12t-86.5 -35.5
t-67.5 -66.5t-26 -99q0 -66 44 -107.5t107 -41.5q92 0 164.5 42.5t147.5 127.5l30 -29q-159 -203 -387 -203q-49 0 -97 11.5t-91.5 34.5t-70.5 65t-27 96q0 93 71.5 165.5t167.5 84.5v4q-57 11 -92 52.5t-35 101.5q0 77 59 135t137 84t156 26q46 0 90.5 -9t86.5 -28t68 -54
t26 -81zM756 1167l-219 -223l-33 25l151 252q21 32 30 44.5t24 27.5t30 20q25 11 47.5 -1t26.5 -38q8 -39 -57 -107z" />
    <glyph glyph-name="etatonos" unicode="&#x3ae;" horiz-adv-x="1052" 
d="M1075 281q-64 -158 -134.5 -231t-180.5 -73q-52 0 -84 21t-41 56t-7 71t13 74q5 20 16.5 70.5t18.5 78.5q6 26 27.5 100t31.5 113q8 29 11 57.5t1 62t-21.5 54.5t-55.5 21q-67 0 -136.5 -66.5t-119 -160.5t-74.5 -193q-3 -11 -8 -32t-13.5 -52.5t-13.5 -52.5
q-3 -14 -14.5 -65.5t-16.5 -76.5q-3 -10 -6 -28.5t-6 -28.5h-156q9 35 30 120t34 132q13 54 35.5 158.5t34.5 154.5q24 87 39 170h-27h-16h-27q-28 0 -53 2l12 45q38 1 72.5 5t54.5 6.5t49.5 10.5t36 10t37 13t31.5 11l10 -7q-13 -52 -43 -186l4 -2q48 80 137 134t162 54
q86 0 133.5 -37.5t48.5 -131.5q2 -30 -8 -84q-9 -41 -31 -124t-28 -110q-36 -150 -41 -182q-26 -117 41 -117q50 0 107 77t93 173zM758 1167l-219 -223l-33 25l151 252q21 32 30 44.5t24 27.5t30 20q25 11 47.5 -1t26.5 -38q8 -39 -57 -107z" />
    <glyph glyph-name="iotatonos" unicode="&#x3af;" horiz-adv-x="561" 
d="M575 281l-40 14q-43 -102 -97.5 -176t-103.5 -74q-65 0 -39 117q16 92 37 182q20 91 67 262q13 45 31.5 123t24.5 102l-11 7q-3 -1 -21.5 -7.5t-23.5 -8t-23 -7.5t-27.5 -8t-28.5 -6.5t-34.5 -6.5t-36.5 -5t-44 -4.5t-49 -2.5l-13 -45q25 -2 54 -2h26h19h26
q-4 -19 -15.5 -68.5t-16.5 -76.5q-10 -46 -31.5 -129.5t-28.5 -112.5q-7 -28 -18.5 -78.5t-16.5 -70.5q-11 -38 -13 -74t7 -71t41 -56t84 -21q108 0 177 71.5t138 232.5zM358 944l220 223q65 68 57 107q-4 26 -26.5 38t-47.5 1q-15 -5 -30 -20t-24 -27.5t-30 -44.5
l-151 -252z" />
    <glyph glyph-name="upsilondieresistonos" unicode="&#x3b0;" horiz-adv-x="829" 
d="M342 -25q80 0 152 39.5t122.5 104t91.5 142t65.5 158.5t37 149.5t12.5 117.5q0 67 -25 106t-71 39q-30 0 -52 -20.5t-22 -50.5q0 -31 16 -50.5t35.5 -27t35.5 -24.5t16 -44q0 -47 -17 -116.5t-49.5 -145.5t-74 -142.5t-98 -109.5t-114.5 -43q-41 0 -64.5 15t-29 41.5
t-3.5 50.5t9 55l123 449q18 60 2.5 95.5t-43 50.5t-63.5 15t-69 -11.5t-57.5 -27t-49 -44t-39.5 -50t-34 -58.5t-27 -55.5t-23 -54.5l49 -16q19 66 75.5 155t98.5 89q40 0 23 -68q-2 -10 -12 -44.5t-41.5 -147.5t-73.5 -265q-9 -32 -12 -63.5t4.5 -67.5t27.5 -63t63 -44.5
t105 -17.5zM487 944l220 223q66 66 57 107q-5 26 -26.5 37.5t-47.5 1.5q-15 -5 -30 -20t-24 -27.5t-30 -44.5l-151 -252zM274 1087q0 -41 28 -68.5t69 -27.5t68.5 27.5t27.5 68.5t-27.5 69t-68.5 28t-69 -28t-28 -69zM723 1087q0 -41 27.5 -68.5t68.5 -27.5t68.5 27.5
t27.5 68.5t-27.5 69t-68.5 28t-68.5 -28t-27.5 -69z" />
    <glyph glyph-name="alpha" unicode="&#x3b1;" horiz-adv-x="1032" 
d="M772 -25q-68 0 -108 30.5t-35 78.5q-115 -109 -242 -109q-79 0 -141 36t-94.5 94.5t-45 134t8.5 153.5q18 80 62.5 158.5t105 140.5t139 100.5t158.5 38.5q125 0 188 -81l12 51q8 -3 19 -3.5t28 0.5t25 1q23 0 52.5 1t33.5 1l-43 -172q-12 -48 -33 -142.5t-33 -142.5
q-8 -37 -20.5 -97.5t-17.5 -84.5q-26 -117 40 -117t152 150q3 5 11.5 21.5t11.5 21.5l38 -19q-3 -4 -9 -19.5t-9 -19.5q-55 -104 -116 -154.5t-138 -50.5zM674 348l47 199q22 96 -16.5 159.5t-108.5 63.5q-53 0 -101 -27t-79.5 -65.5t-58.5 -91t-41 -92.5t-25 -80
q-36 -184 -15 -272q26 -107 125 -107q98 0 163 65.5t85 151.5q3 12 12.5 45t12.5 51z" />
    <glyph glyph-name="beta" unicode="&#x3b2;" horiz-adv-x="921" 
d="M264 985q-9 -40 -30.5 -129t-30.5 -129q-61 -280 -113 -494q-15 -59 -33 -147t-30 -129q-18 -75 -41 -203t-43 -211q46 -9 133 0l20 21q0 5 103 510q22 -48 80 -71t112 -23q125 0 233.5 69t171 181t62.5 237q0 249 -221 299l2 6q134 37 213.5 128t79.5 226
q0 101 -73 164.5t-204 63.5q-136 0 -246.5 -110t-144.5 -259zM688 539q0 -56 -11 -120.5t-36 -133t-59.5 -123.5t-86.5 -90t-112 -35q-68 0 -103 35.5t-34 106t7 110t23 111.5q2 10 3 14l143 606q5 21 10 38.5t18 54t31 64.5t42.5 56.5t59.5 44.5t76 16q58 0 87.5 -41.5
t29.5 -105.5q0 -144 -95.5 -245.5t-244.5 -149.5l6 -60q67 37 127 31q62 -4 90.5 -57t28.5 -127z" />
    <glyph glyph-name="gamma" unicode="&#x3b3;" horiz-adv-x="878" 
d="M967 750q0 36 -28.5 58.5t-66.5 22.5q-51 0 -96 -63q-37 -59 -96 -197q-12 -25 -75.5 -172.5t-63.5 -150.5q0 37 -1.5 77.5t-7.5 99.5t-15.5 112t-27 108.5t-40 95t-57.5 65t-77 25.5q-35 0 -66.5 -15t-58.5 -46.5t-46.5 -59t-41 -74.5t-30.5 -69t-25 -65l53 -19
q3 7 25.5 62.5t38.5 87.5q28 52 50 78t48 26q53 0 91 -176t38 -397q0 -146 -36 -324t-83 -315q54 -14 148 0l20 20q35 90 64.5 267t34.5 294q101 234 145 338q86 191 104 224q12 24 19 30.5t14 6.5q6 -1 23 -20t35 -19q45 0 66.5 26.5t21.5 57.5z" />
    <glyph glyph-name="delta" unicode="&#x3b4;" horiz-adv-x="919" 
d="M930 1219q0 135 -207 135q-83 0 -166 -39.5t-140 -114t-57 -162.5q0 -24 7 -47.5t15 -39.5t26.5 -38.5t27 -32t32 -32t28.5 -27.5q-164 -37 -288 -194t-124 -326q0 -142 79 -236t216 -94q102 0 197 51.5t160.5 133t105 183t39.5 200.5q0 151 -105 256l-129 127
q-125 125 -125 192q0 86 58.5 138.5t140.5 52.5q75 0 72 -39q0 -11 -2 -13q-12 -29 -15 -47q-2 -28 15.5 -47.5t50.5 -19.5q35 0 61.5 22t26.5 58zM698 489q0 -53 -13.5 -114.5t-40.5 -124t-64 -113t-89 -82.5t-110 -32q-133 0 -133 200q0 69 19 157.5t53 176t92 149.5
t127 68l104 -108q33 -33 44 -74.5t11 -102.5z" />
    <glyph glyph-name="epsilon" unicode="&#x3b5;" horiz-adv-x="792" 
d="M803 657q0 -50 -24.5 -81t-73.5 -31q-34 0 -56 17.5t-22 41.5q0 20 7 44t17 34q17 13 17.5 33t-13.5 30q-39 29 -98 29q-83 0 -159 -57.5t-76 -138.5q0 -28 9 -49t30.5 -35t43 -22.5t62 -14t70 -8t84.5 -5.5l-17 -61q-33 10 -86 10q-45 0 -90 -12t-86.5 -35.5
t-67.5 -66.5t-26 -99q0 -66 44 -107.5t107 -41.5q92 0 164.5 42.5t147.5 127.5l30 -29q-159 -203 -387 -203q-49 0 -97 11.5t-91.5 34.5t-70.5 65t-27 96q0 93 71.5 165.5t167.5 84.5v4q-57 11 -92 52.5t-35 101.5q0 77 59 135t137 84t156 26q46 0 90.5 -9t86.5 -28t68 -54
t26 -81z" />
    <glyph glyph-name="zeta" unicode="&#x3b6;" horiz-adv-x="577" 
d="M920 1343q0 41 -29 41q-14 -2 -53 -26t-74 -25q-47 -8 -94 -8q-186 0 -357 59l-139 -266l55 -18l74 125q45 -18 120 -29.5t146 -11.5q47 0 82 6q-130 -112 -212.5 -193.5t-150 -169.5t-98 -171t-30.5 -173q0 -140 80 -307q40 -87 58 -127.5t39 -105t21 -103.5
q0 -83 -37.5 -127.5t-138.5 -44.5q-19 0 -42 3.5t-43 14t-17 25.5q0 1 0.5 3t1.5 5.5t2 6.5q2 4 6.5 11.5t6.5 11t5 9.5t4.5 11t3 11.5t1.5 14.5q4 34 -19 57t-57 23q-39 0 -63.5 -30t-24.5 -68q0 -20 11.5 -45t36.5 -52.5t74.5 -46t114.5 -18.5q150 0 242 97.5t92 240.5
q0 18 -5.5 42.5t-12 44.5t-20.5 53t-22.5 50.5t-27 56.5t-24.5 52q-62 130 -62 246q0 169 118.5 349.5t354.5 389.5q2 2 25.5 19t37 28.5t27 28.5t13.5 30z" />
    <glyph glyph-name="eta" unicode="&#x3b7;" horiz-adv-x="1052" 
d="M1075 281q-64 -158 -134.5 -231t-180.5 -73q-52 0 -84 21t-41 56t-7 71t13 74q5 20 16.5 70.5t18.5 78.5q6 26 27.5 100t31.5 113q8 29 11 57.5t1 62t-21.5 54.5t-55.5 21q-67 0 -136.5 -66.5t-119 -160.5t-74.5 -193q-3 -11 -8 -32t-13.5 -52.5t-13.5 -52.5
q-3 -14 -14.5 -65.5t-16.5 -76.5q-3 -10 -6 -28.5t-6 -28.5h-156q9 35 30 120t34 132q13 54 35.5 158.5t34.5 154.5q24 87 39 170h-27h-16h-27q-28 0 -53 2l12 45q38 1 72.5 5t54.5 6.5t49.5 10.5t36 10t37 13t31.5 11l10 -7q-13 -52 -43 -186l4 -2q48 80 137 134t162 54
q86 0 133.5 -37.5t48.5 -131.5q2 -30 -8 -84q-9 -41 -31 -124t-28 -110q-36 -150 -41 -182q-26 -117 41 -117q50 0 107 77t93 173z" />
    <glyph glyph-name="theta" unicode="&#x3b8;" horiz-adv-x="909" 
d="M375 -29q88 2 169.5 51.5t142.5 129.5t111.5 180.5t82.5 207.5t49.5 207t17.5 181q0 185 -60.5 294t-193.5 109q-79 0 -152 -37.5t-130 -101t-106 -146.5t-83.5 -175.5t-59 -187t-36.5 -180.5t-12 -157q0 -375 260 -375zM768 731q-20 0 -73 -1t-79 -1h-69h-53h-74
q-45 0 -74 2q15 68 35 134.5t52 144t67.5 135.5t84 96.5t99.5 38.5q43 0 73.5 -33t43 -79t12.5 -99q0 -146 -45 -338zM549 670l205 2q-10 -42 -16.5 -68.5t-22 -81.5t-28.5 -94.5t-34 -94.5t-41 -94.5t-47.5 -82t-55.5 -69t-63 -43.5t-71 -17q-68 0 -96.5 59.5t-28.5 146.5
q0 68 15.5 155t27.5 134t41 150z" />
    <glyph glyph-name="iota" unicode="&#x3b9;" horiz-adv-x="561" 
d="M575 281l-40 14q-43 -102 -97.5 -176t-103.5 -74q-65 0 -39 117q16 92 37 182q20 91 67 262q13 45 31.5 123t24.5 102l-11 7q-3 -1 -21.5 -7.5t-23.5 -8t-23 -7.5t-27.5 -8t-28.5 -6.5t-34.5 -6.5t-36.5 -5t-44 -4.5t-49 -2.5l-13 -45q25 -2 54 -2h26h19h26
q-4 -19 -15.5 -68.5t-16.5 -76.5q-10 -46 -31.5 -129.5t-28.5 -112.5q-7 -28 -18.5 -78.5t-16.5 -70.5q-11 -38 -13 -74t7 -71t41 -56t84 -21q108 0 177 71.5t138 232.5z" />
    <glyph glyph-name="kappa" unicode="&#x3ba;" horiz-adv-x="923" 
d="M645 627q-61 -109 -145 -140q7 -1 20.5 -4t20.5 -4q149 -45 149 -157q0 -37 -15.5 -106t-15.5 -101q0 -58 48 -58q26 0 64.5 50.5t64 100t41.5 87.5l43 -14q-122 -304 -295 -304q-62 0 -100 33t-38 94q0 28 26 115.5t26 128.5q0 37 -19 61t-54.5 33.5t-62 12t-65.5 2.5
l-10 -43q-16 -68 -51.5 -216t-45.5 -198h-153q56 212 82 344q6 26 24.5 113t28.5 131q21 76 31 145h-35h-27q-30 0 -61 2l10 45q46 2 83.5 6t69.5 11t48.5 11.5t46.5 15t37 12.5l10 -7q-3 -13 -19.5 -88t-29.5 -123q-21 -88 -27 -106q133 -3 187 61q19 21 35 46.5t36 64
t27 51.5q62 105 166 105q48 0 78 -27.5t30 -85.5q0 -46 -26 -72t-64 -26q-74 0 -74 55q0 17 5.5 30t7.5 25q3 23 -21 23q-23 0 -39 -31q-10 -20 -31 -61t-22 -43z" />
    <glyph glyph-name="lambda" unicode="&#x3bb;" horiz-adv-x="882" 
d="M662 0l249 1016q12 53 12 103t-19.5 94t-51 76.5t-83 51.5t-116.5 19q-66 0 -132.5 -29t-114 -83.5t-52.5 -119.5q-5 -38 12.5 -68t53.5 -34q43 -4 70 19.5t32 62.5q4 48 -30 59q-19 4 -26.5 13.5t-4.5 21t9.5 22.5t14.5 19q23 27 69.5 43.5t86.5 16.5q85 0 123.5 -66
t7.5 -193l-121 -466q-14 90 -70.5 143t-146.5 53q-71 0 -131 -27.5t-107 -94t-63 -165.5q-14 -80 -38.5 -255.5t-41.5 -266.5q-24 -135 -44 -180q-37 -82 -113 -82q-29 0 -47 15.5t-5 39.5q25 45 27 72q4 34 -19.5 58t-56.5 24q-39 0 -63.5 -31.5t-24.5 -70.5q0 -16 7.5 -38
t26 -52t61 -50t102.5 -20q246 0 329 493q25 177 58 344q7 39 19 74t31.5 69t51 54.5t70.5 20.5q58 0 96 -53.5t44.5 -137.5t-15.5 -186l-80 -328h154z" />
    <glyph glyph-name="nu" unicode="&#x3bd;" horiz-adv-x="835" 
d="M582 264q106 91 177.5 201t71.5 223q0 62 -27 102.5t-79 40.5q-45 0 -78 -27t-33 -69q0 -38 31 -65q12 -8 28 -16.5t20.5 -11t10 -10t6.5 -17t1 -27.5q0 -65 -56 -154q-26 -44 -90 -108q-80 -80 -190 -162q-11 71 -39 133q-22 55 -32.5 85.5t-20 75t-9.5 87.5
q0 77 40 136.5t116 129.5l-35 31q-67 -42 -127.5 -98.5t-107.5 -134.5t-47 -148q0 -20 5 -45t10 -41t16 -47t14 -41l41 -107q3 -7 10.5 -27t10 -27t7.5 -23.5t5 -26.5t-0.5 -24.5t-5.5 -28.5t-13 -29l47 -21q42 70 150 152q101 81 172 139z" />
    <glyph glyph-name="xi" unicode="&#x3be;" horiz-adv-x="618" 
d="M887 1343q0 41 -29 41q-14 -2 -53 -26t-74 -25q-47 -8 -94 -8q-165 0 -336 59l-139 -266l55 -18l74 125q66 -24 151 -35.5t150 -1.5q-2 0 -25.5 -14t-67 -45t-81.5 -66q-54 -47 -84.5 -102.5t-30.5 -106.5q0 -74 66 -129q-96 -33 -151.5 -103.5t-55.5 -166.5
q0 -57 18 -119q7 -21 52.5 -145.5t69.5 -210t24 -140.5q0 -72 -44.5 -122t-131.5 -50q-19 0 -42 3.5t-43.5 14t-17.5 25.5q0 1 0.5 3t1.5 5.5t2 6.5q2 4 6.5 11.5t6.5 11t5 9.5t4.5 11t3 11.5t1.5 14.5q4 34 -19 57t-57 23q-39 0 -63.5 -30t-24.5 -68q0 -20 12 -45
t36.5 -52.5t74.5 -46t115 -18.5q149 0 236 96.5t87 241.5q0 60 -36.5 167t-73.5 207.5t-37 143.5q0 153 92 205q80 47 242 24l18 56q-54 0 -92 3.5t-71 13.5t-49.5 30.5t-16.5 50.5q0 58 64 139.5t136 143t133 100.5q33 19 68 50.5t35 55.5z" />
    <glyph glyph-name="omicron" unicode="&#x3bf;" horiz-adv-x="921" 
d="M877 506q0 137 -80 231t-219 94q-98 0 -190 -48t-158.5 -125.5t-107 -178.5t-40.5 -203q0 -55 18.5 -106.5t55 -96.5t100.5 -72.5t145 -27.5q91 0 180 50.5t153 127.5t103.5 172t39.5 183zM709 606q0 -60 -10.5 -132t-35.5 -151.5t-60.5 -143.5t-90 -106t-119.5 -42
q-67 0 -110 50.5t-43 121.5q0 57 12 129t39 150.5t63.5 143.5t91.5 107.5t117 42.5q146 0 146 -170z" />
    <glyph glyph-name="pi" unicode="&#x3c0;" horiz-adv-x="1050" 
d="M1073 743l12 60q-36 -1 -95 -1t-93 -1l-289 -6l-198 6q-13 0 -67 1t-87 1q-31 0 -85 1t-69 1l-16 -60l193 -2q-28 -115 -72.5 -335t-63.5 -304q-12 -53 -27 -65t-38 12q-3 3 -15 18.5t-23.5 25t-23.5 9.5q-33 0 -52 -17t-19 -38q0 -72 82 -72q53 0 100.5 23.5t80 58.5
t59 80t41 84t22.5 74q46 205 80 340q8 28 15.5 61.5t8.5 36.5h225l97 -2q-14 -46 -43 -172q-25 -88 -95 -362q0 -1 -4.5 -20t-6 -28t-4.5 -30.5t-1.5 -34.5t3.5 -32t10 -30.5t19 -23.5t30 -17.5t43 -5.5q107 0 180 73.5t135 230.5l-41 14q-35 -94 -91 -172t-99 -78
q-33 0 -33 47q0 12 2.5 26t5.5 27t4 17q4 19 18 79.5t23 102.5q7 25 26.5 102t42.5 169.5t31 123.5z" />
    <glyph glyph-name="rho" unicode="&#x3c1;" horiz-adv-x="917" 
d="M874 506q0 -87 -37.5 -182.5t-98.5 -172.5t-145.5 -127.5t-170.5 -50.5q-157 0 -205 121q-37 -176 -37 -250q0 -39 4.5 -76t16.5 -80.5t39 -69.5t67 -26q54 0 112.5 38t104.5 96l37 -27q-59 -81 -140.5 -137t-168.5 -56q-55 0 -98 27t-66 66t-37.5 90t-19 90t-4.5 74
q0 69 9 151.5t30 177.5t51.5 186t76.5 175.5t102 148t132 101.5t162 38q131 0 207.5 -94t76.5 -231zM715 606q0 170 -140 170q-74 0 -136 -63.5t-97.5 -156.5t-54.5 -186.5t-19 -166.5q0 -71 41 -121.5t105 -50.5q63 0 115.5 42t85.5 106t56.5 143.5t33.5 151.5t10 132z" />
    <glyph glyph-name="sigma1" unicode="&#x3c2;" horiz-adv-x="737" 
d="M635 545q-32 0 -53 22.5t-21 44.5q0 13 10 34t21 32q17 13 19 34t-11 33q-38 31 -100 31q-53 0 -105 -18.5t-90.5 -60t-38.5 -95.5q0 -43 34 -72.5t106 -66.5q2 -1 25.5 -13.5t29 -15.5t27.5 -16t29.5 -19t25.5 -20t25 -23.5t19.5 -25t17 -29.5t9 -31.5t4.5 -36.5
q0 -64 -33 -116t-86.5 -82t-114 -46t-120.5 -16q-76 0 -149 33l30 45q52 -22 125 -22q40 0 83 12.5t78.5 43.5t35.5 73q0 32 -29 58t-86 54q-107 55 -143 82q-88 66 -88 152q0 98 55.5 173.5t142.5 113.5t187 38q58 0 108.5 -17.5t86.5 -59t36 -99.5q0 -50 -25 -79t-77 -29z
" />
    <glyph glyph-name="sigma" unicode="&#x3c3;" horiz-adv-x="921" 
d="M698 584q0 -75 -17.5 -165t-52.5 -179.5t-97.5 -149t-141.5 -59.5q-66 0 -108.5 49.5t-42.5 118.5q0 72 20 162t57 179t100.5 149.5t139.5 60.5q143 0 143 -166zM625 801q-36 4 -56 4q-128 0 -241 -76.5t-178.5 -200t-65.5 -258.5q0 -52 18 -103t54 -95t98.5 -71.5
t142.5 -27.5q118 0 227.5 80t173.5 198.5t64 233.5q0 163 -102 252h51q5 0 42 -2t114 -2l4 74q-64 0 -138 -3t-110 -3h-98z" />
    <glyph glyph-name="tau" unicode="&#x3c4;" horiz-adv-x="638" 
d="M688 737l23 72q-46 0 -268 -4.5t-339 -1.5l-14 -64h205q-14 -56 -50.5 -208t-45.5 -183q-27 -112 -37 -149q-10 -40 -12 -74.5t6.5 -70t40 -56.5t84.5 -21q57 0 101.5 18.5t81.5 60t66.5 93t65.5 132.5l-41 14q-43 -102 -97.5 -176t-103.5 -74q-65 0 -39 117
q3 13 16.5 75.5t22.5 106.5q7 25 23.5 93t38.5 158t35 142h237z" />
    <glyph glyph-name="upsilon" unicode="&#x3c5;" horiz-adv-x="829" 
d="M342 -25q80 0 152 39.5t122.5 104t91.5 142t65.5 158.5t37 149.5t12.5 117.5q0 67 -25 106t-71 39q-30 0 -52 -20.5t-22 -50.5q0 -31 16 -50.5t35.5 -27t35.5 -24.5t16 -44q0 -47 -17 -116.5t-49.5 -145.5t-74 -142.5t-98 -109.5t-114.5 -43q-41 0 -64.5 15t-29 41.5
t-3.5 50.5t9 55l123 449q18 60 2.5 95.5t-43 50.5t-63.5 15t-69 -11.5t-57.5 -27t-49 -44t-39.5 -50t-34 -58.5t-27 -55.5t-23 -54.5l49 -16q19 66 75.5 155t98.5 89q40 0 23 -68q-2 -10 -12 -44.5t-41.5 -147.5t-73.5 -265q-9 -32 -12 -63.5t4.5 -67.5t27.5 -63t63 -44.5
t105 -17.5z" />
    <glyph glyph-name="phi" unicode="&#x3c6;" horiz-adv-x="1134" 
d="M547 825l2 -53q-67 -9 -125 -66.5t-94.5 -137t-57 -162.5t-20.5 -150q0 -40 8 -76t26 -70t52 -55.5t82 -25.5l135 555q27 112 92 178.5t156 66.5q71 0 127 -31.5t88.5 -82.5t49.5 -110t17 -120q0 -134 -73 -251.5t-193.5 -187.5t-255.5 -73q-85 -398 -98 -428l-21 -20
q-94 -14 -147 0q14 69 32 142t41.5 161t37.5 143q-148 8 -236 96t-88 230q0 131 56 246.5t163.5 193t243.5 88.5zM913 530q0 45 -5.5 85t-18 76t-36 57.5t-56.5 21.5q-52 0 -82 -137l-137 -604q87 8 154 58t105 124.5t57 155.5t19 163z" />
    <glyph glyph-name="chi" unicode="&#x3c7;" horiz-adv-x="901" 
d="M86 518l51 -18q18 36 38 70.5t47.5 75t56 65t51.5 24.5q19 0 29 -36.5t22 -149.5q15 -161 18 -176l-182 -219q-66 -79 -106 -39q-30 30 -56 30q-38 0 -62 -21t-24 -63t24 -63t64 -21q24 0 45.5 7.5t44.5 27t34 30t36 39.5t29 34l160 186q13 -157 18 -186
q12 -69 41.5 -103.5t97.5 -34.5q47 0 94.5 30.5t87 80t70.5 103t53 108.5l-49 12q-16 -35 -36 -71.5t-47.5 -79.5t-56 -70t-50.5 -27q-23 0 -32 24.5t-15 98.5q-18 131 -27 277l158 199q34 43 84 26q23 -10 45 -10q33 0 61.5 22.5t28.5 55.5q0 34 -23 54.5t-55 20.5
q-59 0 -168 -120q-56 -60 -137 -162q-13 146 -48.5 214t-115.5 68q-42 0 -88.5 -31t-86 -80.5t-70.5 -100.5t-54 -101z" />
    <glyph glyph-name="psi" unicode="&#x3c8;" horiz-adv-x="1132" 
d="M625 33q76 9 145.5 58t117.5 116.5t84 145t53 145.5t17 116q0 27 -16 44t-35 24.5t-35 27t-16 50.5q0 30 22 50.5t52 20.5q46 0 71 -39t25 -106q0 -43 -6.5 -96t-23.5 -119t-42 -130t-65 -127t-90 -112.5t-120 -84t-151 -42.5q-17 -70 -40.5 -167.5t-35 -146t-18.5 -89.5
l131 -2l-12 -51q-87 0 -153 3.5t-116.5 3.5t-154.5 -7l16 55l127 -2q12 38 28 106t36.5 158.5t32.5 138.5q-165 12 -235.5 102.5t-35.5 237.5l105 373q23 68 -23 68q-42 0 -98.5 -89t-75.5 -155l-49 16q15 36 23 54.5t27 55.5t34 58.5t39.5 50t49 44t57.5 27t69 11.5
q57 0 88 -39t8 -122l-104 -377q-29 -106 18 -172t121 -80l82 352q13 54 35 145.5t36 151t17 74.5q23 84 35 145h-25h-10h-20q-27 0 -52 2l11 45q46 2 81.5 5.5t66 11t44.5 11.5t43.5 14.5t36.5 13.5l8 -6q-46 -194 -55 -226q-4 -16 -19.5 -79.5t-37 -154t-37.5 -153.5z" />
    <glyph glyph-name="omega" unicode="&#x3c9;" horiz-adv-x="1298" 
d="M739 295q-22 -105 -86 -176q18 -37 56 -59.5t77 -22.5q66 0 121.5 38t91 96.5t61 130.5t36 138.5t10.5 122.5q0 192 -176 211l10 55q147 -10 231 -99.5t84 -225.5q0 -92 -39.5 -188t-104.5 -172t-154.5 -124.5t-182.5 -48.5q-45 0 -92.5 27t-71.5 70q-1 -1 -4 -3.5
t-4 -3.5q-108 -90 -237 -90q-83 0 -148 51t-98 131t-33 171q0 124 73 239t194.5 188t256.5 78l-14 -55q-73 -3 -134 -45.5t-100.5 -106t-67.5 -141.5t-40 -150.5t-12 -135.5q0 -69 40.5 -116.5t102.5 -47.5q25 0 47.5 7t41 24.5t32.5 32.5t27.5 45t21.5 46.5t18 53.5
t13.5 49t12 50.5t9.5 41.5q29 104 43 178h-22h-8h-17q-24 0 -49 2l10 45q56 2 98.5 8.5t61 12.5t48 18t44.5 17l8 -7q-8 -25 -22 -85t-17 -72q-5 -22 -13.5 -64t-12.5 -57q-1 -7 -21 -82z" />
    <glyph glyph-name="iotadieresis" unicode="&#x3ca;" horiz-adv-x="561" 
d="M575 281l-40 14q-43 -102 -97.5 -176t-103.5 -74q-65 0 -39 117q16 92 37 182q20 91 67 262q13 45 31.5 123t24.5 102l-11 7q-3 -1 -21.5 -7.5t-23.5 -8t-23 -7.5t-27.5 -8t-28.5 -6.5t-34.5 -6.5t-36.5 -5t-44 -4.5t-49 -2.5l-13 -45q25 -2 54 -2h26h19h26
q-4 -19 -15.5 -68.5t-16.5 -76.5q-10 -46 -31.5 -129.5t-28.5 -112.5q-7 -28 -18.5 -78.5t-16.5 -70.5q-11 -38 -13 -74t7 -71t41 -56t84 -21q108 0 177 71.5t138 232.5zM111 1087q0 -41 27.5 -68.5t68.5 -27.5t68.5 27.5t27.5 68.5t-27.5 69t-68.5 28t-68.5 -28t-27.5 -69z
M442 1087q0 -41 28 -68.5t69 -27.5t68.5 27.5t27.5 68.5t-27.5 69t-68.5 28t-69 -28t-28 -69z" />
    <glyph glyph-name="upsilondieresis" unicode="&#x3cb;" horiz-adv-x="829" 
d="M342 -25q80 0 152 39.5t122.5 104t91.5 142t65.5 158.5t37 149.5t12.5 117.5q0 67 -25 106t-71 39q-30 0 -52 -20.5t-22 -50.5q0 -31 16 -50.5t35.5 -27t35.5 -24.5t16 -44q0 -47 -17 -116.5t-49.5 -145.5t-74 -142.5t-98 -109.5t-114.5 -43q-41 0 -64.5 15t-29 41.5
t-3.5 50.5t9 55l123 449q18 60 2.5 95.5t-43 50.5t-63.5 15t-69 -11.5t-57.5 -27t-49 -44t-39.5 -50t-34 -58.5t-27 -55.5t-23 -54.5l49 -16q19 66 75.5 155t98.5 89q40 0 23 -68q-2 -10 -12 -44.5t-41.5 -147.5t-73.5 -265q-9 -32 -12 -63.5t4.5 -67.5t27.5 -63t63 -44.5
t105 -17.5zM322 1087q0 -41 27.5 -68.5t68.5 -27.5t68.5 27.5t27.5 68.5t-27.5 69t-68.5 28t-68.5 -28t-27.5 -69zM653 1087q0 -41 28 -68.5t69 -27.5t68.5 27.5t27.5 68.5t-27.5 69t-68.5 28t-69 -28t-28 -69z" />
    <glyph glyph-name="omicrontonos" unicode="&#x3cc;" horiz-adv-x="921" 
d="M877 506q0 137 -80 231t-219 94q-98 0 -190 -48t-158.5 -125.5t-107 -178.5t-40.5 -203q0 -55 18.5 -106.5t55 -96.5t100.5 -72.5t145 -27.5q91 0 180 50.5t153 127.5t103.5 172t39.5 183zM709 606q0 -60 -10.5 -132t-35.5 -151.5t-60.5 -143.5t-90 -106t-119.5 -42
q-67 0 -110 50.5t-43 121.5q0 57 12 129t39 150.5t63.5 143.5t91.5 107.5t117 42.5q146 0 146 -170zM610 944l219 223q65 69 58 107q-4 26 -26.5 38t-47.5 1q-15 -5 -30 -20t-24 -27.5t-30 -44.5l-151 -252z" />
    <glyph glyph-name="upsilontonos" unicode="&#x3cd;" horiz-adv-x="829" 
d="M342 -25q80 0 152 39.5t122.5 104t91.5 142t65.5 158.5t37 149.5t12.5 117.5q0 67 -25 106t-71 39q-30 0 -52 -20.5t-22 -50.5q0 -31 16 -50.5t35.5 -27t35.5 -24.5t16 -44q0 -47 -17 -116.5t-49.5 -145.5t-74 -142.5t-98 -109.5t-114.5 -43q-41 0 -64.5 15t-29 41.5
t-3.5 50.5t9 55l123 449q18 60 2.5 95.5t-43 50.5t-63.5 15t-69 -11.5t-57.5 -27t-49 -44t-39.5 -50t-34 -58.5t-27 -55.5t-23 -54.5l49 -16q19 66 75.5 155t98.5 89q40 0 23 -68q-2 -10 -12 -44.5t-41.5 -147.5t-73.5 -265q-9 -32 -12 -63.5t4.5 -67.5t27.5 -63t63 -44.5
t105 -17.5zM528 944l220 223q65 68 57 107q-4 26 -26.5 38t-47.5 1q-15 -5 -30 -20t-24 -27.5t-30 -44.5l-151 -252z" />
    <glyph glyph-name="omegatonos" unicode="&#x3ce;" horiz-adv-x="1298" 
d="M952 1167l-219 -223l-33 25l152 252q21 32 30 44.5t24 27.5t30 20q25 11 47.5 -1t26.5 -38q7 -38 -58 -107zM739 295q-22 -105 -86 -176q18 -37 56 -59.5t77 -22.5q66 0 121.5 38t91 96.5t61 130.5t36 138.5t10.5 122.5q0 192 -176 211l10 55q147 -10 231 -99.5
t84 -225.5q0 -92 -39.5 -188t-104.5 -172t-154.5 -124.5t-182.5 -48.5q-45 0 -92.5 27t-71.5 70q-1 -1 -4 -3.5t-4 -3.5q-108 -90 -237 -90q-83 0 -148 51t-98 131t-33 171q0 124 73 239t194.5 188t256.5 78l-14 -55q-73 -3 -134 -45.5t-100.5 -106t-67.5 -141.5t-40 -150.5
t-12 -135.5q0 -69 40.5 -116.5t102.5 -47.5q25 0 47.5 7t41 24.5t32.5 32.5t27.5 45t21.5 46.5t18 53.5t13.5 49t12 50.5t9.5 41.5q29 104 43 178h-22h-8h-17q-24 0 -49 2l10 45q56 2 98.5 8.5t61 12.5t48 18t44.5 17l8 -7q-8 -25 -22 -85t-17 -72q-5 -22 -13.5 -64
t-12.5 -57q-1 -7 -21 -82z" />
    <glyph glyph-name="endash" unicode="&#x2013;" horiz-adv-x="1003" 
d="M918 387l30 115q-55 0 -235.5 -1.5t-332 -1.5t-235.5 3l-30 -115q39 2 166 2h223q86 0 230 -1t184 -1z" />
    <glyph glyph-name="emdash" unicode="&#x2014;" horiz-adv-x="2007" 
d="M1919 387l31 115q-91 0 -406 -2t-504 -2h-342q-279 0 -553 4l-30 -115q66 2 239 2h992q121 0 315.5 -1t257.5 -1z" />
    <glyph glyph-name="afii00208" unicode="&#x2015;" horiz-adv-x="2007" 
d="M1919 387l31 115q-91 0 -406 -2t-504 -2h-342q-279 0 -553 4l-30 -115q66 2 239 2h992q121 0 315.5 -1t257.5 -1z" />
    <glyph glyph-name="quoteleft" unicode="&#x2018;" horiz-adv-x="464" 
d="M565 1305l-26 36q-48 -27 -93 -61t-88.5 -77.5t-69.5 -95.5t-26 -103q0 -52 34 -89.5t93 -37.5q48 0 80.5 36.5t32.5 85.5q0 32 -17.5 53t-50.5 21q-21 0 -39 -16q-11 -12 -26 -6.5t-9 28.5q12 50 59 101.5t146 124.5z" />
    <glyph glyph-name="quoteright" unicode="&#x2019;" horiz-adv-x="464" 
d="M262 913l29 -36q66 38 123.5 85.5t104 116.5t46.5 135q0 52 -34 89.5t-93 37.5q-48 0 -79 -36.5t-31 -85.5q0 -32 16 -53t49 -21q23 0 39 16q12 12 26.5 6t8.5 -30q-10 -49 -57.5 -100t-147.5 -124z" />
    <glyph glyph-name="quotedblleft" unicode="&#x201c;" horiz-adv-x="759" 
d="M565 1305l-26 36q-48 -27 -93 -61t-88.5 -77.5t-69.5 -95.5t-26 -103q0 -52 34 -89.5t93 -37.5q48 0 80.5 36.5t32.5 85.5q0 32 -17.5 53t-50.5 21q-21 0 -39 -16q-11 -12 -26 -6.5t-9 28.5q12 50 59 101.5t146 124.5zM879 1305l-27 36q-48 -27 -93 -61t-88.5 -77.5
t-69.5 -95.5t-26 -103q0 -52 34 -89.5t93 -37.5q48 0 80.5 36.5t32.5 85.5q0 32 -17 53t-50 21q-21 0 -39 -16q-11 -12 -26 -6.5t-9 28.5q12 50 59 101.5t146 124.5z" />
    <glyph glyph-name="quotedblright" unicode="&#x201d;" horiz-adv-x="759" 
d="M575 913l29 -36q47 27 92 61.5t88 78t69 95.5t26 102q0 52 -34 89.5t-93 37.5q-48 0 -79.5 -36.5t-31.5 -85.5q0 -32 16.5 -53t49.5 -21q22 0 38 16q12 12 26.5 6t8.5 -30q-10 -49 -57.5 -100t-147.5 -124zM262 913l29 -36q66 38 123.5 85.5t104 116.5t46.5 135
q0 52 -34 89.5t-93 37.5q-48 0 -79 -36.5t-31 -85.5q0 -32 16 -53t49 -21q23 0 39 16q12 12 26.5 6t8.5 -30q-10 -49 -57.5 -100t-147.5 -124z" />
    <glyph glyph-name="dagger" unicode="&#x2020;" 
d="M1090 999q-12 -47 -49 -75.5t-85 -28.5q-37 0 -106 37q-96 51 -143 53q-9 -6 -21 -33q0 -1 -0.5 -26.5t-1 -66t-0.5 -77.5q0 -174 -6 -213q-165 -440 -291 -848h-47q64 332 125 848q14 41 57 132t80 166.5t39 82.5q9 26 -4 35q-52 -2 -166 -51q-93 -39 -129 -39
q-44 0 -67 29t-13 73q12 51 48.5 80t86.5 29q40 0 105 -35q89 -47 139 -47q7 0 16 7.5t9 17.5q20 20 22 48t-7 53.5t-17.5 62t-6.5 65.5q3 79 15 98q41 78 116 78q46 0 67.5 -34.5t10.5 -80.5q-9 -36 -59 -108q-8 -12 -20 -27.5t-22 -27.5t-21.5 -27.5t-18 -27t-13 -25.5
t-6 -23t4.5 -20q-4 -10 1.5 -19.5t10.5 -9.5q49 0 164 47q84 35 121 35q47 0 70 -30t12 -77z" />
    <glyph glyph-name="bullet" unicode="&#x2022;" horiz-adv-x="647" 
d="M539 639q0 87 -60 148t-151 61t-152 -62.5t-61 -146.5q0 -89 61 -150t154 -61q90 0 149.5 63.5t59.5 147.5z" />
    <glyph glyph-name="ellipsis" unicode="&#x2026;" horiz-adv-x="1562" 
d="M100 86q0 -43 30 -72.5t73 -29.5t72.5 29.5t29.5 72.5t-29.5 72.5t-72.5 29.5t-73 -29.5t-30 -72.5zM629 86q0 -43 29.5 -72.5t72.5 -29.5t73 29.5t30 72.5t-30 72.5t-73 29.5t-72.5 -29.5t-29.5 -72.5zM1149 86q0 -43 29.5 -72.5t72.5 -29.5t73 29.5t30 72.5t-30 72.5
t-73 29.5t-72.5 -29.5t-29.5 -72.5z" />
    <glyph glyph-name="perthousand" unicode="&#x2030;" horiz-adv-x="2009" 
d="M1251 1270l-891 -1270h-77l895 1270h73zM582 1241q-53 0 -99 -45.5t-74 -112t-43.5 -134.5t-15.5 -120q0 -60 32 -89t71 -29q55 0 101 43t72.5 107t41 129t14.5 118q0 133 -100 133zM594 1290q99 0 149 -65t50 -164q0 -91 -46.5 -184t-130 -155.5t-176.5 -62.5
q-96 0 -149 66t-53 156q0 88 45 181.5t129.5 160.5t181.5 67zM1085 561q-53 0 -98.5 -44.5t-73 -110.5t-42.5 -133.5t-15 -120.5q0 -60 31 -89.5t69 -29.5q55 0 101.5 43t73.5 107t42 129.5t15 117.5q0 131 -103 131zM1098 612q99 0 148.5 -64.5t49.5 -164.5q0 -92 -46 -184
t-129 -154.5t-177 -62.5q-97 0 -150 66t-53 155q0 65 27.5 136.5t73.5 132.5t114 100.5t142 39.5zM1716 561q-53 0 -98.5 -44.5t-73 -110.5t-42.5 -133.5t-15 -120.5q0 -60 31 -89.5t69 -29.5q55 0 101.5 43t73.5 107t42 129.5t15 117.5q0 131 -103 131zM1729 612
q99 0 148.5 -64.5t49.5 -164.5q0 -92 -46 -184t-129 -154.5t-177 -62.5q-97 0 -150 66t-53 155q0 65 27.5 136.5t73.5 132.5t114 100.5t142 39.5z" />
    <glyph glyph-name="Euro" unicode="&#x20ac;" horiz-adv-x="1222" 
d="M715 -29q50 0 107.5 11t116.5 34t106.5 54.5t77.5 77.5t30 98q0 46 -27.5 79t-72.5 33q-46 0 -81.5 -30.5t-35.5 -81.5q0 -29 15 -42.5t32.5 -14.5t30 -8.5t8.5 -26.5q-10 -38 -68.5 -66.5t-114.5 -39.5t-94 -11q-82 0 -140.5 30t-91 79.5t-47.5 120.5t-14 145.5
t13 162.5q245 5 309 5q101 0 266 -5l17 56q-132 -4 -264 -4q-116 0 -316 4l4 20q0 2 23 78q218 4 299 4q88 0 276 -4l15 55q-26 0 -118.5 -1t-150.5 -1h-159q-105 0 -150 2q17 57 42 117t68.5 132t95 127t124.5 92.5t153 37.5q22 0 54 -4.5t67.5 -13t57.5 -25t16 -37.5
q-2 -12 -16 -22.5t-29.5 -19t-28 -29.5t-12.5 -52q0 -29 24.5 -48t47.5 -19q59 0 95 41t36 104q0 29 -14 59t-45 60.5t-93 50t-145 19.5q-244 0 -435 -154t-286 -416l-131 2l-15 -55l132 -2q-14 -40 -21 -67q-6 -19 -8 -31l-125 2l-16 -55l131 -3q-20 -177 26 -312
t161 -213.5t288 -78.5z" />
    <glyph glyph-name="trademark" unicode="&#x2122;" horiz-adv-x="1443" 
d="M1102 664v38h90q0 128 4 390q0 62 -4 172q-196 -577 -203 -600h-26q-60 188 -84 270q-12 34 -33.5 106.5t-32.5 104.5q-2 7 -35 115v-146q0 -58 -1 -150t-1 -120v-49q0 -58 17 -75.5t57 -17.5h29v-38h-244v38h29q13 0 23.5 1.5t17.5 5.5t12.5 7.5t8.5 13t4.5 15.5
t2.5 20.5t1 23t-0.5 28t-0.5 31.5v131q0 55 1 163t1 146h-94v41h221q46 -162 64 -217q44 -144 84 -262q17 51 72.5 214t88.5 265h211v-41h-90v-80v-268q0 -32 -1 -104.5t-1 -133.5h92v-38h-280zM586 1098l-2 55q-1 23 -4 38.5t-11 33t-25 31t-44 22.5q-33 12 -115 12v-583
h107v-39q-162 3 -324 0v39h108v583q-81 0 -114 -12q-51 -17 -67.5 -47.5t-18.5 -77.5l-2 -55h-35l6 145q2 45 -4 90h49q18 0 71 -1t85 -1h92q66 0 164 1t116 1q-4 -86 -4 -90l7 -145h-35z" />
    <glyph glyph-name="approxequal" unicode="&#x2248;" horiz-adv-x="1032" 
 />
    <glyph glyph-name="notequal" unicode="&#x2260;" horiz-adv-x="1032" 
 />
    <glyph glyph-name="greaterequal" unicode="&#x2265;" horiz-adv-x="1032" 
 />
    <glyph glyph-name="FL0127" unicode="&#xe000;" horiz-adv-x="522" 
 />
    <glyph glyph-name="CR" 
 />
    </font>
</defs>
</svg>
